<svg width="22" height="22" fill="none" xmlns="http://www.w3.org/2000/svg"><mask id="a" maskUnits="userSpaceOnUse" x="0" y="0" width="22" height="22" fill="#000"><path fill="#fff" d="M0 0h22v22H0z"/><path fill-rule="evenodd" clip-rule="evenodd" d="M1 11C1 5.473 5.473 1 11 1c5.559 0 10 3.863 10 9.355 0 3.295-2.053 5.603-6.393 5.603-1.15 0-1.903-.582-1.854-1.702-.647.915-1.892 1.894-3.494 1.894-2.29 0-3.658-1.482-3.658-3.966 0-3.793 2.627-6.331 5.37-6.331 1.4 0 2.486.642 2.959 1.734.034-.417.056-.527.119-.844l.037-.19a.484.484 0 01.475-.392h.5c.305 0 .534.278.475.577l-1.293 6.616c-.169.93-.01 1.365.787 1.365 2.55 0 4.68-1.426 4.68-4.364 0-4.838-3.934-8.065-8.71-8.065A8.705 8.705 0 002.29 11 8.705 8.705 0 0011 19.71a8.73 8.73 0 005.154-1.688.482.482 0 01.657.086l.205.25a.483.483 0 01-.085.694A10.024 10.024 0 0111 21C5.473 21 1 16.526 1 11zm6.109 1.107c0 1.696.883 2.709 2.362 2.709 2.354 0 3.9-2.615 3.9-4.96 0-1.53-.775-2.65-2.342-2.65-1.873 0-3.92 1.89-3.92 4.901z"/></mask><path fill-rule="evenodd" clip-rule="evenodd" d="M1 11C1 5.473 5.473 1 11 1c5.559 0 10 3.863 10 9.355 0 3.295-2.053 5.603-6.393 5.603-1.15 0-1.903-.582-1.854-1.702-.647.915-1.892 1.894-3.494 1.894-2.29 0-3.658-1.482-3.658-3.966 0-3.793 2.627-6.331 5.37-6.331 1.4 0 2.486.642 2.959 1.734.034-.417.056-.527.119-.844l.037-.19a.484.484 0 01.475-.392h.5c.305 0 .534.278.475.577l-1.293 6.616c-.169.93-.01 1.365.787 1.365 2.55 0 4.68-1.426 4.68-4.364 0-4.838-3.934-8.065-8.71-8.065A8.705 8.705 0 002.29 11 8.705 8.705 0 0011 19.71a8.73 8.73 0 005.154-1.688.482.482 0 01.657.086l.205.25a.483.483 0 01-.085.694A10.024 10.024 0 0111 21C5.473 21 1 16.526 1 11zm6.109 1.107c0 1.696.883 2.709 2.362 2.709 2.354 0 3.9-2.615 3.9-4.96 0-1.53-.775-2.65-2.342-2.65-1.873 0-3.92 1.89-3.92 4.901z" fill="#F9F9FA"/><path d="M12.753 14.256l.1.004.014-.34-.196.278.082.058zm1.177-6.669l-.092.04.192-.032-.1-.008zm.119-.844l.098.019-.098-.02zm.037-.19l-.099-.019.099.02zm1.45.185l-.098-.02.098.02zm-1.293 6.616l-.098-.02v.002l.098.018zm1.91 4.668l.06.08-.06-.08zm.658.086l-.077.063.077-.063zm.205.25l.077-.064-.077.064zm-.085.694l-.06-.08.06.08zM11 .9C5.418.9.9 5.417.9 11h.2c0-5.472 4.429-9.9 9.9-9.9V.9zm10.1 9.455C21.1 4.8 16.606.9 11 .9v.2c5.512 0 9.9 3.827 9.9 9.255h.2zm-6.494 5.703c2.188 0 3.814-.582 4.893-1.593 1.08-1.012 1.601-2.441 1.601-4.11h-.2c0 1.627-.506 2.998-1.537 3.964-1.032.967-2.603 1.539-4.756 1.539v.2zm-1.953-1.807c-.026.585.159 1.042.511 1.351.35.307.852.456 1.443.456v-.2c-.56 0-1.01-.142-1.311-.406-.3-.262-.467-.656-.443-1.192l-.2-.009zm-3.394 2c1.644 0 2.916-1.004 3.575-1.938l-.163-.115c-.634.898-1.851 1.852-3.412 1.852v.2zm-3.758-4.067c0 1.26.347 2.278.997 2.982.65.706 1.594 1.084 2.761 1.084v-.2c-1.123 0-2.008-.363-2.614-1.02-.607-.657-.944-1.622-.944-2.846h-.2zm5.47-6.431c-2.808 0-5.47 2.593-5.47 6.431h.2c0-3.748 2.591-6.231 5.27-6.231v-.2zm3.05 1.795c-.491-1.136-1.617-1.795-3.05-1.795v.2c1.37 0 2.413.626 2.867 1.674l.184-.08zm-.07-.825c-.064.32-.086.434-.12.856l.199.016c.034-.413.055-.518.117-.833l-.197-.039zm.036-.189l-.037.19.197.038.037-.19-.197-.038zm.202-.34a.584.584 0 00-.202.34l.197.038a.383.383 0 01.132-.223l-.127-.154zm.372-.133a.584.584 0 00-.372.134l.127.154a.384.384 0 01.245-.088v-.2zm.5 0h-.5v.2h.5v-.2zm.573.696a.584.584 0 00-.572-.696v.2c.241 0 .423.22.376.458l.196.038zm-1.293 6.616l1.293-6.616-.196-.038-1.293 6.616.196.038zm.689 1.246c-.382 0-.574-.103-.667-.28-.1-.193-.106-.503-.021-.967l-.197-.036c-.085.465-.094.838.041 1.096.144.273.43.387.844.387v-.2zm4.58-4.264c0 1.443-.522 2.505-1.349 3.208-.829.705-1.974 1.056-3.231 1.056v.2c1.292 0 2.487-.361 3.36-1.104.877-.745 1.42-1.865 1.42-3.36h-.2zM11 2.39c4.732 0 8.61 3.193 8.61 7.965h.2c0-4.903-3.99-8.165-8.81-8.165v.2zM2.39 11c0-4.758 3.851-8.61 8.61-8.61v-.2A8.805 8.805 0 002.19 11h.2zM11 19.61A8.605 8.605 0 012.39 11h-.2c0 4.87 3.941 8.81 8.81 8.81v-.2zm5.094-1.669A8.63 8.63 0 0111 19.61v.2a8.83 8.83 0 005.213-1.707l-.119-.162zm.794.103a.582.582 0 00-.794-.103l.119.162a.382.382 0 01.52.068l.155-.127zm.205.25l-.205-.25-.154.127.204.25.155-.127zm-.103.838a.583.583 0 00.103-.838l-.155.127a.383.383 0 01-.066.55l.118.161zM11 21.1c2.155 0 4.263-.696 5.99-1.968l-.118-.16A9.924 9.924 0 0111 20.9v.2zM.9 11c0 5.582 4.517 10.1 10.1 10.1v-.2A9.895 9.895 0 011.1 11H.9zm8.571 3.716c-.715 0-1.277-.244-1.66-.684-.386-.442-.602-1.093-.602-1.925h-.2c0 .865.225 1.568.65 2.056.428.49 1.048.753 1.812.753v-.2zm3.8-4.86c0 1.153-.38 2.372-1.048 3.3-.668.93-1.616 1.56-2.752 1.56v.2c1.217 0 2.22-.677 2.914-1.642.694-.965 1.087-2.225 1.087-3.417h-.2zm-2.242-2.55c.757 0 1.313.27 1.682.716.37.448.56 1.085.56 1.835h.2c0-.78-.197-1.468-.606-1.963-.411-.497-1.027-.788-1.836-.788v.2zm-3.82 4.801c0-2.969 2.014-4.8 3.82-4.8v-.2c-1.94 0-4.02 1.946-4.02 5h.2z" fill="#F9F9FA" mask="url(#a)"/></svg>