<svg width="20" height="20" fill="none" xmlns="http://www.w3.org/2000/svg"><path d="M19.463 8.699l-.002-.001L11.302.539A1.829 1.829 0 0010 0a1.83 1.83 0 00-1.302.54L.543 8.692l-.008.009a1.843 1.843 0 00.003 2.6 1.831 1.831 0 001.279.54h.325v6.003c0 1.188.967 2.155 2.155 2.155H7.49a.586.586 0 00.586-.586v-4.707c0-.542.442-.983.984-.983h1.883c.542 0 .983.44.983.983v4.707c0 .323.262.586.586.586h3.192a2.157 2.157 0 002.155-2.155v-6.004h.302A1.844 1.844 0 0019.463 8.7zm-.83 1.774a.665.665 0 01-.473.197h-.888a.586.586 0 00-.586.585v6.59a.984.984 0 01-.983.983h-2.606v-4.121a2.158 2.158 0 00-2.155-2.155H9.058a2.158 2.158 0 00-2.156 2.155v4.121H4.297a.984.984 0 01-.983-.983v-6.59a.586.586 0 00-.586-.585h-.872a.664.664 0 01-.488-.196.67.67 0 010-.947v-.001l8.159-8.158A.664.664 0 0110 1.172c.179 0 .347.07.473.196l8.157 8.156.004.004a.67.67 0 01-.001.945z" fill="#737373"/></svg>