<svg width="20" height="20" fill="none" xmlns="http://www.w3.org/2000/svg"><path d="M10 20c5.523 0 10-4.477 10-10S15.523 0 10 0 0 4.477 0 10s4.477 10 10 10z" fill="#4D76A1"/><path fill-rule="evenodd" clip-rule="evenodd" d="M9.622 14.386h.785s.237-.026.358-.157c.112-.12.108-.345.108-.345s-.015-1.053.474-1.208c.481-.152 1.1 1.018 1.756 1.468.496.34.873.266.873.266l1.753-.024s.918-.057.483-.778c-.036-.059-.254-.534-1.304-1.508-1.1-1.021-.952-.856.372-2.621.807-1.075 1.13-1.732 1.028-2.013-.096-.268-.689-.197-.689-.197l-1.974.012s-.147-.02-.255.045a.553.553 0 00-.175.212s-.312.832-.729 1.54c-.879 1.493-1.23 1.572-1.374 1.479-.334-.216-.251-.868-.251-1.331 0-1.447.22-2.05-.427-2.206-.215-.052-.373-.086-.922-.092-.704-.007-1.3.002-1.638.168-.225.11-.398.355-.292.369.13.017.426.08.582.293.203.275.195.893.195.893s.117 1.703-.271 1.915c-.266.145-.631-.151-1.415-1.506a12.59 12.59 0 01-.705-1.46s-.058-.144-.163-.22a.818.818 0 00-.303-.123l-1.876.013s-.282.007-.385.13c-.092.109-.008.334-.008.334s1.47 3.437 3.132 5.168c1.525 1.588 3.257 1.484 3.257 1.484z" fill="#fff"/></svg>