<svg width="20" height="20" fill="none" xmlns="http://www.w3.org/2000/svg"><path d="M13.571 6.129C12.986 2.529 11.607 0 10.002 0s-2.984 2.528-3.57 6.129h7.14zM6.131 10c0 .895.048 1.754.132 2.58h7.474a25.266 25.266 0 000-5.16H6.263A25.27 25.27 0 006.13 10zm13.095-3.871a10.023 10.023 0 00-6.373-5.71c.985 1.363 1.662 3.416 2.017 5.71h4.356zM7.146.419A10.016 10.016 0 00.779 6.13h4.356c.351-2.294 1.029-4.347 2.013-5.71zm12.511 7h-4.626c.085.847.133 1.714.133 2.581s-.048 1.734-.133 2.58h4.622A9.912 9.912 0 0020 10c0-.895-.125-1.754-.343-2.58zM4.84 10c0-.867.048-1.734.133-2.58H.347A10.087 10.087 0 000 10c0 .895.13 1.754.347 2.58h4.622c-.08-.846-.13-1.713-.13-2.58zm1.593 3.871C7.018 17.471 8.397 20 10.002 20s2.984-2.528 3.57-6.129h-7.14zm6.424 5.71a10.032 10.032 0 006.373-5.71h-4.356c-.355 2.294-1.033 4.347-2.017 5.71zM.778 13.87a10.022 10.022 0 006.373 5.71c-.984-1.363-1.662-3.416-2.017-5.71H.778z" fill="#45A1FF"/></svg>