<svg width="88" height="88" fill="none" xmlns="http://www.w3.org/2000/svg"><path d="M67.467 0H20.533C9.193 0 0 9.193 0 20.533v46.934C0 78.807 9.193 88 20.533 88h46.934C78.807 88 88 78.807 88 67.467V20.533C88 9.193 78.807 0 67.467 0z" fill="#45A1FF"/><path d="M79.18 54.792c0-5.717-2.936-11.464-8.807-15.98l-.206-.18a4.972 4.972 0 00-.851-.54l-.118-.195a12.72 12.72 0 00.28-3.166 19.244 19.244 0 00-.867-5.417c-1.467-7.052-5.18-10.998-10.92-11.703a9.62 9.62 0 00-4.892.492 9.819 9.819 0 00-4.047 2.854 10.195 10.195 0 00-4.74-.555 10.066 10.066 0 00-4.727.555 9.847 9.847 0 00-4.047-2.85 9.648 9.648 0 00-4.891-.496c-5.754.705-9.409 4.651-10.935 11.703a19.23 19.23 0 00-.851 5.417 12.708 12.708 0 00.235 3.166l-.103.195a4.545 4.545 0 00-.866.54l-.206.18c-5.87 4.501-8.909 10.263-8.806 15.98-.05 1.045.024 2.093.22 3.12a10.36 10.36 0 001.16 3.151c0 .165.132.345.22.51 2.568 5.327 6.546 7.803 15.191 9.453 2.182.356 4.34.857 6.458 1.5.646.39 1.35.886 2.246 1.501a20.237 20.237 0 007.603 3.511c.19 0 .396 0 .602.09.418.057.84.092 1.262.105h.484c.422-.013.844-.048 1.262-.105l.602-.09a20.094 20.094 0 007.589-3.51c.91-.631 1.614-1.126 2.245-1.501a51.003 51.003 0 016.473-1.5c8.63-1.651 12.608-4.127 15.191-9.453.074-.166.132-.346.206-.51.551-.981.947-2.045 1.174-3.151.174-1.03.233-2.078.176-3.121zm-3.612 5.071a12.386 12.386 0 01-3.728 4.006 66.844 66.844 0 00-5.372 1.846 70.272 70.272 0 00-4.858 2.115 18.8 18.8 0 00-6.766 2.326 18.341 18.341 0 00-5.108 3 10.614 10.614 0 01-3.728 1.696 7.116 7.116 0 01-1.233.225 7.2 7.2 0 01-.807 0 6.984 6.984 0 01-.793 0 7.119 7.119 0 01-1.233-.225 10.788 10.788 0 01-3.743-1.695 18.34 18.34 0 00-5.093-3.001 18.798 18.798 0 00-6.766-2.326c-1.585-.765-3.23-1.5-4.858-2.115-1.63-.615-3.567-1.306-5.372-1.846a12.222 12.222 0 01-3.728-4.006 13.33 13.33 0 01-1.101-4.276c0-3.676 1.805-7.247 5.973-11.583.837-.87 1.468-1.5 1.88-2.026.31.615.833 1.09 1.467 1.335a1.257 1.257 0 001.248-.345c.557-.57.47-.99.088-2.76a25.634 25.634 0 01-.206-9.783V30.2c.881-3.295 2.912-6.145 5.71-8.013a4.773 4.773 0 015.02-.18l3.772 5.702c.572 1.365.866 2.056 1.688 2.22.21.06.434.06.645 0a1.17 1.17 0 00.543-.345c.558-.57.529-1.5.265-2.715a19.311 19.311 0 00-.646-2.356c.663.958 1.26 1.96 1.79 3 .66 1.291 1.145 2.206 2.231 1.936.317-.084.594-.282.78-.557a1.42 1.42 0 00.233-.943 12.688 12.688 0 00-1.468-4.396 7.598 7.598 0 011.6-.405 7.72 7.72 0 011.615.405 12.749 12.749 0 00-1.468 4.396c-.015.331.078.658.264.93.186.27.454.471.764.57 1.086.27 1.57-.645 2.23-1.935a25.998 25.998 0 011.776-3 22.401 22.401 0 00-.645 2.355c-.25 1.26-.294 2.145.264 2.715.154.162.346.28.558.346.21.06.434.06.645 0 .808-.165 1.101-.856 1.688-2.221l3.905-5.702a4.803 4.803 0 015.034.18c2.797 1.868 4.829 4.718 5.71 8.013v.225a25.62 25.62 0 01-.25 9.768c-.382 1.77-.484 2.19 0 2.76a1.337 1.337 0 001.262.36 2.693 2.693 0 001.468-1.335c.455.525 1.057 1.155 1.894 2.026 4.153 4.336 6.017 7.907 5.959 11.583a13.31 13.31 0 01-.998 4.276zM52.775 20.852c-.469.451-.887.954-1.247 1.5l-.206-.135-.235-.045a8.218 8.218 0 011.688-1.26v-.06zM36.63 22.247l-.206.136a8.808 8.808 0 00-1.247-1.501c.61.349 1.177.772 1.688 1.26l-.235.105z" fill="#212125"/><path d="M69.594 39.818c-.837-.63-.91-.735-1.027-.405v-.135l-.25.39c-.734 1.095-1.115 1.155-.837.15.559-1.634.822-3.357.778-5.087a17.39 17.39 0 00-.866-5.341c-1.468-6.332-4.696-9.873-9.804-10.503a8.63 8.63 0 00-4.732.591 8.842 8.842 0 00-3.737 3.025 8.852 8.852 0 00-5.138-.795 8.923 8.923 0 00-5.078.81 8.841 8.841 0 00-3.73-3.02 8.63 8.63 0 00-4.724-.596c-5.108.63-8.381 4.171-9.805 10.503a17.847 17.847 0 00-.88 5.341c-.038 1.73.23 3.454.792 5.087.264 1.005-.117.945-.837-.15l-.249-.39-.073.135c-.132-.33-.191-.225-1.028.405-5.739 4.381-8.63 10.008-8.38 15.514.004.796.082 1.59.234 2.37a9.112 9.112 0 001.233 3.002c0 .09 0 .195.117.285 2.334 4.951 5.974 7.217 14.238 8.717 2.27.351 4.515.852 6.722 1.5.69.42 1.468.946 2.436 1.621a19 19 0 006.694 3.211l.528.12h.088c.267.05.536.086.807.105h1.702c.272-.02.541-.055.808-.105h.132l.529-.12a18.899 18.899 0 006.678-3.21c.983-.676 1.761-1.201 2.451-1.621a51.987 51.987 0 016.722-1.5c8.25-1.576 11.904-3.812 14.296-8.763 0-.09 0-.195.118-.285a9.439 9.439 0 001.174-3.001 12.81 12.81 0 00.19-2.34c.338-5.492-2.553-11.119-8.292-15.515z" fill="#45A1FF"/><path d="M14.627 54.596h-.235a.663.663 0 01-.19-.15.632.632 0 01-.133-.21.785.785 0 010-.255c.046-.823.25-1.629.602-2.37.362-.74.86-1.403 1.468-1.95a5.623 5.623 0 011.899-1.25 5.524 5.524 0 012.225-.386c.587.02 1.164.163 1.694.421.53.259 1.003.626 1.389 1.08a.605.605 0 01.146.464.611.611 0 01-.22.435.584.584 0 01-.455.15.576.576 0 01-.425-.225 2.945 2.945 0 00-.998-.78 3.146 3.146 0 00-1.219-.33 4.431 4.431 0 00-1.761.285 4.571 4.571 0 00-1.468.975 4.712 4.712 0 00-1.16 1.5 4.98 4.98 0 00-.469 1.876.698.698 0 01-.19.45.681.681 0 01-.441.18l-.059.09zM72.59 54.597a.682.682 0 01-.441-.18.698.698 0 01-.191-.45 4.978 4.978 0 00-.47-1.876 4.922 4.922 0 00-1.16-1.5 4.263 4.263 0 00-1.467-.976 4.318 4.318 0 00-1.747-.285 3.145 3.145 0 00-1.218.33c-.384.184-.724.45-.998.78a.604.604 0 01-.426.226.562.562 0 01-.455-.15.596.596 0 01-.22-.435.67.67 0 01.132-.466c.41-.468.91-.845 1.468-1.11a4.224 4.224 0 011.703-.45 5.522 5.522 0 012.258.344c.722.27 1.382.69 1.94 1.231a6.42 6.42 0 011.467 1.95c.352.743.556 1.549.602 2.372a.786.786 0 010 .255.965.965 0 01-.117.21 1.04 1.04 0 01-.206.15h-.235l-.22.03z" fill="#212125"/><path d="M43.146 71.551a27.487 27.487 0 01-8.396-1.365 33.635 33.635 0 01-8.616-4.411c-4.021-2.626-6.458-4.201-7.984-7.337-2.143-4.397-1.717-7.157-.998-9.273.034-.107.083-.208.146-.3a.867.867 0 01.265-.195.607.607 0 01.308-.09.864.864 0 01.338 0c.1.046.195.106.278.18.08.07.146.157.191.255.05.103.08.215.088.33a.826.826 0 010 .33c-.63 1.876-.924 4.156.925 7.983 1.32 2.7 3.479 4.11 7.339 6.661a31.166 31.166 0 008.175 4.217c7.266 2.235 13.078 1.62 23.044-2.431 5.753-2.34 8.058-4.877 8.616-5.597 3.082-3.93 1.952-8.882 1.467-10.758a.856.856 0 01.103-.63.853.853 0 01.514-.39.805.805 0 01.628.101.83.83 0 01.37.53c.47 2.085 1.761 7.636-1.835 12.213-.807 1.02-3.332 3.676-9.29 6.106-6.37 2.641-11.14 3.871-15.676 3.871z" fill="#212125"/><path fill-rule="evenodd" clip-rule="evenodd" d="M34.72 47.665a3.369 3.369 0 00-2.142 1.155 3.451 3.451 0 00-.837 2.326c0 1.245.352 1.86.455.795.411-4.291 5.255-4.321 7.5 0 .47.87.617.735.367-.315a5.359 5.359 0 00-1.992-2.93 5.159 5.159 0 00-3.35-1.001" fill="#212125"/><path d="M32.005 52.616c-.41 0-.41-1.32-.41-1.5a3.573 3.573 0 01.866-2.401 3.47 3.47 0 012.23-1.185 5.289 5.289 0 013.432 1.023 5.494 5.494 0 012.043 2.998c.191.78.147.975 0 1.02-.146.045-.279 0-.587-.63-1.336-2.536-3.434-3.376-4.931-3.001a3.046 3.046 0 00-1.68 1.087 3.164 3.164 0 00-.669 1.914c0 .315-.073.675-.294.675zm2.73-4.816c-.81.082-1.56.471-2.102 1.09a3.374 3.374 0 00-.833 2.256c-.016.386.033.771.147 1.14.038-.122.063-.248.073-.375a3.453 3.453 0 01.717-2.09 3.325 3.325 0 011.822-1.196 5.047 5.047 0 013.112.737 5.22 5.22 0 012.084 2.474c.074.135.162.27.25.405a3.17 3.17 0 00-.118-.63 5.209 5.209 0 00-1.93-2.847 5.014 5.014 0 00-3.25-.98l.029.016z" fill="#212125"/><path fill-rule="evenodd" clip-rule="evenodd" d="M35.19 50.215a2.335 2.335 0 00-.778 1.313 2.373 2.373 0 00.191 1.523c.162.18.206.135.25-.345.088-1.02.367-1.59.778-1.59.176 0 .19 0 .161.12-.455 1.035.411 3.406 1.79 4.876l.353.39H37.7a2.227 2.227 0 01-1.394-.69c-.5-.465-.69-.285-.294.27 1.468 2.026 3.406 1.5 3.42-.9 0-2.851-2.671-6.002-4.242-5.027" fill="#212125"/><path d="M37.877 57.492a2.605 2.605 0 01-1.129-.404 2.674 2.674 0 01-.838-.87c-.25-.346-.309-.571-.176-.691.132-.12.352 0 .66.255.34.363.79.596 1.277.66l-.19-.225c-1.469-1.5-2.276-3.856-1.85-4.981-.323 0-.573.555-.66 1.5 0 .36 0 .525-.191.57-.191.045-.206-.075-.28-.15a1.792 1.792 0 01-.264-1.38c.031-.32.125-.63.277-.91a2.36 2.36 0 01.604-.726 1.587 1.587 0 011.732.075 6.162 6.162 0 011.955 2.183 6.32 6.32 0 01.746 2.859c.059.45-.025.906-.239 1.303a2.089 2.089 0 01-.95.902 1.438 1.438 0 01-.44 0l-.044.03zm-1.997-1.77c.05.113.114.22.191.315.646.93 1.468 1.366 2.172 1.14.705-.225 1.101-.96 1.101-1.965a6.105 6.105 0 00-.72-2.728 5.955 5.955 0 00-1.863-2.089 1.447 1.447 0 00-1.468-.09c-.222.182-.405.41-.537.668a2.12 2.12 0 00-.226.833 1.531 1.531 0 00.206 1.17 2.26 2.26 0 010-.255c.102-1.095.425-1.71.91-1.71.102 0 .205 0 .264.09a.153.153 0 010 .105.123.123 0 010 .105c-.426.99.425 3.3 1.761 4.756l.499.555-.455.09a2.343 2.343 0 01-1.468-.72 1.033 1.033 0 00-.323-.27h-.044z" fill="#212125"/><path fill-rule="evenodd" clip-rule="evenodd" d="M40.416 55.452c0 .165 0 .315-.074.48-.205 2.296-1.394 3.601-2.935 3.196-.793-.225-.881-.18-.426.18 1.336 1.05 2.936 0 3.552-2.1.19-.81 0-2.191-.176-1.756" fill="#212125"/><path d="M38.185 59.863a2.07 2.07 0 01-1.233-.45c-.22-.18-.367-.315-.294-.45.074-.135.22-.135.837 0 .246.06.502.06.748 0a1.74 1.74 0 00.705-.3c.393-.353.71-.787.93-1.273.22-.485.338-1.013.347-1.548a2.05 2.05 0 010-.525c.103-.18.22-.165.25-.135.322.12.293 1.395.146 1.965a3.475 3.475 0 01-.65 1.5c-.333.44-.764.79-1.258 1.021a1.642 1.642 0 01-.602.105l.074.09zm-1.145-.645h.073c.22.19.482.318.764.375.274.068.561.068.836 0a3.2 3.2 0 001.158-.96c.307-.41.513-.888.603-1.396a4.462 4.462 0 000-1.5v.3a4.11 4.11 0 01-.374 1.652c-.238.517-.58.977-1.005 1.349-.237.168-.508.28-.793.33a1.882 1.882 0 01-.866 0l-.396-.15z" fill="#212125"/><path fill-rule="evenodd" clip-rule="evenodd" d="M50.22 47.665a5.144 5.144 0 00-3.344 1.002 5.344 5.344 0 00-1.984 2.929c-.264 1.05-.102 1.185.353.315 2.245-4.291 7.089-4.261 7.5 0 .103 1.065.47.45.455-.795a3.437 3.437 0 00-.822-2.326 3.44 3.44 0 00-2.158-1.155" fill="#212125"/><path d="M52.921 52.616c-.206 0-.279-.36-.308-.66a3.15 3.15 0 00-.66-1.912 3.032 3.032 0 00-1.674-1.089 4.788 4.788 0 00-2.96.71 4.954 4.954 0 00-1.972 2.366c-.308.585-.455.675-.587.63-.132-.045-.19-.255 0-1.035a5.493 5.493 0 012.044-2.998 5.289 5.289 0 013.431-1.023c.86.104 1.652.529 2.224 1.193.572.665.883 1.523.873 2.408 0 .15 0 1.5-.396 1.5l-.015-.09zm-3.302-4.036c.214-.023.43-.023.645 0a3.355 3.355 0 011.825 1.198c.462.595.719 1.329.73 2.088-.016.12-.016.24 0 .36.115-.368.164-.754.146-1.14a3.344 3.344 0 00-.83-2.253 3.204 3.204 0 00-2.105-1.078 5.02 5.02 0 00-3.196 1.08 5.217 5.217 0 00-1.839 2.881 4.6 4.6 0 00-.117.615c.095-.127.178-.263.25-.405a5.518 5.518 0 011.793-2.307 5.345 5.345 0 012.698-1.039z" fill="#212125"/><path fill-rule="evenodd" clip-rule="evenodd" d="M49.883 50.215c-1.586-1.005-4.257 2.176-4.242 5.027 0 2.4 1.981 3 3.42.9.396-.57.205-.735-.309-.27-.369.385-.856.628-1.38.69h-.234l.352-.39c1.38-1.5 2.246-3.856 1.79-4.876 0-.105 0-.12.148-.12.41 0 .704.57.792 1.59 0 .48.074.525.25.33.23-.468.296-1.003.19-1.515a2.32 2.32 0 00-.777-1.306" fill="#212125"/><path d="M47.153 57.493c-.16 0-.318-.026-.47-.075a2.089 2.089 0 01-.95-.902 2.156 2.156 0 01-.239-1.304 6.408 6.408 0 01.778-2.833 6.252 6.252 0 011.952-2.163 1.634 1.634 0 011.717-.09c.252.197.46.446.611.73.152.284.244.598.27.92a1.717 1.717 0 01-.264 1.366s-.162.195-.279.15c-.117-.045-.162-.195-.19-.555 0-.93-.324-1.5-.661-1.5.41 1.14-.455 3.465-1.835 4.965l-.206.21c.489-.06.94-.293 1.277-.66.323-.27.544-.36.676-.255.132.105 0 .36-.177.706-.216.358-.51.66-.858.884a2.649 2.649 0 01-1.152.406zm2.07-7.367c-.31.016-.61.103-.881.255a6.093 6.093 0 00-1.852 2.103 6.241 6.241 0 00-.732 2.728c0 1.02.382 1.74 1.013 1.95.631.21 1.468-.21 2.172-1.124.073-.105.136-.215.191-.33a1.174 1.174 0 00-.308.224c-.389.413-.91.668-1.468.72l-.47-.09.514-.554c1.35-1.5 2.202-3.767 1.761-4.757a.29.29 0 010-.105.214.214 0 010-.105c0-.09.177-.09.265-.09.499 0 .822.6.91 1.71v.256a1.522 1.522 0 00.205-1.17 2.222 2.222 0 00-.748-1.501 1.139 1.139 0 00-.587-.15l.014.03z" fill="#212125"/><path fill-rule="evenodd" clip-rule="evenodd" d="M44.525 55.452c-.25-.435-.367.945-.161 1.756.543 2.175 2.202 3.15 3.537 2.1.47-.36.367-.405-.425-.18-1.468.405-2.672-.9-2.936-3.196.014-.16.014-.32 0-.48" fill="#212125"/><path d="M46.757 59.863a2.218 2.218 0 01-.617-.105 3.435 3.435 0 01-1.251-1.025 3.534 3.534 0 01-.657-1.495c-.147-.57-.161-1.86.147-1.98 0 0 .161 0 .25.134.044.172.073.348.087.525.004.538.12 1.07.34 1.559.22.489.54.924.937 1.277a1.698 1.698 0 001.468.24c.616-.165.763-.18.837 0 .073.18-.074.255-.309.45a2.012 2.012 0 01-1.232.42zm-2.32-4.23a3.924 3.924 0 000 1.5 3.2 3.2 0 00.598 1.393 3.11 3.11 0 001.164.947c.274.075.562.075.836 0 .28-.063.541-.191.764-.375l-.382.105c-.286.06-.58.06-.866 0a1.975 1.975 0 01-.793-.345 4.058 4.058 0 01-1.002-1.35 4.14 4.14 0 01-.377-1.65c.088-.03.073-.136.058-.226z" fill="#212125"/><path d="M60.51 11.04c5.136.81 9.863 6 10.758 13.503 1.306 10.893-3.302 19.505-15.06 16.4-13.077-3.511-14.354-10.323-9.921-20.331 3.053-6.887 9.07-10.383 14.222-9.573z" fill="#fff"/><path d="M67.701 28.37a11.534 11.534 0 013.464 2.145c.257-1.992.257-4.01 0-6.002-.895-7.502-5.621-12.648-10.758-13.504-5.138-.855-11.17 2.686-14.223 9.543a22.85 22.85 0 00-.969 2.956c2.319-.507 4.7-.649 7.06-.42 1.303.151 2.594.402 3.86.75 1.83.34 3.628.841 5.372 1.5a28.395 28.395 0 016.194 3.031z" fill="#45A1FF"/><path d="M67.232 28.024c.176.12.381.225.543.36a11.038 11.038 0 013.478 2.146c.256-1.992.256-4.01 0-6.002-.895-7.502-5.621-12.648-10.773-13.503a11.29 11.29 0 00-7.442 1.68 9.593 9.593 0 013.274 0c5.137.795 9.863 6.002 10.758 13.504.093.6.147 1.207.162 1.815zM44.525 33.426c.5 3.436 1.042 5.641 2.495 6.857 1.028.855 2.628.885 5.71 1.125a33.265 33.265 0 014.917.36c2.231.495 2.686 1.126 3.816 1.29 1.6.21 4.066-.63 7.677-5.776h-.25a12.643 12.643 0 00-1.38-.63c-.22-.075-.425-.135-.63-.225H66.54a26.756 26.756 0 00-3.082-.63c-2.245-.39-4.403-.75-6.693-1.2-2.26-.47-4.543-.82-6.84-1.051-.543 0-1.056-.075-1.6-.105a2.16 2.16 0 00-.44 0h-.675c-.898.017-1.795.088-2.686.21v-.225z" fill="#45A1FF"/><path d="M48.987 42.713a11.48 11.48 0 006.326 3.106c6.209.975 11.17-2.926 13.87-8.537l-.249-.12a22.97 22.97 0 00-1.38-.63l-.63-.21a.13.13 0 00-.089 0h-.25l-1.188-.286c-2.789 5.117-7.544 8.568-13.43 7.637a12.815 12.815 0 01-2.936-.855l-.044-.105z" fill="#45A1FF"/><path d="M45.832 39.563a22.81 22.81 0 01-2.203-9.616 22.821 22.821 0 012.056-9.65c3.023-6.737 9.13-10.818 14.912-9.903 5.783.915 10.436 6.677 11.302 14.03.43 3.294.136 6.646-.862 9.81a22.452 22.452 0 01-4.906 8.48c-3.097 3.09-5.255-.18-9.291-.826-4.037-.645-8.939 1.576-11.008-2.325zm1.012-18.71a21.521 21.521 0 00-1.94 9.058c.018 3.13.716 6.216 2.043 9.036 1.864 3.496 6.135 1.5 9.79 2.026 3.655.525 5.68 3.586 8.47.84a21.112 21.112 0 004.61-7.979 21.452 21.452 0 00.805-9.23C69.8 17.82 65.617 12.6 60.348 11.713c-5.27-.885-10.759 3.001-13.562 9.138h.058z" fill="#212125"/><path d="M61.727 35.106a9.101 9.101 0 001.923-4.396 8.989 8.989 0 00-.587-4.847c-1.218-.435-2.392-.96-3.61-1.365a18.006 18.006 0 00-3.347-.48 3.851 3.851 0 01-1.938-.495c-.924-.465-1.467 0-2.025.57a9.096 9.096 0 00-2.01 4.501 8.985 8.985 0 00.704 5.117c1.629 0 3.258 0 4.873.15 2.044.165 4.063.567 6.017 1.2v.045z" fill="#45A1FF"/><path d="M60.069 30.26a4.592 4.592 0 00-.323-2.55 4.485 4.485 0 00-1.545-1.957 4.34 4.34 0 00-2.33-.805 4.181 4.181 0 00-2.392.555 4.453 4.453 0 00-1.747 1.771 4.675 4.675 0 00-.572 2.43c.01.896.28 1.769.778 2.506a4.493 4.493 0 001.878 1.5c.646 0 1.277 0 1.908.106.382 0 .778 0 1.145.12a4.391 4.391 0 002.15-1.376 4.548 4.548 0 001.05-2.36v.06z" fill="#212125"/><path d="M55.328 31.445c.29 0 .574-.088.815-.253.242-.165.43-.399.541-.673a1.53 1.53 0 00-.318-1.635 1.438 1.438 0 00-1.6-.325 1.475 1.475 0 00-.658.552 1.524 1.524 0 00.182 1.895c.275.281.649.44 1.038.44zM60.994 34.866a8.653 8.653 0 002.025-4.966 8.41 8.41 0 01-2.598 4.801l.573.165z" fill="#fff"/><path d="M44.525 23.553c14.854-1.365 27.462 7.502 27.271 7.307-14.149-13.249-27.27-7.307-27.27-7.307zM43.982 33.711c11.346-3.721 25.158 3.556 25.158 3.556-18.802-4.891-25.158-3.556-25.158-3.556z" fill="#212125"/><path d="M39.902 23.283c3.23 9.078-.558 16.97-9.805 17.69-9.246.72-14.237-6.497-12.358-15.964 1.277-6.497 5.768-10.713 10.274-11.074 4.506-.36 9.673 3.136 11.89 9.348z" fill="#fff"/><path d="M26.237 26.419a26.537 26.537 0 014.814-.946 22.085 22.085 0 013.45-.405c2.08-.03 4.153.258 6.15.855a20.636 20.636 0 00-.72-2.64c-2.23-6.197-7.338-9.678-11.844-9.318-4.506.36-9.042 4.576-10.275 11.043a20.48 20.48 0 00-.323 5.267 9.927 9.927 0 013.185-1.636 24.354 24.354 0 015.563-2.22z" fill="#45A1FF"/><path d="M21.32 26.689c1.277-6.482 5.768-10.698 10.274-11.058a8.755 8.755 0 012.863.255 9.985 9.985 0 00-6.43-1.936c-4.564.36-9.04 4.577-10.273 11.073a20.403 20.403 0 00-.338 5.267 9.813 9.813 0 013.185-1.65l.5-.256c.043-.568.116-1.134.22-1.695zM38.258 34.296h-2.437c-2.026.045-4.05.195-6.061.45-1.997.24-3.963.42-5.96.585-.92.064-1.836.179-2.744.346h-.22a.102.102 0 00-.088 0l-.558.15c-.428.127-.85.278-1.262.45l-.22.09c1.203 3 1.702 5.071 3.082 5.927 1.086.66 2.319.39 4.403.135 2.76-.346 2.862-.96 4.99-1.17 3.288-.316 3.92 1.08 5.871.254 1.718-.705 2.187-2.49 2.628-4.186.279-1.125.954-2.07.851-2.67a17.27 17.27 0 00-2.334-.376l.059.015z" fill="#45A1FF"/><path d="M33.473 43.074c-5.225.405-9.173-3.001-11.272-7.623-.352 0-.72.09-1.072.166a.943.943 0 00-.22 0h-.073l-.573.15c-.428.132-.85.287-1.262.465l-.22.075c2.01 5.101 6.106 8.867 11.625 8.447a10.148 10.148 0 005.753-2.296 10.97 10.97 0 01-2.686.556v.06z" fill="#45A1FF"/><path d="M30.538 42.038c-3.61.075-7.002 2.251-9.511-.675a19.833 19.833 0 01-3.77-7.803 20.082 20.082 0 01-.105-8.702c1.262-6.376 5.71-11.118 10.846-11.523 5.138-.405 10.275 3.601 12.418 9.708a20.027 20.027 0 011.176 8.602 19.936 19.936 0 01-2.57 8.278c-1.88 3.24-1.145 1.98-8.484 2.115zm-2.422-27.502c-4.638.36-8.645 4.71-9.805 10.593-.559 2.69-.525 5.475.1 8.15a18.7 18.7 0 003.511 7.319c2.26 2.61 4.932.615 8.175.375 3.244-.24 6.15 1.306 8.03-1.635a18.92 18.92 0 002.348-7.79 19.002 19.002 0 00-1.13-8.07c-1.997-5.627-6.635-9.273-11.23-8.942z" fill="#212125"/><path d="M30.758 34.311c1.468 0 2.935.075 4.3.195a8.159 8.159 0 00-.513-8.522c-.455-.495-.896-.99-1.747-.645a3.296 3.296 0 01-1.732.3 16.47 16.47 0 00-2.935.18c-1.087.285-2.158.66-3.259.96a7.736 7.736 0 00-.807 4.216 8.029 8.029 0 001.468 3.976 22.075 22.075 0 015.342-.66h-.117z" fill="#45A1FF"/><path d="M29.745 34.341h2.686a3.951 3.951 0 002.11-1.729 4.095 4.095 0 00.52-2.714 4.045 4.045 0 00-1.317-2.415 3.884 3.884 0 00-2.531-.974 3.709 3.709 0 00-2.1.555 3.883 3.883 0 00-1.467 1.605 3.928 3.928 0 00-.44 2.161c.04.777.306 1.523.763 2.146a3.942 3.942 0 001.79 1.365h-.014z" fill="#212125"/><path d="M31.36 32.21c.243-.003.48-.08.68-.22.201-.14.357-.337.448-.568a1.287 1.287 0 00-.276-1.368 1.207 1.207 0 00-1.342-.267 1.239 1.239 0 00-.551.464 1.28 1.28 0 00.16 1.595 1.229 1.229 0 00.88.364zM26.588 34.7a7.584 7.584 0 01-1.921-4.395c.006 1.622.52 3.2 1.466 4.501l.455-.105z" fill="#fff"/><path d="M16.873 30.8c-.176.165 11.992-7.712 24.394-4.711 0-.015-9.878-8.193-24.394 4.711zM18.429 36.607s12.109-6.317 22.545-1.636c0 0-6.59-1.68-22.545 1.636zM38.635 57.665c1.095-.559 1.198-2.617.231-4.596-.967-1.98-2.639-3.13-3.734-2.572-1.095.56-1.198 2.617-.231 4.596.967 1.98 2.638 3.131 3.733 2.572zM50.187 54.653c.946-1.99.82-4.047-.281-4.593-1.101-.547-2.76.623-3.706 2.613-.946 1.99-.82 4.047.281 4.594 1.101.546 2.76-.624 3.706-2.614z" fill="#212125"/></svg>