<svg width="92" height="88" fill="none" xmlns="http://www.w3.org/2000/svg"><path d="M91.8 58.076c0-7.456-3.83-14.952-11.488-20.843L80.044 37a6.487 6.487 0 00-1.11-.705l-.153-.254c.293-1.355.415-2.743.363-4.13a25.1 25.1 0 00-1.13-7.065C76.1 15.647 71.258 10.5 63.772 9.58a12.546 12.546 0 00-6.381.641 12.806 12.806 0 00-5.278 3.723 13.298 13.298 0 00-6.184-.724 13.13 13.13 0 00-6.164.724 12.844 12.844 0 00-5.28-3.718 12.584 12.584 0 00-6.38-.646c-7.504.92-12.271 6.067-14.262 15.265a25.078 25.078 0 00-1.11 7.065c-.071 1.384.032 2.772.306 4.13l-.134.254c-.401.191-.78.428-1.13.705l-.268.234C3.848 43.105-.114 50.62.02 58.076c-.064 1.364.032 2.73.288 4.071.278 1.446.789 2.835 1.512 4.11 0 .215.172.45.287.665 3.35 6.948 8.539 10.177 19.815 12.33a65.038 65.038 0 018.424 1.957c.842.509 1.76 1.155 2.929 1.957a26.395 26.395 0 009.917 4.58c.249 0 .517 0 .785.117.546.074 1.095.12 1.646.137h.632c.55-.017 1.1-.063 1.646-.137l.785-.117a26.206 26.206 0 009.898-4.58c1.187-.822 2.106-1.468 2.93-1.957 2.77-.836 5.59-1.49 8.442-1.957C81.212 77.099 86.4 73.87 89.77 66.922c.095-.215.172-.45.268-.665a14.202 14.202 0 001.531-4.11c.227-1.344.304-2.71.23-4.07zm-4.71 6.615a16.157 16.157 0 01-4.863 5.226 87.181 87.181 0 00-7.007 2.407c-2.278.9-4.27 1.761-6.337 2.76a24.522 24.522 0 00-8.826 3.033 23.92 23.92 0 00-6.662 3.914 13.848 13.848 0 01-4.863 2.212 9.273 9.273 0 01-1.608.293c-.35.02-.702.02-1.053 0-.344.02-.69.02-1.034 0a9.273 9.273 0 01-1.608-.293 14.075 14.075 0 01-4.882-2.212 23.924 23.924 0 00-6.643-3.914 24.523 24.523 0 00-8.826-3.034c-2.067-.998-4.212-1.957-6.337-2.76-2.125-.801-4.652-1.702-7.007-2.406a15.943 15.943 0 01-4.862-5.226 17.388 17.388 0 01-1.436-5.577c0-4.795 2.354-9.453 7.792-15.11 1.09-1.134 1.914-1.956 2.45-2.641a3.607 3.607 0 001.915 1.742 1.64 1.64 0 001.627-.45c.727-.744.613-1.292.115-3.601a33.438 33.438 0 01-.268-12.76V26c1.149-4.297 3.798-8.015 7.447-10.451a6.226 6.226 0 016.547-.235l4.92 7.437c.747 1.781 1.13 2.681 2.202 2.897.276.077.567.077.843 0 .272-.08.517-.236.708-.45.727-.744.69-1.958.345-3.543a25.184 25.184 0 00-.843-3.073 33.818 33.818 0 012.336 3.915c.861 1.683 1.493 2.877 2.91 2.524a1.78 1.78 0 001.016-.727c.243-.36.35-.796.305-1.23a16.547 16.547 0 00-1.915-5.734 9.907 9.907 0 012.087-.528c.718.1 1.424.276 2.106.528a16.626 16.626 0 00-1.914 5.734c-.02.432.101.858.344 1.212.242.354.592.616.996.745 1.416.353 2.048-.841 2.91-2.524a33.907 33.907 0 012.316-3.915 29.223 29.223 0 00-.842 3.073c-.326 1.644-.383 2.799.344 3.542.202.21.452.366.728.45.276.079.567.079.842 0 1.053-.215 1.436-1.115 2.202-2.896l5.093-7.437a6.264 6.264 0 016.566.235c3.649 2.436 6.298 6.154 7.447 10.45v.294c.71 4.228.6 8.557-.325 12.741-.498 2.31-.632 2.857 0 3.601.214.213.477.368.765.45.287.082.59.089.881.02a3.511 3.511 0 001.915-1.742c.593.685 1.378 1.507 2.47 2.642 5.418 5.656 7.849 10.314 7.772 15.109a17.361 17.361 0 01-1.302 5.577zM57.358 13.807a11.487 11.487 0 00-1.628 1.957l-.268-.176-.306-.058a10.715 10.715 0 012.202-1.644v-.079zm-21.06 1.82l-.267.176a11.487 11.487 0 00-1.628-1.957 11.253 11.253 0 012.202 1.644l-.306.137z" fill="#212125"/><path d="M79.296 38.545c-1.09-.822-1.187-.959-1.34-.528v-.177l-.325.51c-.957 1.428-1.455 1.506-1.091.195a19.03 19.03 0 001.014-6.634 22.681 22.681 0 00-1.13-6.968c-1.914-8.259-6.126-12.877-12.788-13.7a11.257 11.257 0 00-6.172.772 11.532 11.532 0 00-4.874 3.945 11.546 11.546 0 00-6.701-1.037 11.64 11.64 0 00-6.624 1.057 11.533 11.533 0 00-4.866-3.94 11.258 11.258 0 00-6.162-.777c-6.662.822-10.931 5.441-12.788 13.7A23.276 23.276 0 0014.3 31.93a19.127 19.127 0 001.034 6.635c.345 1.31-.153 1.233-1.091-.196l-.326-.509-.095.176c-.173-.43-.25-.293-1.34.529C4.995 44.279 1.223 51.618 1.55 58.8c.006 1.038.108 2.074.306 3.092.3 1.394.844 2.72 1.608 3.914 0 .118 0 .255.153.372 3.044 6.458 7.792 9.413 18.57 11.37a67.821 67.821 0 018.77 1.958c.899.548 1.913 1.233 3.177 2.113a24.782 24.782 0 008.73 4.188l.69.157h.114c.348.066.7.112 1.053.137H46.942a9.669 9.669 0 001.053-.137h.172l.69-.157a24.651 24.651 0 008.71-4.188c1.283-.88 2.298-1.565 3.197-2.113a67.82 67.82 0 018.769-1.957c10.759-2.055 15.526-4.971 18.647-11.43 0-.117 0-.254.153-.372a12.31 12.31 0 001.531-3.914c.177-1.007.26-2.03.25-3.053.44-7.163-3.332-14.502-10.818-20.236z" fill="#45A1FF"/><path d="M7.6 57.822h-.306a.863.863 0 01-.249-.196.824.824 0 01-.172-.274 1.02 1.02 0 010-.333 8.286 8.286 0 01.785-3.092 8.377 8.377 0 011.915-2.544 7.336 7.336 0 012.476-1.629 7.208 7.208 0 012.903-.504 5.472 5.472 0 012.21.55 5.585 5.585 0 011.81 1.407.787.787 0 01.192.606.796.796 0 01-.287.568.761.761 0 01-.594.196.751.751 0 01-.555-.294 3.84 3.84 0 00-1.302-1.017 4.103 4.103 0 00-1.589-.431 5.78 5.78 0 00-2.297.372 5.96 5.96 0 00-1.914 1.272 6.146 6.146 0 00-1.513 1.957 6.493 6.493 0 00-.613 2.446.91.91 0 01-.248.587.89.89 0 01-.575.235l-.076.118zM83.203 57.822a.89.89 0 01-.574-.235.91.91 0 01-.249-.587 6.493 6.493 0 00-.613-2.446 6.418 6.418 0 00-1.512-1.957 5.562 5.562 0 00-1.914-1.273 5.63 5.63 0 00-2.279-.371 4.102 4.102 0 00-1.589.43c-.5.24-.945.587-1.302 1.018a.787.787 0 01-.555.293.732.732 0 01-.593-.195.78.78 0 01-.287-.568.875.875 0 01.172-.606 5.926 5.926 0 011.914-1.449 5.511 5.511 0 012.221-.587 7.204 7.204 0 012.946.449c.941.353 1.802.9 2.53 1.606a8.377 8.377 0 011.914 2.544c.459.968.726 2.019.785 3.093.018.11.018.222 0 .332a1.26 1.26 0 01-.153.274 1.362 1.362 0 01-.268.196h-.307l-.287.039z" fill="#212125"/><path d="M44.799 79.937a35.859 35.859 0 01-10.951-1.781 43.87 43.87 0 01-11.238-5.754c-5.245-3.425-8.424-5.48-10.415-9.57-2.795-5.734-2.24-9.335-1.301-12.095.044-.14.108-.271.191-.391a1.13 1.13 0 01.345-.255.79.79 0 01.402-.117c.145-.029.295-.029.44 0 .132.06.255.139.364.235.104.092.19.205.249.333.065.134.104.28.114.43a1.08 1.08 0 010 .43c-.823 2.447-1.206 5.422 1.207 10.412 1.723 3.523 4.537 5.363 9.572 8.69a40.652 40.652 0 0010.663 5.5c9.477 2.915 17.058 2.113 30.058-3.171 7.504-3.053 10.51-6.36 11.238-7.3 4.02-5.128 2.546-11.586 1.914-14.032a1.116 1.116 0 01.134-.822c.15-.253.39-.435.67-.51a1.048 1.048 0 01.82.133 1.08 1.08 0 01.482.69c.613 2.72 2.297 9.961-2.393 15.93-1.053 1.331-4.346 4.795-12.119 7.966-8.309 3.444-14.53 5.049-20.446 5.049z" fill="#212125"/><path fill-rule="evenodd" clip-rule="evenodd" d="M33.81 48.78a4.393 4.393 0 00-2.795 1.507 4.502 4.502 0 00-1.092 3.034c0 1.624.46 2.427.594 1.037.536-5.597 6.854-5.636 9.783 0 .612 1.135.804.959.478-.411a6.99 6.99 0 00-2.598-3.822 6.729 6.729 0 00-4.37-1.306" fill="#212125"/><path d="M30.268 55.239c-.536 0-.536-1.723-.536-1.957a4.66 4.66 0 011.13-3.132 4.525 4.525 0 012.91-1.546 6.899 6.899 0 014.475 1.335 7.165 7.165 0 012.665 3.91c.25 1.018.192 1.272 0 1.33-.191.06-.363 0-.765-.821-1.742-3.308-4.48-4.404-6.433-3.914a3.974 3.974 0 00-2.19 1.418 4.128 4.128 0 00-.873 2.496c0 .41-.096.88-.383.88zm3.56-6.283a4.219 4.219 0 00-2.742 1.423A4.4 4.4 0 0030 53.32a4.413 4.413 0 00.191 1.487c.05-.159.083-.323.096-.49.007-.989.336-1.948.936-2.724a4.338 4.338 0 012.376-1.561 6.584 6.584 0 014.059.96 6.81 6.81 0 012.718 3.228c.096.176.211.352.326.528a4.124 4.124 0 00-.153-.822 6.794 6.794 0 00-2.518-3.714 6.541 6.541 0 00-4.24-1.276l.038.02z" fill="#212125"/><path fill-rule="evenodd" clip-rule="evenodd" d="M34.422 52.107a3.046 3.046 0 00-1.015 1.713 3.094 3.094 0 00.25 1.986c.21.235.268.176.325-.45.115-1.33.479-2.075 1.015-2.075.23 0 .249 0 .21.157-.593 1.35.536 4.443 2.336 6.36l.46.51h-.307a2.905 2.905 0 01-1.819-.9c-.65-.608-.9-.373-.383.351 1.915 2.642 4.442 1.958 4.461-1.174 0-3.718-3.484-7.828-5.533-6.556" fill="#212125"/><path d="M37.926 61.6a3.397 3.397 0 01-1.472-.528 3.487 3.487 0 01-1.093-1.136c-.326-.45-.402-.744-.23-.9.172-.157.46 0 .861.332.443.474 1.03.778 1.666.861l-.249-.293c-1.914-1.958-2.968-5.03-2.412-6.498-.421 0-.747.724-.862 1.957 0 .47 0 .685-.249.744-.248.059-.268-.098-.363-.196a2.339 2.339 0 01-.345-1.8c.04-.417.163-.82.36-1.187.198-.367.466-.689.789-.947a2.07 2.07 0 012.259.098 8.039 8.039 0 012.55 2.847 8.242 8.242 0 01.972 3.73 2.812 2.812 0 01-.31 1.7c-.28.517-.714.93-1.24 1.176-.19.03-.384.03-.575 0l-.057.04zm-2.604-2.31c.065.148.148.286.25.41.841 1.214 1.914 1.782 2.832 1.488.92-.293 1.436-1.252 1.436-2.564a7.963 7.963 0 00-.94-3.558 7.768 7.768 0 00-2.43-2.724 1.887 1.887 0 00-1.914-.117 2.71 2.71 0 00-.7.87 2.765 2.765 0 00-.295 1.087 2 2 0 00.268 1.526 2.978 2.978 0 010-.332c.134-1.43.555-2.231 1.187-2.231.134 0 .268 0 .345.117a.2.2 0 010 .137.158.158 0 010 .137c-.556 1.292.555 4.306 2.297 6.204l.65.724-.593.117a3.056 3.056 0 01-1.914-.939 1.346 1.346 0 00-.421-.352h-.058z" fill="#212125"/><path fill-rule="evenodd" clip-rule="evenodd" d="M41.238 58.938c0 .215 0 .41-.096.626-.268 2.994-1.819 4.697-3.829 4.168-1.034-.293-1.149-.234-.555.235 1.742 1.37 3.829 0 4.633-2.74.249-1.056 0-2.857-.23-2.29" fill="#212125"/><path d="M38.328 64.691a2.701 2.701 0 01-1.608-.587c-.287-.235-.479-.411-.383-.587.096-.176.287-.176 1.091 0 .321.078.656.078.977 0 .33-.06.644-.194.919-.392a5.002 5.002 0 001.213-1.66c.286-.633.44-1.32.452-2.019a2.68 2.68 0 010-.685c.134-.235.287-.215.326-.176.42.157.382 1.82.191 2.564a4.531 4.531 0 01-.849 1.957 4.401 4.401 0 01-1.64 1.33 2.138 2.138 0 01-.785.138l.096.117zm-1.493-.841h.095c.286.247.629.415.996.489.359.088.732.088 1.091 0a4.174 4.174 0 001.51-1.254c.4-.534.67-1.157.788-1.819.11-.647.11-1.31 0-1.957v.392a5.362 5.362 0 01-.489 2.154 5.255 5.255 0 01-1.311 1.76c-.31.22-.663.366-1.034.43a2.455 2.455 0 01-1.13 0l-.516-.195z" fill="#212125"/><path fill-rule="evenodd" clip-rule="evenodd" d="M54.027 48.78a6.71 6.71 0 00-4.362 1.308 6.97 6.97 0 00-2.588 3.82c-.344 1.37-.134 1.546.46.41 2.929-5.596 9.247-5.557 9.783 0 .134 1.39.612.588.593-1.036a4.482 4.482 0 00-1.072-3.034 4.487 4.487 0 00-2.814-1.507" fill="#212125"/><path d="M57.55 55.239c-.269 0-.364-.47-.403-.861a4.108 4.108 0 00-.86-2.495 3.954 3.954 0 00-2.184-1.42 6.246 6.246 0 00-3.86.927 6.46 6.46 0 00-2.572 3.085c-.402.764-.594.881-.766.822-.172-.058-.249-.332 0-1.35a7.166 7.166 0 012.665-3.91 6.898 6.898 0 014.476-1.335 4.545 4.545 0 012.9 1.557 4.739 4.739 0 011.14 3.14c0 .196 0 1.957-.518 1.957l-.019-.117zm-4.308-5.265c.28-.03.562-.03.842 0 .94.238 1.777.788 2.38 1.563.603.775.937 1.733.951 2.723-.02.156-.02.314 0 .47.15-.48.216-.984.192-1.487a4.361 4.361 0 00-1.082-2.94 4.18 4.18 0 00-2.747-1.405 6.55 6.55 0 00-4.168 1.408 6.805 6.805 0 00-2.399 3.759c-.07.263-.12.531-.153.802.124-.166.233-.343.325-.528.5-1.201 1.309-2.24 2.34-3.01a6.972 6.972 0 013.519-1.355z" fill="#212125"/><path fill-rule="evenodd" clip-rule="evenodd" d="M53.586 52.107c-2.067-1.311-5.552 2.838-5.533 6.556 0 3.132 2.585 3.915 4.461 1.175.517-.744.268-.96-.402-.353a2.98 2.98 0 01-1.8.9h-.306l.46-.508c1.8-1.957 2.929-5.03 2.335-6.36 0-.138 0-.157.192-.157.536 0 .919.743 1.033 2.074 0 .626.096.685.326.43.3-.61.387-1.307.247-1.976a3.025 3.025 0 00-1.013-1.703" fill="#212125"/><path d="M50.025 61.6c-.208 0-.414-.034-.612-.098a2.724 2.724 0 01-1.24-1.177 2.812 2.812 0 01-.311-1.7 8.359 8.359 0 011.015-3.696 8.154 8.154 0 012.546-2.821 2.132 2.132 0 012.24-.118c.327.258.599.582.796.953.198.37.318.78.352 1.2a2.24 2.24 0 01-.344 1.78s-.21.255-.364.197c-.153-.06-.21-.255-.249-.724 0-1.214-.421-1.958-.861-1.958.536 1.488-.594 4.521-2.393 6.478l-.268.274a2.717 2.717 0 001.665-.86c.421-.353.709-.47.88-.334.173.137 0 .47-.229.92a3.545 3.545 0 01-1.12 1.154c-.454.292-.969.473-1.503.53zm2.7-9.61c-.403.02-.796.134-1.149.333a7.946 7.946 0 00-2.415 2.743 8.142 8.142 0 00-.955 3.559c0 1.33.498 2.27 1.322 2.544.823.274 1.914-.274 2.833-1.468.094-.136.177-.28.249-.43a1.53 1.53 0 00-.402.293 3.018 3.018 0 01-1.915.94l-.612-.118.67-.724c1.761-1.957 2.871-4.912 2.297-6.204a.38.38 0 010-.137.279.279 0 010-.137c0-.117.23-.117.345-.117.65 0 1.072.782 1.187 2.23v.333a1.983 1.983 0 00.268-1.526 2.9 2.9 0 00-.977-1.957 1.487 1.487 0 00-.765-.196l.019.04z" fill="#212125"/><path fill-rule="evenodd" clip-rule="evenodd" d="M46.598 58.938c-.325-.568-.478 1.232-.21 2.29.708 2.837 2.872 4.11 4.614 2.74.612-.47.478-.53-.556-.236-1.914.529-3.484-1.174-3.828-4.168a3.54 3.54 0 000-.626" fill="#212125"/><path d="M49.508 64.691a2.89 2.89 0 01-.804-.137 4.478 4.478 0 01-1.632-1.337 4.608 4.608 0 01-.856-1.95c-.192-.744-.211-2.427.191-2.584 0 0 .21 0 .326.176.058.225.096.454.114.685.006.702.157 1.395.444 2.033a4.944 4.944 0 001.222 1.666 2.192 2.192 0 001.914.313c.804-.215.996-.234 1.092 0 .095.235-.096.333-.402.587a2.623 2.623 0 01-1.608.548zm-3.024-5.519a5.121 5.121 0 000 1.958c.111.661.378 1.285.779 1.817.4.532.921.956 1.518 1.236.357.098.734.098 1.091 0 .365-.083.705-.25.996-.49l-.498.137a2.735 2.735 0 01-1.13 0 2.573 2.573 0 01-1.033-.45 5.293 5.293 0 01-1.308-1.76 5.402 5.402 0 01-.492-2.154c.115-.04.096-.176.077-.294z" fill="#212125"/><path d="M67.447 1.008c6.7 1.056 12.865 7.828 14.033 17.613 1.704 14.209-4.308 25.442-19.643 21.391-17.057-4.58-18.723-13.465-12.941-26.518C52.878 4.51 60.727-.05 67.446 1.008z" fill="#fff"/><path d="M76.828 23.612a15.048 15.048 0 014.518 2.799c.335-2.598.335-5.23 0-7.828C80.178 8.797 74.014 2.084 67.313.969c-6.7-1.116-14.57 3.503-18.551 12.447a29.818 29.818 0 00-1.264 3.855 29.699 29.699 0 019.209-.548c1.7.198 3.383.525 5.035.979a40.926 40.926 0 017.007 1.957c2.838.982 5.55 2.31 8.079 3.953z" fill="#45A1FF"/><path d="M76.215 23.162c.23.157.498.294.709.47a14.395 14.395 0 014.537 2.799 30.77 30.77 0 000-7.829C80.293 8.817 74.129 2.104 67.409.99a14.727 14.727 0 00-9.707 2.192 12.514 12.514 0 014.27 0c6.7 1.037 12.865 7.828 14.033 17.613.12.784.19 1.575.21 2.368zM46.598 30.208c.651 4.481 1.36 7.358 3.255 8.944 1.34 1.115 3.427 1.154 7.447 1.467 2.146-.002 4.29.155 6.414.47 2.91.646 3.503 1.468 4.977 1.683 2.087.274 5.303-.822 10.013-7.535H78.379a16.496 16.496 0 00-1.8-.822c-.287-.097-.555-.176-.823-.293h-.441a34.875 34.875 0 00-4.02-.822c-2.93-.509-5.743-.979-8.73-1.566a86.28 86.28 0 00-8.921-1.37c-.709 0-1.379-.098-2.087-.137a2.84 2.84 0 00-.575 0h-.88a30.186 30.186 0 00-3.504.274v-.293z" fill="#45A1FF"/><path d="M52.418 42.322a14.973 14.973 0 008.252 4.05c8.098 1.273 14.569-3.816 18.091-11.135l-.325-.157a29.939 29.939 0 00-1.8-.822l-.823-.274a.17.17 0 00-.115 0h-.325l-1.55-.371c-3.638 6.673-9.841 11.175-17.518 9.961a16.722 16.722 0 01-3.83-1.115l-.057-.137z" fill="#45A1FF"/><path d="M48.302 38.212A29.756 29.756 0 0145.43 25.67a29.77 29.77 0 012.682-12.587C52.055 4.296 60.019-1.027 67.56.166c7.544 1.194 13.613 8.71 14.742 18.3.562 4.297.177 8.67-1.124 12.797a29.284 29.284 0 01-6.4 11.059c-4.04 4.031-6.853-.235-12.118-1.077-5.265-.841-11.66 2.055-14.359-3.033zm1.321-24.405a28.07 28.07 0 00-2.53 11.817 28.064 28.064 0 002.664 11.786c2.432 4.56 8.003 1.957 12.77 2.642 4.767.685 7.409 4.677 11.046 1.096A27.535 27.535 0 0079.59 30.74a27.98 27.98 0 001.049-12.04C79.565 9.854 74.109 3.043 67.236 1.889 60.363.734 53.203 5.803 49.546 13.807h.077z" fill="#212125"/><path d="M69.036 32.4a11.868 11.868 0 002.508-5.735c.332-2.139.067-4.33-.766-6.321-1.59-.568-3.12-1.253-4.71-1.781a23.478 23.478 0 00-4.365-.626 5.023 5.023 0 01-2.527-.646c-1.206-.607-1.914 0-2.642.744a11.863 11.863 0 00-2.623 5.87 11.718 11.718 0 00.92 6.674c2.124 0 4.25 0 6.355.196 2.667.215 5.3.74 7.85 1.566v.059z" fill="#45A1FF"/><path d="M66.873 26.078a5.99 5.99 0 00-.422-3.327 5.848 5.848 0 00-2.014-2.552 5.661 5.661 0 00-3.04-1.049 5.453 5.453 0 00-3.12.724 5.808 5.808 0 00-2.279 2.31 6.096 6.096 0 00-.746 3.17 5.96 5.96 0 001.015 3.268 5.859 5.859 0 002.45 1.958c.842 0 1.666 0 2.489.137.498 0 1.015 0 1.493.156a5.728 5.728 0 002.804-1.795A5.932 5.932 0 0066.873 26v.078z" fill="#212125"/><path d="M60.689 27.624c.379 0 .749-.114 1.063-.33.315-.215.56-.52.706-.878.145-.358.182-.751.109-1.13a1.971 1.971 0 00-.524-1.003 1.901 1.901 0 00-.98-.535 1.876 1.876 0 00-1.107.111c-.35.148-.649.4-.859.72a1.988 1.988 0 00.238 2.472c.36.367.846.573 1.354.573zM68.079 32.087a11.286 11.286 0 002.642-6.478 10.968 10.968 0 01-3.389 6.262l.747.216z" fill="#fff"/><path d="M46.598 17.33c19.375-1.78 35.82 9.786 35.571 9.531-18.455-17.28-35.57-9.53-35.57-9.53zM45.89 30.58c14.799-4.854 32.814 4.638 32.814 4.638-24.524-6.38-32.814-4.639-32.814-4.639z" fill="#212125"/><path d="M40.568 16.978c4.212 11.84-.727 22.135-12.789 23.074-12.06.94-18.57-8.474-16.12-20.823 1.666-8.474 7.524-13.974 13.402-14.443 5.877-.47 12.616 4.09 15.507 12.192z" fill="#fff"/><path d="M22.744 21.068a34.618 34.618 0 016.28-1.233 28.811 28.811 0 014.498-.529c2.714-.04 5.418.336 8.022 1.116a26.894 26.894 0 00-.938-3.445c-2.91-8.082-9.572-12.623-15.45-12.153-5.877.47-11.793 5.97-13.401 14.404a26.717 26.717 0 00-.421 6.87 12.95 12.95 0 014.154-2.134 31.774 31.774 0 017.256-2.896z" fill="#45A1FF"/><path d="M16.33 21.42c1.666-8.454 7.525-13.953 13.402-14.423a11.414 11.414 0 013.733.333 13.024 13.024 0 00-8.385-2.525c-5.954.47-11.793 5.969-13.401 14.443a26.619 26.619 0 00-.44 6.87 12.803 12.803 0 014.154-2.153l.65-.333c.057-.742.153-1.48.288-2.212zM38.424 31.343h-3.178a76.361 76.361 0 00-7.907.587c-2.604.313-5.17.548-7.773.764-1.2.082-2.396.232-3.58.45h-.287a.131.131 0 00-.115 0l-.727.195c-.559.167-1.108.363-1.647.587l-.287.118c1.57 3.914 2.22 6.615 4.02 7.73 1.417.861 3.025.51 5.744.176 3.599-.45 3.733-1.252 6.509-1.526 4.288-.411 5.111 1.409 7.658.333 2.24-.92 2.852-3.25 3.427-5.46.363-1.468 1.244-2.701 1.11-3.484a22.509 22.509 0 00-3.044-.49l.077.02z" fill="#45A1FF"/><path d="M32.182 42.792c-6.815.528-11.965-3.915-14.703-9.942-.46 0-.938.117-1.397.215a1.243 1.243 0 00-.288 0H15.7l-.747.196c-.559.173-1.108.375-1.646.606l-.287.098c2.622 6.654 7.964 11.567 15.162 11.019a13.237 13.237 0 007.505-2.995c-1.135.388-2.311.63-3.504.724v.079z" fill="#45A1FF"/><path d="M28.354 41.442c-4.71.097-9.132 2.935-12.406-.881a25.87 25.87 0 01-4.918-10.178 26.195 26.195 0 01-.136-11.35c1.646-8.318 7.447-14.502 14.148-15.03 6.7-.529 13.401 4.697 16.196 12.662a26.123 26.123 0 011.534 11.22c-.315 3.81-1.46 7.5-3.353 10.797-2.45 4.227-1.493 2.584-11.065 2.76zm-3.16-35.874c-6.049.47-11.275 6.146-12.788 13.817-.73 3.51-.685 7.142.13 10.632a24.39 24.39 0 004.58 9.546c2.948 3.405 6.432.802 10.663.49 4.231-.314 8.022 1.702 10.473-2.134a24.679 24.679 0 003.064-10.161 24.783 24.783 0 00-1.476-10.525c-2.603-7.34-8.653-12.095-14.645-11.665z" fill="#212125"/><path d="M28.64 31.363c1.915 0 3.83.097 5.61.254a10.643 10.643 0 001.234-5.657 10.599 10.599 0 00-1.904-5.46c-.593-.645-1.168-1.29-2.278-.84a4.3 4.3 0 01-2.26.39 21.491 21.491 0 00-3.828.235c-1.417.372-2.814.862-4.25 1.253a10.09 10.09 0 00-1.053 5.5 10.472 10.472 0 001.914 5.186 28.8 28.8 0 016.969-.861h-.153z" fill="#45A1FF"/><path d="M27.32 31.401h3.503a5.154 5.154 0 002.754-2.255 5.343 5.343 0 00.677-3.54 5.275 5.275 0 00-1.718-3.15 5.067 5.067 0 00-3.302-1.27 4.838 4.838 0 00-2.738.724 5.065 5.065 0 00-1.914 2.094 5.124 5.124 0 00-.574 2.818c.053 1.013.4 1.987.995 2.799a5.142 5.142 0 002.336 1.78h-.02z" fill="#212125"/><path d="M29.426 28.622c.317-.004.626-.103.888-.286s.465-.441.584-.742a1.678 1.678 0 00-.361-1.785 1.576 1.576 0 00-1.75-.348 1.617 1.617 0 00-.719.606 1.67 1.67 0 00.208 2.08 1.605 1.605 0 001.15.475zM23.202 31.87a9.892 9.892 0 01-2.506-5.733 10.055 10.055 0 001.913 5.87l.593-.136z" fill="#fff"/><path d="M10.53 26.783c-.23.215 15.641-10.06 31.819-6.145 0-.02-12.885-10.686-31.819 6.145zM12.56 34.357s15.794-8.24 29.406-2.133c0 0-8.596-2.192-29.407 2.133zM38.915 61.824c1.428-.729 1.563-3.413.302-5.995-1.261-2.582-3.442-4.084-4.87-3.354-1.429.729-1.564 3.413-.303 5.995 1.262 2.582 3.442 4.084 4.87 3.354zM53.983 57.895c1.234-2.595 1.07-5.278-.366-5.991-1.437-.713-3.6.813-4.834 3.409-1.234 2.596-1.07 5.278.366 5.991 1.436.713 3.6-.813 4.834-3.409z" fill="#212125"/></svg>