<svg width="147" height="132" fill="none" xmlns="http://www.w3.org/2000/svg"><path d="M25.043 123.511c-1.022.495-2.357.742-4.004.742-2.148 0-3.838-.632-5.068-1.895-1.23-1.263-1.846-2.946-1.846-5.048 0-2.24.69-4.056 2.07-5.45 1.387-1.393 3.184-2.089 5.39-2.089 1.368 0 2.52.172 3.458.517v3.037c-.938-.56-2.005-.84-3.203-.84-1.315 0-2.377.414-3.184 1.241-.807.826-1.21 1.946-1.21 3.359 0 1.354.38 2.435 1.142 3.242.762.801 1.787 1.201 3.076 1.201 1.23 0 2.357-.299 3.379-.898v2.881zm11.738.498h-3.076v-5.684c0-1.465-.534-2.197-1.602-2.197-.546 0-.99.205-1.328.615-.338.41-.507.931-.507 1.563v5.703h-3.086v-14.805h3.086v6.289h.039c.755-1.152 1.78-1.728 3.076-1.728 2.265 0 3.398 1.367 3.398 4.101v6.143zm10.772 0h-2.92v-1.436h-.04c-.67 1.12-1.663 1.68-2.978 1.68-.97 0-1.735-.274-2.295-.82-.553-.554-.83-1.289-.83-2.207 0-1.941 1.15-3.06 3.447-3.36l2.715-.361c0-1.094-.592-1.641-1.777-1.641-1.191 0-2.324.355-3.398 1.065v-2.325c.43-.221 1.015-.416 1.757-.585a9.286 9.286 0 012.041-.254c2.852 0 4.278 1.422 4.278 4.267v5.977zm-2.9-4.063v-.674l-1.817.235c-1.003.13-1.504.583-1.504 1.357 0 .352.12.642.361.869.248.222.58.332.997.332.579 0 1.05-.198 1.416-.595.364-.404.546-.912.546-1.524zm21.22 4.063h-3.076v-5.703c0-1.452-.534-2.178-1.602-2.178-.508 0-.92.218-1.24.654-.319.436-.478.98-.478 1.631v5.596H56.39v-5.762c0-1.413-.524-2.119-1.573-2.119-.527 0-.95.208-1.27.625-.312.417-.468.983-.468 1.699v5.557h-3.086v-10h3.086v1.562h.04c.318-.534.764-.967 1.337-1.299a3.694 3.694 0 011.895-.507c1.412 0 2.38.621 2.9 1.865.762-1.244 1.881-1.865 3.36-1.865 2.174 0 3.261 1.341 3.261 4.023v6.221zm11.426-4.121h-6.524c.105 1.452 1.02 2.177 2.744 2.177 1.1 0 2.068-.26 2.9-.781v2.227c-.924.495-2.125.742-3.603.742-1.614 0-2.867-.446-3.76-1.338-.891-.898-1.337-2.148-1.337-3.75 0-1.66.482-2.975 1.445-3.945.964-.97 2.148-1.455 3.555-1.455 1.458 0 2.584.433 3.379 1.298.8.866 1.2 2.041 1.2 3.526v1.299zm-2.862-1.895c0-1.432-.579-2.148-1.738-2.148-.495 0-.924.205-1.289.615-.358.41-.576.921-.654 1.533h3.681zm7.784 6.016h-3.086v-14.805h3.086v14.805z" fill="#45A1FF"/><path d="M94.955 112.573h-3.994v11.436h-3.164v-11.436h-3.975v-2.568h11.133v2.568zm4.55 11.68c-1.666 0-2.978-.466-3.935-1.397-.95-.937-1.425-2.207-1.425-3.808 0-1.654.494-2.946 1.484-3.877.99-.938 2.327-1.406 4.014-1.406 1.66 0 2.962.468 3.906 1.406.944.931 1.416 2.165 1.416 3.701 0 1.66-.488 2.972-1.465 3.936-.97.963-2.301 1.445-3.994 1.445zm.079-8.125c-.73 0-1.296.251-1.7.752-.403.501-.605 1.211-.605 2.129 0 1.92.775 2.881 2.325 2.881 1.477 0 2.216-.987 2.216-2.959 0-1.869-.745-2.803-2.236-2.803zm17.041 7.881h-3.076v-5.557c0-1.549-.554-2.324-1.66-2.324-.534 0-.974.205-1.319.615-.345.41-.517.931-.517 1.563v5.703h-3.086v-10h3.086v1.582h.039c.735-1.218 1.806-1.826 3.213-1.826 2.213 0 3.32 1.373 3.32 4.121v6.123zm11.436-4.121h-6.524c.104 1.452 1.019 2.177 2.744 2.177 1.101 0 2.067-.26 2.901-.781v2.227c-.925.495-2.126.742-3.604.742-1.614 0-2.868-.446-3.76-1.338-.892-.898-1.338-2.148-1.338-3.75 0-1.66.482-2.975 1.446-3.945.963-.97 2.148-1.455 3.554-1.455 1.459 0 2.585.433 3.379 1.298.801.866 1.202 2.041 1.202 3.526v1.299zm-2.862-1.895c0-1.432-.579-2.148-1.738-2.148-.495 0-.925.205-1.289.615-.358.41-.576.921-.654 1.533h3.681zM117.453 0c16.115.08 29.159 13.123 29.238 29.238C146.691 58.763 92.945 88 92.945 88S39.2 58.333 39.2 29.239C39.2 13.09 52.29 0 68.438 0a28.95 28.95 0 0124.507 13.185A29.237 29.237 0 01117.453.001z" fill="#D7443E"/><path d="M91.8 58.076c0-7.456-3.83-14.952-11.488-20.843L80.044 37a6.487 6.487 0 00-1.11-.705l-.153-.254c.293-1.355.415-2.743.364-4.13a25.1 25.1 0 00-1.13-7.065C76.101 15.647 71.257 10.5 63.771 9.58a12.546 12.546 0 00-6.381.641 12.806 12.806 0 00-5.278 3.723 13.297 13.297 0 00-6.184-.724 13.13 13.13 0 00-6.164.724 12.844 12.844 0 00-5.28-3.718 12.584 12.584 0 00-6.38-.646c-7.504.92-12.271 6.067-14.262 15.265a25.079 25.079 0 00-1.11 7.065c-.071 1.384.032 2.772.306 4.13l-.134.254a5.93 5.93 0 00-1.13.705l-.268.234C3.848 43.105-.114 50.62.02 58.076c-.064 1.364.032 2.73.288 4.071.278 1.446.789 2.835 1.512 4.11 0 .215.172.45.287.665 3.35 6.948 8.539 10.177 19.815 12.33a65.053 65.053 0 018.424 1.957c.842.509 1.761 1.155 2.929 1.957a26.395 26.395 0 009.917 4.58c.249 0 .517 0 .785.117.546.074 1.095.12 1.646.137h.632c.55-.017 1.1-.063 1.646-.137l.785-.117a26.206 26.206 0 009.898-4.58c1.187-.822 2.106-1.468 2.93-1.957 2.77-.836 5.59-1.49 8.442-1.957C81.212 77.099 86.4 73.87 89.77 66.922c.096-.215.172-.45.268-.665a14.202 14.202 0 001.532-4.11c.226-1.344.303-2.71.23-4.07zm-4.71 6.615a16.157 16.157 0 01-4.863 5.226 87.144 87.144 0 00-7.007 2.407c-2.278.9-4.27 1.761-6.337 2.76a24.52 24.52 0 00-8.826 3.033 23.92 23.92 0 00-6.662 3.914 13.846 13.846 0 01-4.863 2.212 9.273 9.273 0 01-1.608.293c-.35.02-.702.02-1.053 0-.344.02-.69.02-1.034 0a9.273 9.273 0 01-1.608-.293 14.073 14.073 0 01-4.882-2.212 23.921 23.921 0 00-6.643-3.914 24.52 24.52 0 00-8.826-3.034c-2.067-.998-4.212-1.957-6.337-2.76-2.125-.801-4.652-1.702-7.007-2.406a15.944 15.944 0 01-4.862-5.226 17.388 17.388 0 01-1.436-5.577c0-4.795 2.355-9.453 7.792-15.11 1.09-1.134 1.914-1.956 2.45-2.641a3.608 3.608 0 001.915 1.742 1.64 1.64 0 001.627-.45c.727-.744.613-1.292.115-3.601a33.434 33.434 0 01-.268-12.76V26c1.149-4.297 3.798-8.015 7.447-10.451a6.227 6.227 0 016.547-.235l4.92 7.437c.747 1.781 1.13 2.681 2.202 2.896.276.078.567.078.843 0 .272-.08.517-.235.708-.45.728-.743.69-1.957.345-3.542a25.186 25.186 0 00-.843-3.073 33.84 33.84 0 012.336 3.915c.861 1.683 1.493 2.877 2.91 2.524.413-.11.774-.368 1.016-.727.243-.36.35-.796.305-1.23a16.546 16.546 0 00-1.915-5.734 9.913 9.913 0 012.087-.528c.719.1 1.425.276 2.106.528a16.629 16.629 0 00-1.914 5.734c-.02.432.101.858.344 1.212.242.354.593.616.996.745 1.417.352 2.048-.841 2.91-2.524a33.907 33.907 0 012.316-3.915 29.224 29.224 0 00-.842 3.073c-.325 1.644-.383 2.799.345 3.542.201.21.451.366.727.45.276.079.567.079.843 0 1.052-.215 1.435-1.115 2.201-2.896l5.093-7.437a6.264 6.264 0 016.566.235c3.649 2.436 6.298 6.154 7.448 10.45v.294c.71 4.228.599 8.557-.326 12.74-.498 2.31-.632 2.858 0 3.602.214.213.477.368.765.45.287.082.59.089.882.02a3.511 3.511 0 001.914-1.742c.594.685 1.379 1.507 2.47 2.642 5.418 5.656 7.85 10.314 7.772 15.109a17.361 17.361 0 01-1.301 5.577zM57.358 13.807a11.477 11.477 0 00-1.627 1.957l-.269-.176-.306-.059a10.715 10.715 0 012.202-1.644v-.078zm-21.06 1.82l-.267.176a11.482 11.482 0 00-1.628-1.957 11.251 11.251 0 012.202 1.644l-.306.137z" fill="#212125"/><path d="M79.297 38.545c-1.092-.822-1.187-.959-1.34-.528v-.176l-.326.508c-.957 1.43-1.455 1.507-1.091.196a19.03 19.03 0 001.014-6.634 22.681 22.681 0 00-1.13-6.968c-1.914-8.258-6.125-12.877-12.788-13.7a11.257 11.257 0 00-6.172.772 11.533 11.533 0 00-4.874 3.945 11.546 11.546 0 00-6.7-1.037 11.64 11.64 0 00-6.625 1.057 11.533 11.533 0 00-4.866-3.94 11.257 11.257 0 00-6.161-.776c-6.663.822-10.932 5.44-12.79 13.699A23.28 23.28 0 0014.3 31.93a19.127 19.127 0 001.034 6.635c.345 1.311-.153 1.233-1.091-.196l-.326-.509-.095.176c-.173-.43-.25-.293-1.34.529C4.996 44.279 1.224 51.618 1.55 58.8c.006 1.038.108 2.074.306 3.092.3 1.394.844 2.72 1.608 3.914 0 .118 0 .255.154.372 3.044 6.459 7.791 9.414 18.57 11.37a67.818 67.818 0 018.768 1.958c.9.548 1.915 1.233 3.178 2.114a24.783 24.783 0 008.73 4.188l.69.156h.114c.348.066.7.112 1.053.137h2.221a9.692 9.692 0 001.053-.137h.172l.69-.156a24.652 24.652 0 008.71-4.188c1.283-.881 2.298-1.566 3.197-2.114a67.821 67.821 0 018.769-1.957c10.76-2.055 15.526-4.971 18.647-11.43 0-.117 0-.254.153-.371a12.31 12.31 0 001.532-3.915c.176-1.007.26-2.03.248-3.053.44-7.163-3.33-14.502-10.816-20.236z" fill="#45A1FF"/><path d="M7.6 57.822h-.306a.865.865 0 01-.248-.196.825.825 0 01-.173-.274 1.02 1.02 0 010-.333 8.286 8.286 0 01.785-3.092 8.376 8.376 0 011.915-2.544 7.335 7.335 0 012.476-1.629 7.209 7.209 0 012.903-.504 5.472 5.472 0 012.21.55 5.587 5.587 0 011.81 1.407.787.787 0 01.192.606.795.795 0 01-.287.568.762.762 0 01-.593.196.755.755 0 01-.556-.294 3.84 3.84 0 00-1.302-1.017 4.102 4.102 0 00-1.588-.431 5.781 5.781 0 00-2.298.372 5.964 5.964 0 00-1.914 1.272 6.146 6.146 0 00-1.513 1.957 6.494 6.494 0 00-.612 2.446.91.91 0 01-.25.587.89.89 0 01-.574.235l-.076.118zM83.203 57.822a.89.89 0 01-.574-.235.91.91 0 01-.249-.587 6.494 6.494 0 00-.612-2.446 6.417 6.417 0 00-1.513-1.957 5.56 5.56 0 00-1.914-1.272 5.631 5.631 0 00-2.279-.372 4.102 4.102 0 00-1.589.43c-.5.24-.944.587-1.301 1.018a.79.79 0 01-.556.294.731.731 0 01-.593-.196.778.778 0 01-.287-.568.875.875 0 01.172-.606 5.926 5.926 0 011.915-1.449 5.512 5.512 0 012.22-.587 7.205 7.205 0 012.946.449 7.33 7.33 0 012.53 1.606 8.377 8.377 0 011.914 2.544c.459.968.726 2.02.785 3.093.018.11.018.222 0 .332a1.26 1.26 0 01-.153.274 1.358 1.358 0 01-.268.196h-.306l-.288.04z" fill="#212125"/><path d="M44.799 79.937a35.858 35.858 0 01-10.95-1.78 43.87 43.87 0 01-11.239-5.755c-5.245-3.425-8.423-5.48-10.415-9.57-2.795-5.734-2.24-9.335-1.301-12.095a1.48 1.48 0 01.191-.391 1.13 1.13 0 01.345-.254.791.791 0 01.402-.118c.145-.029.295-.029.44 0 .132.06.255.139.364.235.104.092.19.205.249.333.065.134.104.28.114.43a1.08 1.08 0 010 .43c-.823 2.447-1.206 5.422 1.207 10.413 1.723 3.522 4.537 5.362 9.572 8.689a40.648 40.648 0 0010.664 5.5c9.476 2.915 17.057 2.113 30.057-3.171 7.505-3.053 10.51-6.36 11.238-7.3 4.02-5.128 2.546-11.586 1.914-14.032a1.117 1.117 0 01.134-.822c.15-.253.39-.435.67-.51a1.05 1.05 0 01.82.133 1.082 1.082 0 01.482.69c.613 2.72 2.297 9.961-2.393 15.93-1.053 1.331-4.346 4.795-12.119 7.966-8.308 3.444-14.53 5.05-20.446 5.05z" fill="#212125"/><path fill-rule="evenodd" clip-rule="evenodd" d="M33.81 48.78a4.394 4.394 0 00-2.796 1.508 4.501 4.501 0 00-1.09 3.033c0 1.624.459 2.427.593 1.037.536-5.597 6.854-5.636 9.783 0 .612 1.135.804.96.478-.41a6.99 6.99 0 00-2.598-3.823 6.728 6.728 0 00-4.37-1.305" fill="#212125"/><path d="M30.268 55.239c-.536 0-.536-1.722-.536-1.957a4.66 4.66 0 011.13-3.132 4.525 4.525 0 012.91-1.546 6.898 6.898 0 014.475 1.335 7.164 7.164 0 012.666 3.91c.248 1.018.191 1.272 0 1.331-.192.059-.364 0-.766-.822-1.742-3.307-4.48-4.403-6.433-3.914a3.972 3.972 0 00-2.19 1.418 4.127 4.127 0 00-.873 2.496c0 .411-.096.88-.383.88zm3.561-6.282a4.218 4.218 0 00-2.743 1.422A4.4 4.4 0 0030 53.321a4.415 4.415 0 00.192 1.487c.05-.159.082-.323.095-.49.007-.988.336-1.947.936-2.724a4.337 4.337 0 012.376-1.561 6.584 6.584 0 014.059.96 6.81 6.81 0 012.719 3.228c.095.176.21.352.325.528a4.132 4.132 0 00-.153-.822 6.794 6.794 0 00-2.518-3.713 6.54 6.54 0 00-4.24-1.277l.038.02z" fill="#212125"/><path fill-rule="evenodd" clip-rule="evenodd" d="M34.422 52.107a3.046 3.046 0 00-1.015 1.713 3.094 3.094 0 00.25 1.986c.21.235.268.176.325-.45.115-1.33.479-2.074 1.015-2.074.23 0 .249 0 .21.156-.593 1.35.536 4.443 2.336 6.36l.46.51h-.307a2.904 2.904 0 01-1.819-.9c-.65-.608-.9-.373-.382.352 1.914 2.642 4.441 1.957 4.46-1.175 0-3.718-3.484-7.828-5.532-6.556" fill="#212125"/><path d="M37.926 61.6a3.397 3.397 0 01-1.472-.528 3.486 3.486 0 01-1.093-1.136c-.326-.45-.402-.744-.23-.9.172-.157.46 0 .861.332.443.474 1.03.778 1.666.861l-.249-.293c-1.914-1.958-2.967-5.03-2.412-6.498-.421 0-.747.724-.862 1.957 0 .47 0 .685-.249.744-.248.059-.268-.098-.363-.196a2.358 2.358 0 01-.345-1.8c.04-.417.163-.82.36-1.187.198-.367.466-.689.789-.947a2.07 2.07 0 012.259.098 8.039 8.039 0 012.55 2.847 8.244 8.244 0 01.972 3.73 2.812 2.812 0 01-.31 1.7c-.28.517-.714.93-1.24 1.176-.19.03-.384.03-.575 0l-.057.04zm-2.604-2.31c.065.148.148.286.25.41.841 1.214 1.914 1.782 2.833 1.488.919-.293 1.435-1.252 1.435-2.564a7.963 7.963 0 00-.94-3.558 7.769 7.769 0 00-2.429-2.724 1.887 1.887 0 00-1.914-.117c-.29.237-.53.533-.701.87a2.765 2.765 0 00-.295 1.087 1.998 1.998 0 00.268 1.526 2.978 2.978 0 010-.332c.134-1.43.555-2.231 1.187-2.231.134 0 .268 0 .345.117a.2.2 0 010 .137.16.16 0 010 .137c-.556 1.292.555 4.306 2.297 6.204l.65.724-.593.117a3.056 3.056 0 01-1.914-.939 1.346 1.346 0 00-.421-.352h-.058z" fill="#212125"/><path fill-rule="evenodd" clip-rule="evenodd" d="M41.238 58.938c0 .215 0 .41-.096.626-.268 2.994-1.819 4.697-3.829 4.169-1.034-.294-1.149-.235-.555.234 1.742 1.37 3.829 0 4.633-2.74.249-1.056 0-2.857-.23-2.29" fill="#212125"/><path d="M38.328 64.691a2.701 2.701 0 01-1.608-.587c-.287-.235-.479-.41-.383-.587.096-.176.287-.176 1.091 0 .321.078.656.078.977 0 .33-.06.644-.194.919-.391a5.002 5.002 0 001.213-1.66 5.101 5.101 0 00.452-2.02 2.68 2.68 0 010-.685c.134-.235.287-.215.326-.176.42.157.383 1.82.191 2.564a4.531 4.531 0 01-.849 1.957 4.402 4.402 0 01-1.64 1.33 2.14 2.14 0 01-.785.138l.096.117zm-1.493-.841h.096c.285.247.628.415.995.489.359.088.733.088 1.091 0a4.174 4.174 0 001.511-1.253c.4-.535.669-1.158.787-1.82.11-.647.11-1.31 0-1.957v.392a5.363 5.363 0 01-.489 2.154 5.254 5.254 0 01-1.31 1.76c-.31.22-.663.366-1.035.43a2.452 2.452 0 01-1.13 0l-.516-.195z" fill="#212125"/><path fill-rule="evenodd" clip-rule="evenodd" d="M54.027 48.78a6.71 6.71 0 00-4.362 1.308 6.97 6.97 0 00-2.588 3.82c-.344 1.37-.134 1.546.46.41 2.929-5.596 9.247-5.557 9.783 0 .134 1.39.612.588.593-1.036a4.483 4.483 0 00-1.072-3.034 4.488 4.488 0 00-2.814-1.507" fill="#212125"/><path d="M57.55 55.239c-.269 0-.364-.47-.403-.861a4.108 4.108 0 00-.86-2.495 3.954 3.954 0 00-2.184-1.42 6.245 6.245 0 00-3.86.927 6.461 6.461 0 00-2.572 3.085c-.402.764-.594.881-.766.822-.172-.058-.249-.332 0-1.35a7.165 7.165 0 012.665-3.91 6.898 6.898 0 014.476-1.335 4.545 4.545 0 012.9 1.557 4.74 4.74 0 011.14 3.14c0 .196 0 1.957-.517 1.957l-.02-.117zm-4.308-5.265c.28-.03.562-.03.842 0 .94.238 1.778.788 2.38 1.563.603.775.937 1.733.951 2.723-.02.156-.02.314 0 .47.15-.48.216-.984.192-1.487a4.362 4.362 0 00-1.082-2.94 4.18 4.18 0 00-2.747-1.405 6.549 6.549 0 00-4.168 1.408 6.806 6.806 0 00-2.399 3.759c-.069.263-.12.531-.153.802a3.5 3.5 0 00.325-.528c.5-1.201 1.309-2.24 2.34-3.01a6.972 6.972 0 013.519-1.355z" fill="#212125"/><path fill-rule="evenodd" clip-rule="evenodd" d="M53.586 52.107c-2.067-1.311-5.552 2.838-5.532 6.556 0 3.132 2.584 3.915 4.46 1.175.517-.744.268-.96-.402-.353a2.981 2.981 0 01-1.8.9h-.306l.46-.508c1.8-1.957 2.929-5.03 2.335-6.36 0-.138 0-.157.192-.157.536 0 .919.743 1.034 2.074 0 .626.095.685.325.43.3-.61.387-1.307.248-1.976a3.025 3.025 0 00-1.014-1.703" fill="#212125"/><path d="M50.025 61.6c-.207 0-.414-.034-.612-.098a2.723 2.723 0 01-1.24-1.177 2.812 2.812 0 01-.311-1.7 8.358 8.358 0 011.015-3.696 8.153 8.153 0 012.546-2.821 2.132 2.132 0 012.24-.118c.327.258.599.582.797.953.197.37.317.78.352 1.2a2.24 2.24 0 01-.345 1.78s-.21.255-.364.197c-.153-.06-.21-.255-.249-.724 0-1.214-.42-1.958-.861-1.958.536 1.488-.594 4.521-2.393 6.478l-.268.274a2.717 2.717 0 001.665-.86c.422-.353.709-.47.881-.334.172.137 0 .47-.23.92a3.544 3.544 0 01-1.12 1.154c-.454.292-.968.473-1.503.53zm2.7-9.61c-.403.02-.796.134-1.149.333a7.947 7.947 0 00-2.415 2.743 8.142 8.142 0 00-.954 3.559c0 1.33.497 2.27 1.32 2.544.824.274 1.915-.274 2.834-1.468a3.13 3.13 0 00.249-.43 1.534 1.534 0 00-.402.293 3.018 3.018 0 01-1.915.94l-.612-.118.67-.724c1.761-1.957 2.872-4.912 2.297-6.204a.38.38 0 010-.137.281.281 0 010-.137c0-.117.23-.117.345-.117.65 0 1.072.782 1.187 2.23v.333a1.982 1.982 0 00.268-1.526 2.9 2.9 0 00-.977-1.957 1.487 1.487 0 00-.765-.196l.019.04z" fill="#212125"/><path fill-rule="evenodd" clip-rule="evenodd" d="M46.599 58.938c-.326-.568-.48 1.233-.211 2.29.708 2.837 2.872 4.11 4.614 2.74.612-.47.478-.529-.555-.235-1.915.528-3.485-1.175-3.83-4.169a3.54 3.54 0 000-.626" fill="#212125"/><path d="M49.509 64.692a2.892 2.892 0 01-.804-.137 4.48 4.48 0 01-1.633-1.338 4.61 4.61 0 01-.856-1.95c-.192-.744-.21-2.427.191-2.584 0 0 .21 0 .326.176.058.225.096.454.114.685.006.703.157 1.395.444 2.033a4.944 4.944 0 001.222 1.666 2.194 2.194 0 001.914.313c.805-.215.996-.234 1.092 0 .096.235-.096.333-.402.588a2.623 2.623 0 01-1.608.548zm-3.025-5.52a5.118 5.118 0 000 1.958c.111.661.379 1.285.779 1.817s.921.956 1.518 1.236a2.06 2.06 0 001.091 0 2.39 2.39 0 00.996-.49l-.498.138a2.735 2.735 0 01-1.13 0 2.574 2.574 0 01-1.033-.45 5.292 5.292 0 01-1.308-1.762 5.4 5.4 0 01-.492-2.153c.115-.039.096-.176.077-.293z" fill="#212125"/><path d="M67.447 1.008c6.7 1.056 12.865 7.828 14.033 17.613 1.704 14.209-4.307 25.442-19.642 21.391-17.058-4.58-18.724-13.465-12.942-26.518C52.878 4.51 60.727-.05 67.447 1.008z" fill="#fff"/><path d="M76.828 23.612a15.048 15.048 0 014.518 2.799c.335-2.598.335-5.23 0-7.829C80.178 8.797 74.014 2.084 67.313.97c-6.7-1.116-14.57 3.503-18.551 12.447a29.82 29.82 0 00-1.264 3.855 29.696 29.696 0 019.209-.548c1.7.198 3.383.525 5.035.979a40.928 40.928 0 017.007 1.957c2.838.982 5.55 2.31 8.079 3.953z" fill="#45A1FF"/><path d="M76.216 23.162c.23.157.497.294.708.47a14.4 14.4 0 014.537 2.799 30.76 30.76 0 000-7.829C80.293 8.817 74.13 2.104 67.41.99a14.727 14.727 0 00-9.707 2.192 12.514 12.514 0 014.27 0c6.7 1.037 12.865 7.828 14.033 17.613.12.784.19 1.575.21 2.368zM46.598 30.208c.651 4.482 1.36 7.358 3.255 8.944 1.34 1.115 3.427 1.154 7.447 1.467 2.146-.002 4.29.155 6.414.47 2.91.646 3.503 1.468 4.977 1.683 2.087.274 5.303-.822 10.013-7.535H78.379a16.487 16.487 0 00-1.8-.822c-.287-.097-.555-.176-.823-.293h-.441a34.871 34.871 0 00-4.02-.822c-2.93-.509-5.743-.979-8.73-1.566a86.285 86.285 0 00-8.921-1.37c-.709 0-1.379-.098-2.087-.137a2.826 2.826 0 00-.575 0h-.88a30.188 30.188 0 00-3.504.274v-.293z" fill="#45A1FF"/><path d="M52.419 42.322a14.974 14.974 0 008.25 4.051c8.1 1.272 14.57-3.816 18.093-11.136l-.326-.156a29.944 29.944 0 00-1.8-.822l-.823-.274a.17.17 0 00-.115 0h-.325l-1.55-.372c-3.638 6.673-9.841 11.175-17.518 9.961a16.713 16.713 0 01-3.83-1.115l-.056-.137z" fill="#45A1FF"/><path d="M48.302 38.212A29.755 29.755 0 0145.43 25.67a29.766 29.766 0 012.682-12.587C52.055 4.296 60.019-1.027 67.56.166c7.544 1.194 13.613 8.71 14.742 18.3a29.76 29.76 0 01-1.124 12.797 29.286 29.286 0 01-6.4 11.059c-4.039 4.032-6.853-.235-12.118-1.076-5.265-.842-11.66 2.054-14.359-3.034zm1.321-24.405a28.074 28.074 0 00-2.53 11.817 28.064 28.064 0 002.664 11.786c2.432 4.56 8.003 1.957 12.77 2.642 4.767.685 7.409 4.677 11.046 1.096A27.535 27.535 0 0079.59 30.74a27.982 27.982 0 001.049-12.04C79.566 9.854 74.109 3.043 67.237 1.889 60.364.734 53.203 5.803 49.547 13.807h.076z" fill="#212125"/><path d="M69.036 32.4a11.868 11.868 0 002.508-5.735c.333-2.138.067-4.33-.766-6.321-1.589-.568-3.12-1.253-4.71-1.781a23.48 23.48 0 00-4.364-.626 5.023 5.023 0 01-2.527-.646c-1.206-.607-1.915 0-2.642.744a11.864 11.864 0 00-2.623 5.87 11.717 11.717 0 00.919 6.674c2.125 0 4.25 0 6.356.196 2.666.215 5.3.74 7.85 1.566v.059z" fill="#45A1FF"/><path d="M66.873 26.078a5.99 5.99 0 00-.421-3.327 5.849 5.849 0 00-2.015-2.552 5.66 5.66 0 00-3.04-1.049 5.453 5.453 0 00-3.12.724 5.807 5.807 0 00-2.278 2.31 6.096 6.096 0 00-.747 3.17 5.962 5.962 0 001.015 3.268 5.859 5.859 0 002.45 1.958c.843 0 1.666 0 2.489.137.498 0 1.015 0 1.493.156a5.728 5.728 0 002.804-1.795A5.932 5.932 0 0066.873 26v.078z" fill="#212125"/><path d="M60.689 27.624c.379 0 .749-.114 1.063-.33.315-.215.56-.52.706-.878.145-.357.182-.75.109-1.13a1.97 1.97 0 00-.524-1.003 1.901 1.901 0 00-.98-.535 1.876 1.876 0 00-1.107.111c-.35.148-.649.4-.859.721a1.988 1.988 0 00.238 2.471c.36.367.846.573 1.354.573zM68.079 32.087a11.286 11.286 0 002.642-6.478 10.968 10.968 0 01-3.389 6.262l.747.216z" fill="#fff"/><path d="M46.598 17.33c19.375-1.78 35.82 9.786 35.571 9.531-18.455-17.28-35.57-9.53-35.57-9.53zM45.89 30.58c14.799-4.854 32.814 4.638 32.814 4.638-24.524-6.38-32.814-4.639-32.814-4.639z" fill="#212125"/><path d="M40.568 16.978c4.212 11.84-.727 22.135-12.789 23.074-12.06.94-18.57-8.474-16.12-20.823 1.666-8.474 7.524-13.974 13.402-14.444 5.877-.47 12.616 4.09 15.507 12.193z" fill="#fff"/><path d="M22.744 21.068a34.615 34.615 0 016.28-1.233 28.808 28.808 0 014.499-.528c2.713-.04 5.417.335 8.021 1.115a26.897 26.897 0 00-.938-3.444c-2.91-8.083-9.572-12.624-15.45-12.154-5.877.47-11.793 5.97-13.4 14.404a26.718 26.718 0 00-.422 6.87 12.95 12.95 0 014.154-2.134 31.77 31.77 0 017.256-2.896z" fill="#45A1FF"/><path d="M16.33 21.42c1.666-8.454 7.525-13.953 13.402-14.423a11.414 11.414 0 013.733.333 13.024 13.024 0 00-8.385-2.525c-5.954.47-11.793 5.969-13.401 14.443a26.615 26.615 0 00-.44 6.87 12.798 12.798 0 014.154-2.153l.65-.333c.057-.742.153-1.48.288-2.211zM38.424 31.343h-3.178a76.332 76.332 0 00-7.907.587c-2.604.313-5.17.548-7.773.763-1.2.083-2.396.233-3.58.45H15.7a.132.132 0 00-.115 0l-.727.196c-.559.167-1.108.363-1.647.587l-.287.118c1.57 3.914 2.22 6.615 4.02 7.73 1.417.861 3.025.51 5.744.176 3.599-.45 3.733-1.252 6.509-1.526 4.288-.411 5.112 1.409 7.658.333 2.24-.92 2.852-3.25 3.427-5.46.364-1.468 1.244-2.701 1.11-3.484a22.506 22.506 0 00-3.044-.49l.077.02z" fill="#45A1FF"/><path d="M32.182 42.792c-6.815.528-11.965-3.914-14.703-9.942-.46 0-.938.117-1.397.215a1.243 1.243 0 00-.287 0h-.096l-.747.196c-.559.173-1.108.375-1.646.606l-.287.098c2.622 6.654 7.964 11.567 15.162 11.019a13.237 13.237 0 007.505-2.995c-1.134.388-2.311.63-3.504.725v.078z" fill="#45A1FF"/><path d="M28.354 41.442c-4.71.098-9.132 2.935-12.406-.881a25.867 25.867 0 01-4.918-10.177 26.194 26.194 0 01-.136-11.35C12.54 10.715 18.34 4.53 25.042 4.002c6.7-.529 13.401 4.697 16.196 12.662a26.123 26.123 0 011.534 11.22c-.315 3.81-1.46 7.5-3.353 10.797-2.45 4.227-1.493 2.584-11.065 2.76zm-3.16-35.874c-6.049.47-11.275 6.146-12.788 13.817-.73 3.51-.685 7.142.13 10.632a24.391 24.391 0 004.58 9.546c2.948 3.405 6.432.802 10.663.49 4.231-.314 8.022 1.702 10.473-2.134a24.679 24.679 0 003.064-10.161 24.783 24.783 0 00-1.476-10.525c-2.603-7.34-8.653-12.095-14.645-11.665z" fill="#212125"/><path d="M28.64 31.363c1.915 0 3.83.098 5.61.254a10.643 10.643 0 00-.67-11.116c-.593-.646-1.168-1.292-2.278-.842a4.3 4.3 0 01-2.26.392 21.483 21.483 0 00-3.828.235c-1.417.371-2.814.86-4.25 1.252a10.09 10.09 0 00-1.053 5.5 10.472 10.472 0 001.914 5.186 28.8 28.8 0 016.969-.861h-.153z" fill="#45A1FF"/><path d="M27.32 31.401h3.503a5.153 5.153 0 002.754-2.255 5.342 5.342 0 00.677-3.54 5.276 5.276 0 00-1.718-3.15 5.066 5.066 0 00-3.302-1.27 4.838 4.838 0 00-2.738.724 5.064 5.064 0 00-1.914 2.094 5.123 5.123 0 00-.574 2.818c.053 1.013.4 1.987.995 2.799a5.142 5.142 0 002.336 1.78h-.02z" fill="#212125"/><path d="M29.426 28.622c.317-.004.626-.103.888-.286s.465-.441.584-.742a1.678 1.678 0 00-.361-1.785 1.597 1.597 0 00-.824-.444 1.575 1.575 0 00-.926.097 1.616 1.616 0 00-.719.605 1.67 1.67 0 00.208 2.08 1.58 1.58 0 001.15.475zM23.202 31.871a9.892 9.892 0 01-2.506-5.734 10.055 10.055 0 001.913 5.871l.593-.137z" fill="#fff"/><path d="M10.53 26.783c-.23.215 15.641-10.06 31.819-6.145 0-.02-12.885-10.686-31.819 6.145zM12.56 34.357s15.794-8.24 29.406-2.133c0 0-8.596-2.192-29.407 2.133zM38.915 61.825c1.428-.73 1.563-3.414.302-5.996-1.261-2.581-3.442-4.083-4.87-3.354-1.429.73-1.564 3.413-.303 5.995 1.262 2.582 3.442 4.084 4.87 3.355zM53.983 57.896c1.234-2.596 1.07-5.279-.367-5.992-1.436-.713-3.6.813-4.833 3.409-1.234 2.596-1.07 5.278.366 5.991 1.436.714 3.6-.813 4.834-3.408z" fill="#212125"/></svg>