<svg width="20" height="20" fill="none" xmlns="http://www.w3.org/2000/svg"><path fill-rule="evenodd" clip-rule="evenodd" d="M9.552 0a9.552 9.552 0 102.484 18.777l-.24-1.04-.063.017.05-.071-.354-1.537c-.267.578-.56 1.03-.86 1.349-.37.39-.713.542-1.017.542-.304 0-.648-.152-1.017-.542-.37-.391-.727-.986-1.039-1.764-.355-.887-.636-1.98-.812-3.208a29.015 29.015 0 013.882-.116l-.248-1.076a30.13 30.13 0 00-3.757.132 21.7 21.7 0 01-.005-3.765c1.043.11 2.046.166 3.055.169.963.002 1.929-.046 2.939-.143.05.588.076 1.2.076 1.828v.08l1.058.558a23.217 23.217 0 00-.074-2.584 55.42 55.42 0 004.014-.676 8.48 8.48 0 01.413 2.622c0 .94-.153 1.845-.436 2.69l-.035-.006.987.52c.357-1.002.55-2.08.55-3.204A9.552 9.552 0 009.553 0zM1.5 6.87a8.476 8.476 0 00-.433 2.682c0 .94.152 1.843.434 2.688a59.936 59.936 0 014-.659 22.76 22.76 0 01-.005-4.01A57.717 57.717 0 011.5 6.869zm.408-1.006c1.352.277 2.567.492 3.708.647.186-1.335.492-2.539.89-3.534A7.663 7.663 0 017.37 1.35a8.505 8.505 0 00-5.463 4.514zm7.644-4.797c-.304 0-.648.152-1.017.542-.37.39-.727.985-1.039 1.764-.36.901-.645 2.014-.82 3.265 1.008.106 1.971.16 2.938.162.92.002 1.845-.043 2.818-.136-.176-1.262-.462-2.384-.825-3.291-.311-.779-.669-1.373-1.039-1.764-.368-.39-.712-.542-1.016-.542zm3.94 5.478c-.185-1.348-.493-2.564-.894-3.568a7.66 7.66 0 00-.865-1.627 8.505 8.505 0 015.49 4.572 53.521 53.521 0 01-3.73.623zM7.371 17.754a7.666 7.666 0 01-.865-1.627c-.394-.984-.697-2.171-.883-3.486a57.72 57.72 0 00-3.712.606 8.505 8.505 0 005.46 4.507z" fill="#F9F9FA"/><path d="M19.78 15.05l-8.139-4.288 1.98 8.578 1.54-1.98L17.25 20l1.87-1.32-2.09-2.97 2.749-.66z" fill="#F9F9FA"/></svg>