<svg viewBox="0 0 16 16" width="16" height="16" fill="none" xmlns="http://www.w3.org/2000/svg">
    <path d="M15.995 10.12c0-1.3-.667-2.606-2.001-3.632l-.047-.041a1.129 1.129 0 00-.193-.123l-.027-.044c.051-.236.072-.478.063-.72a4.371 4.371 0 00-.196-1.231c-.334-1.603-1.178-2.5-2.482-2.66A2.186 2.186 0 0010 1.781a2.231 2.231 0 00-.92.649 2.317 2.317 0 00-1.077-.127 2.288 2.288 0 00-1.074.127 2.238 2.238 0 00-.92-.648 2.193 2.193 0 00-1.112-.113c-1.308.16-2.138 1.057-2.485 2.66a4.37 4.37 0 00-.194 1.231c-.012.241.006.483.054.72l-.024.044c-.07.033-.135.074-.196.123l-.047.04C.67 7.512-.02 8.82.003 10.12c-.01.238.006.476.05.71.049.252.138.494.264.716 0 .037.03.078.05.116.584 1.21 1.488 1.773 3.453 2.148.496.08.986.195 1.467.341.147.089.307.201.51.341a4.6 4.6 0 001.729.798c.043 0 .09 0 .136.02.096.013.191.021.287.024h.11c.096-.003.192-.01.287-.024l.137-.02a4.566 4.566 0 001.725-.798c.207-.143.367-.256.51-.341.483-.146.974-.26 1.471-.341 1.962-.375 2.866-.938 3.453-2.148.016-.038.03-.079.046-.116.126-.223.216-.465.267-.716.04-.235.053-.473.04-.71zm-.82 1.152a2.814 2.814 0 01-.848.91 15.99 15.99 0 00-2.325.9 4.272 4.272 0 00-1.537.53c-.42.162-.813.392-1.161.681a2.413 2.413 0 01-.848.386 1.608 1.608 0 01-.28.05 1.604 1.604 0 01-.183 0c-.06.004-.12.004-.18 0a1.608 1.608 0 01-.28-.05 2.452 2.452 0 01-.851-.386 4.17 4.17 0 00-1.158-.682 4.272 4.272 0 00-1.538-.528c-.36-.174-.734-.341-1.104-.481-.37-.14-.81-.297-1.22-.42a2.777 2.777 0 01-.848-.91 3.03 3.03 0 01-.25-.972c0-.835.41-1.647 1.357-2.633.19-.197.334-.34.427-.46.071.14.19.248.334.304a.286.286 0 00.284-.078c.126-.13.106-.226.02-.628a5.826 5.826 0 01-.047-2.224v-.05c.2-.75.662-1.397 1.298-1.822a1.087 1.087 0 011.14-.04l.858 1.295c.13.31.196.467.383.505a.266.266 0 00.27-.078c.127-.13.12-.342.06-.618a4.388 4.388 0 00-.146-.535c.15.217.286.445.407.682.15.293.26.501.507.44a.31.31 0 00.177-.127.323.323 0 00.053-.214 2.883 2.883 0 00-.334-1c.118-.043.24-.074.364-.091.125.017.248.048.367.092a2.897 2.897 0 00-.334.999.346.346 0 00.06.21.334.334 0 00.174.13c.247.062.357-.146.507-.44a5.91 5.91 0 01.404-.681 5.092 5.092 0 00-.147.535c-.057.287-.067.488.06.617a.268.268 0 00.274.078c.183-.037.25-.194.383-.504l.887-1.296a1.091 1.091 0 011.144.041 3.172 3.172 0 011.298 1.821v.051c.124.737.104 1.491-.057 2.22-.086.403-.11.498 0 .628a.309.309 0 00.287.082.612.612 0 00.334-.304c.103.12.24.263.43.46.944.986 1.368 1.798 1.354 2.633a3.026 3.026 0 01-.226.972zm-5.18-8.866a2.001 2.001 0 00-.284.34l-.047-.03-.053-.01c.115-.112.244-.208.383-.287v-.013zm-3.67.317l-.047.03a2.001 2.001 0 00-.283-.34c.138.079.267.175.383.286l-.053.024z"
          fill="#212125"/>
    <path d="M13.817 6.716c-.19-.143-.207-.167-.234-.092v-.03l-.056.088c-.167.249-.254.263-.19.034.126-.371.186-.763.176-1.156a3.95 3.95 0 00-.197-1.214c-.333-1.439-1.067-2.244-2.228-2.387a1.962 1.962 0 00-1.075.134 2.01 2.01 0 00-.85.688 2.012 2.012 0 00-1.167-.18 2.028 2.028 0 00-1.154.183 2.01 2.01 0 00-.848-.686 1.961 1.961 0 00-1.074-.135c-1.16.143-1.905.948-2.228 2.387a4.056 4.056 0 00-.2 1.214c-.009.393.052.784.18 1.156.06.228-.027.214-.19-.034l-.057-.09-.017.032c-.03-.075-.043-.052-.233.092C.87 7.715.213 8.994.27 10.246c.001.18.019.36.053.538.053.243.147.474.28.682 0 .02 0 .045.027.065.53 1.125 1.358 1.64 3.236 1.981.516.08 1.026.194 1.528.341.157.096.333.215.554.369.456.341.972.59 1.52.73l.12.027h.02c.062.011.123.02.184.024H8.18c.062-.005.123-.013.184-.024h.03l.12-.027a4.296 4.296 0 001.518-.73c.223-.154.4-.273.557-.369a11.831 11.831 0 011.528-.34c1.874-.359 2.705-.867 3.249-1.992 0-.02 0-.044.026-.065.127-.21.218-.44.267-.682a2.91 2.91 0 00.043-.532c.077-1.248-.58-2.527-1.884-3.526z"
          fill="#45A1FF"/>
    <path d="M1.324 10.075h-.053a.15.15 0 01-.043-.034.143.143 0 01-.03-.048 1.444 1.444 0 01.137-.597 1.46 1.46 0 01.333-.443 1.278 1.278 0 01.937-.372.953.953 0 01.7.341.137.137 0 01.034.106.139.139 0 01-.05.099.133.133 0 01-.103.034.131.131 0 01-.097-.051.715.715 0 00-.504-.252 1.007 1.007 0 00-.4.064 1.039 1.039 0 00-.334.222 1.07 1.07 0 00-.37.767.158.158 0 01-.043.103.155.155 0 01-.1.04l-.014.021zM14.498 10.075a.155.155 0 01-.1-.04.158.158 0 01-.044-.103 1.133 1.133 0 00-.107-.426 1.118 1.118 0 00-.263-.341.968.968 0 00-.334-.222.981.981 0 00-.397-.065.715.715 0 00-.504.252.137.137 0 01-.096.052.128.128 0 01-.104-.035.135.135 0 01-.05-.098.152.152 0 01.03-.106c.094-.106.207-.192.334-.252a.96.96 0 01.387-.103 1.256 1.256 0 01.954.358c.138.125.251.275.333.444a1.442 1.442 0 01.137.596.22.22 0 01-.026.048.233.233 0 01-.047.034h-.054l-.05.007z"
          fill="#212125"/>
    <path d="M7.806 13.928a6.248 6.248 0 01-1.908-.31 7.645 7.645 0 01-1.958-1.002c-.914-.597-1.468-.955-1.815-1.668-.487-1-.39-1.627-.227-2.107a.258.258 0 01.033-.069.197.197 0 01.06-.044.138.138 0 01.07-.02.196.196 0 01.077 0c.023.01.045.024.064.04a.177.177 0 01.043.058.208.208 0 01.02.076.188.188 0 010 .075c-.143.426-.21.944.21 1.814.3.613.79.934 1.668 1.514.57.41 1.196.733 1.858.958 1.651.508 2.972.368 5.237-.553 1.308-.531 1.832-1.108 1.959-1.271.7-.894.443-2.02.333-2.445a.195.195 0 01.023-.144.194.194 0 01.117-.088.183.183 0 01.197.074c.014.02.024.044.03.069.107.474.4 1.736-.417 2.776-.183.232-.757.835-2.112 1.388-1.447.6-2.531.88-3.562.88z"
          fill="#212125"/>
    <path fill-rule="evenodd" clip-rule="evenodd"
          d="M5.891 8.5a.784.784 0 00-.677.791c0 .283.08.423.103.18.094-.975 1.195-.982 1.705 0 .107.198.14.168.083-.071a1.218 1.218 0 00-.452-.666 1.172 1.172 0 00-.762-.228"
          fill="#212125"/>
    <path d="M5.274 9.625c-.093 0-.093-.3-.093-.341a.812.812 0 01.196-.546.788.788 0 01.507-.27c.279-.015.554.067.78.233.227.167.39.407.465.682.043.177.033.221 0 .232-.034.01-.064 0-.134-.144-.303-.576-.78-.767-1.12-.682a.692.692 0 00-.382.248.72.72 0 00-.152.434c0 .072-.017.154-.067.154zm.62-1.095a.735.735 0 00-.478.248.767.767 0 00-.189.513.77.77 0 00.034.259.386.386 0 00.016-.085.785.785 0 01.163-.475.756.756 0 01.414-.272c.248-.023.495.036.708.167.212.131.378.328.473.563.017.03.037.061.057.092a1.184 1.184 0 00-.465-.79 1.14 1.14 0 00-.74-.223l.007.003z"
          fill="#212125"/>
    <path fill-rule="evenodd" clip-rule="evenodd"
          d="M5.998 9.08a.53.53 0 00-.134.644c.037.04.047.03.057-.079.02-.231.084-.361.177-.361.04 0 .043 0 .037.027-.104.235.093.774.407 1.108l.08.09h-.054a.506.506 0 01-.317-.158c-.113-.105-.156-.065-.066.062.333.46.774.34.777-.205 0-.648-.607-1.364-.964-1.142"
          fill="#212125"/>
    <path d="M6.608 10.733a.592.592 0 01-.447-.29c-.056-.078-.07-.13-.04-.157.03-.027.08 0 .15.058.077.083.18.136.29.15l-.043-.05c-.333-.342-.517-.877-.42-1.133-.073 0-.13.126-.15.341 0 .082 0 .12-.044.13-.043.01-.046-.017-.063-.034a.407.407 0 01-.06-.314.547.547 0 01.2-.372.36.36 0 01.394.017 1.4 1.4 0 01.444.496c.107.2.165.423.17.65a.49.49 0 01-.055.296.475.475 0 01-.216.205.323.323 0 01-.1 0l-.01.007zm-.453-.402c.01.026.025.05.043.071.147.212.334.31.494.26.16-.052.25-.219.25-.447a1.388 1.388 0 00-.164-.62 1.354 1.354 0 00-.423-.475.329.329 0 00-.334-.02.472.472 0 00-.173.34.349.349 0 00.046.267.52.52 0 010-.058c.024-.25.097-.389.207-.389.024 0 .047 0 .06.02a.035.035 0 010 .024.028.028 0 010 .024c-.096.225.097.75.4 1.081l.114.126-.103.02a.532.532 0 01-.334-.163.234.234 0 00-.073-.061h-.01z"
          fill="#212125"/>
    <path fill-rule="evenodd" clip-rule="evenodd"
          d="M7.185 10.27c0 .037 0 .071-.016.109-.047.521-.317.818-.667.726-.18-.051-.2-.041-.097.04.303.24.667 0 .807-.477.043-.184 0-.497-.04-.399"
          fill="#212125"/>
    <path d="M6.678 11.272a.471.471 0 01-.28-.102c-.05-.041-.083-.072-.067-.103.017-.03.05-.03.19 0a.36.36 0 00.17 0 .396.396 0 00.16-.068.872.872 0 00.291-.64.467.467 0 010-.12c.023-.041.05-.038.057-.031.073.027.066.317.033.447a.79.79 0 01-.148.34.767.767 0 01-.286.233.372.372 0 01-.136.024l.016.02zm-.26-.147h.017a.38.38 0 00.173.086.4.4 0 00.19 0 .728.728 0 00.4-.536c.02-.113.02-.228 0-.34v.067a.934.934 0 01-.313.682.442.442 0 01-.18.075.428.428 0 01-.197 0l-.09-.034z"
          fill="#212125"/>
    <path fill-rule="evenodd" clip-rule="evenodd"
          d="M9.414 8.5a1.17 1.17 0 00-.76.227c-.22.163-.38.398-.451.666-.06.239-.024.27.08.072.51-.976 1.611-.969 1.705 0 .023.242.106.102.103-.181a.781.781 0 00-.187-.529.782.782 0 00-.49-.262"
          fill="#212125"/>
    <path d="M10.027 9.625c-.046 0-.063-.082-.07-.15a.716.716 0 00-.15-.435.689.689 0 00-.38-.247 1.088 1.088 0 00-.673.161 1.126 1.126 0 00-.448.538c-.07.133-.103.153-.133.143-.03-.01-.044-.058 0-.235.074-.275.238-.515.464-.681.227-.167.502-.249.78-.233.196.024.376.12.505.271.13.151.201.346.199.547 0 .034 0 .341-.09.341l-.004-.02zm-.75-.917a.691.691 0 01.147 0c.164.041.31.137.414.272a.792.792 0 01.166.474.32.32 0 000 .082.748.748 0 00.034-.259.76.76 0 00-.189-.512.728.728 0 00-.479-.245 1.141 1.141 0 00-.726.245 1.186 1.186 0 00-.444.795.609.609 0 00.056-.092c.087-.21.228-.39.408-.524.18-.134.392-.216.613-.236z"
          fill="#212125"/>
    <path fill-rule="evenodd" clip-rule="evenodd"
          d="M9.337 9.08c-.36-.23-.967.494-.964 1.142 0 .545.45.682.777.204.09-.13.047-.167-.07-.061a.52.52 0 01-.313.157h-.054l.08-.089c.314-.341.51-.876.407-1.108 0-.024 0-.027.034-.027.093 0 .16.13.18.361 0 .11.016.12.056.075a.536.536 0 00-.133-.641"
          fill="#212125"/>
    <path d="M8.717 10.733a.346.346 0 01-.107-.017.474.474 0 01-.216-.205.49.49 0 01-.054-.296c.008-.226.069-.447.176-.644a1.42 1.42 0 01.444-.492.372.372 0 01.39-.02.526.526 0 01.2.375.39.39 0 01-.06.31s-.036.045-.063.034c-.027-.01-.037-.044-.043-.126 0-.211-.074-.34-.15-.34.093.258-.104.787-.417 1.128l-.047.048a.473.473 0 00.29-.15c.073-.062.124-.082.154-.058s0 .082-.04.16a.617.617 0 01-.457.293zm.47-1.674a.456.456 0 00-.2.058 1.385 1.385 0 00-.421.478c-.102.19-.159.403-.166.62 0 .232.086.396.23.443.143.048.333-.047.493-.255a.545.545 0 00.044-.076.268.268 0 00-.07.052.526.526 0 01-.334.163l-.107-.02.117-.126c.307-.341.5-.856.4-1.081a.066.066 0 010-.024.049.049 0 010-.024c0-.02.04-.02.06-.02.114 0 .187.136.207.388v.058a.345.345 0 00.047-.266.505.505 0 00-.17-.34.259.259 0 00-.133-.035l.003.007z"
          fill="#212125"/>
    <path fill-rule="evenodd" clip-rule="evenodd"
          d="M8.12 10.27c-.057-.1-.084.214-.037.398.123.495.5.716.804.478.106-.082.083-.092-.097-.041-.334.092-.607-.205-.667-.726a.617.617 0 000-.11"
          fill="#212125"/>
    <path d="M8.626 11.272a.502.502 0 01-.14-.024.803.803 0 01-.434-.573c-.033-.13-.036-.423.034-.45 0 0 .037 0 .057.03.01.04.017.08.02.12a.879.879 0 00.29.645.384.384 0 00.334.054c.14-.037.173-.04.19 0 .016.041-.017.058-.07.103a.457.457 0 01-.28.095zM8.1 10.31a.892.892 0 000 .341.728.728 0 00.4.532.359.359 0 00.19 0 .417.417 0 00.174-.085l-.086.024a.476.476 0 01-.377-.079.922.922 0 01-.314-.681c.02-.007.017-.031.013-.052z"
          fill="#212125"/>
    <path d="M11.752.176c1.168.184 2.242 1.364 2.445 3.069.297 2.475-.75 4.433-3.422 3.727-2.973-.798-3.263-2.346-2.255-4.62C9.214.785 10.58-.009 11.752.175z"
          fill="#fff"/>
    <path d="M13.387 4.114c.288.114.554.28.787.488a5.332 5.332 0 000-1.364C13.97 1.533 12.896.363 11.729.168 10.56-.025 9.19.78 8.496 2.339a5.196 5.196 0 00-.22.671 5.175 5.175 0 011.605-.095c.296.034.59.091.877.17.416.077.825.192 1.22.341.495.172.968.403 1.409.69z"
          fill="#45A1FF"/>
    <path d="M13.28 4.036c.04.027.087.051.123.082.291.111.56.276.79.487a5.359 5.359 0 000-1.364C13.992 1.536 12.917.367 11.747.172a2.566 2.566 0 00-1.692.382 2.18 2.18 0 01.744 0c1.168.18 2.242 1.364 2.445 3.07.021.136.034.274.037.412zM8.12 5.263c.113.781.236 1.283.566 1.559.234.194.598.201 1.298.256.374 0 .748.027 1.118.081.507.113.61.256.867.294.364.047.924-.144 1.745-1.313H13.656a2.867 2.867 0 00-.314-.143c-.05-.017-.097-.031-.143-.052h-.077a6.077 6.077 0 00-.7-.143c-.51-.088-1.001-.17-1.521-.273a15.036 15.036 0 00-1.555-.238c-.123 0-.24-.017-.364-.024a.492.492 0 00-.1 0H8.73c-.204.004-.408.02-.61.048v-.052z"
          fill="#45A1FF"/>
    <path d="M9.133 7.374a2.61 2.61 0 001.438.706c1.411.222 2.539-.665 3.153-1.94l-.057-.027a5.26 5.26 0 00-.314-.144l-.143-.047a.03.03 0 00-.02 0h-.057l-.27-.065c-.634 1.163-1.715 1.947-3.052 1.735a2.913 2.913 0 01-.668-.194l-.01-.024z"
          fill="#45A1FF"/>
    <path d="M8.416 6.658a5.184 5.184 0 01-.033-4.378C9.07.749 10.458-.18 11.773.029c1.313.208 2.37 1.517 2.568 3.188.098.75.03 1.511-.196 2.23a5.103 5.103 0 01-1.115 1.927c-.704.703-1.194-.04-2.112-.187-.917-.147-2.031.358-2.502-.529zm.23-4.252a4.891 4.891 0 00.024 4.112c.423.795 1.394.341 2.225.46.83.12 1.29.816 1.925.192a4.8 4.8 0 001.048-1.814 4.877 4.877 0 00.182-2.098C13.864 1.717 12.913.53 11.715.33c-1.197-.201-2.445.682-3.082 2.077h.013z"
          fill="#212125"/>
    <path d="M12.029 5.645c.232-.286.383-.631.437-.999a2.043 2.043 0 00-.133-1.101c-.277-.1-.544-.218-.821-.31a4.091 4.091 0 00-.76-.11.875.875 0 01-.441-.112c-.21-.106-.334 0-.46.13-.243.29-.401.644-.457 1.022-.062.396-.006.8.16 1.163.37 0 .74 0 1.107.034.465.038.924.13 1.368.273v.01z"
          fill="#45A1FF"/>
    <path d="M11.652 4.544a1.043 1.043 0 00-.073-.58 1.02 1.02 0 00-.351-.444.987.987 0 00-.53-.183 1.012 1.012 0 00-.94.529c-.093.168-.138.359-.13.552.001.203.063.402.176.57.11.15.257.268.427.34.147 0 .29 0 .434.024.086 0 .176 0 .26.027a.998.998 0 00.488-.312c.13-.151.213-.338.239-.537v.014z"
          fill="#212125"/>
    <path d="M10.575 4.813c.066 0 .13-.02.185-.057a.34.34 0 00.142-.35.344.344 0 00-.091-.175.332.332 0 00-.364-.074.336.336 0 00-.15.126.347.347 0 00.042.43.33.33 0 00.236.1zM11.862 5.59c.268-.315.43-.71.46-1.128-.07.421-.278.806-.59 1.091l.13.038z"
          fill="#fff"/>
    <path d="M8.12 3.02c3.375-.31 6.24 1.705 6.197 1.66C11.102 1.67 8.12 3.02 8.12 3.02zM7.996 5.328c2.579-.845 5.718.808 5.718.808-4.274-1.111-5.718-.808-5.718-.808z"
          fill="#212125"/>
    <path d="M7.069 2.958c.734 2.063-.127 3.857-2.229 4.02-2.101.164-3.235-1.476-2.808-3.628.29-1.476 1.31-2.434 2.335-2.516 1.024-.082 2.198.713 2.702 2.124z"
          fill="#fff"/>
    <path d="M3.963 3.67a6.032 6.032 0 011.094-.214 5.02 5.02 0 01.784-.092 4.63 4.63 0 011.398.194 4.689 4.689 0 00-.164-.6C6.568 1.55 5.407.758 4.383.841 3.36.922 2.328 1.88 2.048 3.35c-.076.393-.1.796-.073 1.196.217-.167.463-.293.724-.371.4-.22.824-.39 1.264-.505z"
          fill="#45A1FF"/>
    <path d="M2.845 3.732c.29-1.473 1.311-2.431 2.336-2.513.218-.017.438.003.65.058A2.27 2.27 0 004.37.837C3.333.92 2.315 1.877 2.035 3.354a4.638 4.638 0 00-.077 1.197 2.23 2.23 0 01.724-.375l.113-.058c.01-.13.027-.258.05-.386zM6.695 5.461h-.554c-.46.01-.92.045-1.377.103-.454.054-.901.095-1.355.133-.209.014-.417.04-.624.078h-.05a.023.023 0 00-.02 0l-.126.034a2.876 2.876 0 00-.287.102l-.05.02c.273.683.387 1.153.7 1.348.247.15.527.089 1.001.03.627-.078.65-.218 1.134-.265.747-.072.89.245 1.334.058.39-.16.498-.567.598-.952.063-.256.216-.47.193-.607a3.922 3.922 0 00-.53-.085l.013.003z"
          fill="#45A1FF"/>
    <path d="M5.608 7.456c-1.188.092-2.085-.682-2.562-1.732-.08 0-.164.02-.244.037a.215.215 0 00-.05 0h-.017l-.13.034a2.9 2.9 0 00-.287.106l-.05.017c.457 1.16 1.388 2.016 2.642 1.92a2.306 2.306 0 001.308-.522c-.198.068-.403.11-.61.126v.014z"
          fill="#45A1FF"/>
    <path d="M4.94 7.22c-.82.018-1.59.512-2.161-.153a4.507 4.507 0 01-.857-1.773 4.564 4.564 0 01-.024-1.978C2.185 1.867 3.196.79 4.363.697c1.168-.092 2.335.819 2.822 2.207A4.552 4.552 0 016.87 6.74c-.427.737-.26.45-1.929.48zM4.39.97c-1.054.082-1.965 1.071-2.228 2.408a4.303 4.303 0 00.022 1.852 4.25 4.25 0 00.798 1.664c.514.593 1.121.14 1.858.085.738-.055 1.398.296 1.825-.372a4.318 4.318 0 00.277-3.604C6.488 1.723 5.434.895 4.39.97z"
          fill="#212125"/>
    <path d="M4.99 5.465c.334 0 .668.017.978.044a1.854 1.854 0 00-.117-1.937c-.103-.112-.203-.225-.397-.147a.75.75 0 01-.394.069 3.744 3.744 0 00-.667.04c-.247.065-.49.15-.74.219-.15.294-.214.627-.184.958.029.327.144.64.334.904.397-.1.805-.15 1.214-.15H4.99z"
          fill="#45A1FF"/>
    <path d="M4.76 5.471h.61c.201-.068.371-.208.48-.392a.93.93 0 00-.18-1.166.883.883 0 00-.576-.222.883.883 0 00-.81.491.893.893 0 00-.1.492.906.906 0 00.58.797H4.76z"
          fill="#212125"/>
    <path d="M5.127 4.987c.055 0 .11-.018.155-.05a.285.285 0 00.116-.294.288.288 0 00-.077-.146.278.278 0 00-.305-.06.291.291 0 00.003.53.275.275 0 00.108.02zM4.043 5.553a1.723 1.723 0 01-.437-.999c.002.369.118.727.333 1.023l.104-.024z"
          fill="#fff"/>
    <path d="M1.835 4.667c-.04.037 2.725-1.753 5.544-1.071 0-.003-2.245-1.862-5.544 1.07zM2.188 5.986s2.752-1.435 5.124-.371c0 0-1.498-.382-5.124.371zM6.78 10.772c.25-.127.273-.594.053-1.044-.22-.45-.6-.712-.848-.585-.25.127-.273.595-.053 1.045.22.45.6.711.849.584zM9.406 10.088c.215-.452.186-.92-.064-1.044s-.627.142-.842.594c-.215.452-.186.92.064 1.044s.627-.142.842-.594z"
          fill="#212125"/>
</svg>