<svg width="100" height="96" fill="none" xmlns="http://www.w3.org/2000/svg"><g clip-path="url(#clip0)"><path d="M99.97 63.246c0-8.12-4.17-16.283-12.509-22.698l-.292-.256a7.063 7.063 0 00-1.209-.767l-.167-.277c.32-1.476.453-2.987.396-4.497a27.33 27.33 0 00-1.23-7.694C82.874 17.04 77.6 11.434 69.448 10.433a13.663 13.663 0 00-6.95.698 13.946 13.946 0 00-5.747 4.054 14.48 14.48 0 00-6.734-.788 14.296 14.296 0 00-6.714.788 13.987 13.987 0 00-5.75-4.048 13.704 13.704 0 00-6.947-.704c-8.172 1.001-13.364 6.607-15.532 16.624a27.313 27.313 0 00-1.21 7.694 18.053 18.053 0 00.334 4.497l-.146.277c-.436.208-.849.465-1.23.767l-.292.256C4.19 46.942-.125 55.126.021 63.246c-.07 1.485.035 2.973.313 4.433.303 1.575.86 3.087 1.647 4.476 0 .234.188.49.313.724 3.648 7.566 9.298 11.083 21.578 13.427 3.1.506 6.165 1.218 9.174 2.132.917.554 1.918 1.257 3.19 2.131a28.744 28.744 0 0010.8 4.987c.27 0 .562 0 .854.128.595.08 1.193.13 1.793.15h.688c.6-.02 1.198-.07 1.793-.15l.855-.128a28.54 28.54 0 0010.779-4.987c1.292-.895 2.293-1.598 3.19-2.131a72.407 72.407 0 019.194-2.132c12.26-2.344 17.91-5.86 21.578-13.427.105-.234.188-.49.292-.724a15.465 15.465 0 001.668-4.476c.247-1.463.331-2.95.25-4.433zm-5.128 7.204a17.595 17.595 0 01-5.296 5.69 94.953 94.953 0 00-7.63 2.622 99.826 99.826 0 00-6.902 3.005 26.706 26.706 0 00-9.61 3.303 26.05 26.05 0 00-7.256 4.263 15.078 15.078 0 01-5.296 2.408c-.574.158-1.16.265-1.751.32-.382.021-.765.021-1.147 0-.375.021-.75.021-1.126 0a10.093 10.093 0 01-1.751-.32 15.325 15.325 0 01-5.316-2.408 26.053 26.053 0 00-7.235-4.263 26.706 26.706 0 00-9.611-3.303c-2.252-1.087-4.587-2.131-6.901-3.005-2.314-.874-5.067-1.855-7.631-2.622a17.362 17.362 0 01-5.296-5.69 18.936 18.936 0 01-1.563-6.074c0-5.222 2.564-10.295 8.485-16.454 1.189-1.236 2.085-2.131 2.669-2.877a3.928 3.928 0 002.085 1.897c.314.085.644.085.959 0 .309-.087.59-.256.813-.49.792-.81.667-1.407.125-3.922a36.412 36.412 0 01-.292-13.896v-.32c1.252-4.68 4.137-8.728 8.11-11.38a6.797 6.797 0 013.53-1.144 6.78 6.78 0 013.6.887l5.359 8.1c.813 1.939 1.23 2.92 2.397 3.154.3.084.617.084.918 0 .296-.088.563-.257.771-.49.792-.81.75-2.132.375-3.858a27.45 27.45 0 00-.917-3.346 36.83 36.83 0 012.544 4.262c.938 1.833 1.626 3.133 3.169 2.75a1.94 1.94 0 001.106-.793c.264-.391.382-.866.332-1.339a18.02 18.02 0 00-2.085-6.244 10.797 10.797 0 012.273-.576c.782.109 1.55.302 2.293.576a18.108 18.108 0 00-2.085 6.244c-.02.47.111.934.375 1.32s.645.67 1.085.812c1.543.383 2.23-.917 3.169-2.75a36.93 36.93 0 012.523-4.262 31.799 31.799 0 00-.918 3.346c-.354 1.79-.417 3.048.375 3.857.22.23.492.398.793.49.3.086.617.086.917 0 1.147-.234 1.564-1.214 2.398-3.154l5.545-8.099a6.821 6.821 0 013.61-.886c1.26.045 2.485.44 3.542 1.142 3.973 2.653 6.858 6.701 8.11 11.381v.32a36.39 36.39 0 01-.355 13.875c-.542 2.514-.688 3.111 0 3.921.233.232.52.4.833.49.313.09.644.097.96.022a3.824 3.824 0 002.085-1.897c.647.746 1.501 1.64 2.69 2.877 5.9 6.16 8.548 11.232 8.464 16.454a18.904 18.904 0 01-1.417 6.074zM62.463 15.036c-.666.641-1.26 1.356-1.772 2.132l-.292-.192-.333-.064c.721-.699 1.527-1.3 2.397-1.79v-.086zM39.53 17.018l-.292.192a12.508 12.508 0 00-1.772-2.131 12.258 12.258 0 012.397 1.79l-.333.15z" fill="#212125"/><path d="M86.355 41.976c-1.188-.895-1.293-1.044-1.46-.575v-.192l-.354.554c-1.042 1.556-1.584 1.641-1.188.213a20.724 20.724 0 001.105-7.225 24.702 24.702 0 00-1.23-7.587C81.143 18.17 76.556 13.14 69.3 12.244a12.26 12.26 0 00-6.721.84 12.558 12.558 0 00-5.31 4.297 12.573 12.573 0 00-7.296-1.13 12.675 12.675 0 00-7.214 1.151 12.56 12.56 0 00-5.3-4.29 12.26 12.26 0 00-6.709-.846c-7.255.895-11.905 5.925-13.927 14.919a25.351 25.351 0 00-1.25 7.587 20.83 20.83 0 001.125 7.225c.375 1.428-.167 1.343-1.188-.213l-.355-.554-.104.192c-.188-.469-.271-.32-1.46.575C5.441 48.221 1.333 56.213 1.688 64.035c.006 1.13.118 2.258.333 3.367a12.942 12.942 0 001.752 4.263c0 .128 0 .277.167.405 3.314 7.033 8.485 10.251 20.223 12.383a73.853 73.853 0 019.549 2.13c.98.598 2.085 1.344 3.46 2.303a26.989 26.989 0 009.508 4.56l.75.171h.125c.38.072.762.122 1.147.15h2.419c.384-.03.767-.08 1.146-.15h.188l.75-.17a26.847 26.847 0 009.487-4.561c1.396-.96 2.501-1.705 3.481-2.302a73.853 73.853 0 019.55-2.131c11.716-2.238 16.907-5.414 20.306-12.447 0-.128 0-.277.167-.405a13.407 13.407 0 001.668-4.263c.192-1.097.282-2.21.27-3.324.48-7.8-3.627-15.793-11.779-22.038z" fill="#45A1FF"/><path d="M8.277 62.969h-.333a.942.942 0 01-.271-.214.899.899 0 01-.188-.298 1.11 1.11 0 010-.362 9.024 9.024 0 01.855-3.368 9.122 9.122 0 012.085-2.77 7.987 7.987 0 012.697-1.774 7.847 7.847 0 013.161-.55 5.958 5.958 0 012.407.6 6.082 6.082 0 011.971 1.532.859.859 0 01.209.66.868.868 0 01-.313.619.83.83 0 01-.646.213.82.82 0 01-.605-.32 4.182 4.182 0 00-1.417-1.108 4.468 4.468 0 00-1.73-.47 6.295 6.295 0 00-2.503.406c-.775.32-1.483.79-2.085 1.385a6.693 6.693 0 00-1.647 2.132 7.072 7.072 0 00-.667 2.664.991.991 0 01-.27.639.968.968 0 01-.626.256l-.084.128zM90.61 62.969a.97.97 0 01-.626-.256.99.99 0 01-.27-.64 7.073 7.073 0 00-.668-2.663 6.99 6.99 0 00-1.647-2.132 6.055 6.055 0 00-2.085-1.385 6.13 6.13 0 00-2.481-.405 4.468 4.468 0 00-1.73.469 4.18 4.18 0 00-1.418 1.108.859.859 0 01-.605.32.796.796 0 01-.646-.213.85.85 0 01-.313-.618.953.953 0 01.188-.66 6.455 6.455 0 012.085-1.578 6.004 6.004 0 012.418-.64 7.846 7.846 0 013.208.49 7.983 7.983 0 012.755 1.748 9.12 9.12 0 012.085 2.771c.5 1.054.79 2.198.855 3.367.02.12.02.243 0 .363-.044.106-.1.206-.167.298a1.477 1.477 0 01-.292.213h-.334l-.312.043z" fill="#212125"/><path d="M48.786 87.052a39.049 39.049 0 01-11.925-1.939 47.777 47.777 0 01-12.238-6.266c-5.713-3.73-9.174-5.968-11.342-10.422-3.044-6.245-2.44-10.166-1.418-13.171.049-.152.119-.296.209-.426.107-.116.234-.21.375-.278a.861.861 0 01.438-.127c.158-.032.321-.032.48 0 .143.064.277.15.396.255.113.1.206.224.27.363a1.3 1.3 0 01.126.469c.031.154.031.314 0 .468-.897 2.664-1.314 5.904 1.313 11.339 1.876 3.836 4.941 5.84 10.425 9.463a44.272 44.272 0 0011.612 5.989c10.32 3.175 18.577 2.301 32.733-3.453 8.173-3.325 11.446-6.927 12.238-7.95 4.379-5.584 2.773-12.617 2.085-15.281a1.216 1.216 0 01.146-.895c.164-.275.425-.474.73-.554a1.143 1.143 0 01.892.143 1.18 1.18 0 01.525.752c.668 2.962 2.502 10.848-2.606 17.348-1.146 1.45-4.732 5.222-13.197 8.675-9.048 3.75-15.824 5.498-22.267 5.498z" fill="#212125"/><path fill-rule="evenodd" clip-rule="evenodd" d="M36.82 53.123a4.785 4.785 0 00-3.045 1.64 4.902 4.902 0 00-1.188 3.304c0 1.77.5 2.643.646 1.13.584-6.096 7.464-6.138 10.654 0 .667 1.236.876 1.044.521-.448a7.611 7.611 0 00-2.83-4.162 7.328 7.328 0 00-4.759-1.422" fill="#212125"/><path d="M32.962 60.156c-.583 0-.583-1.876-.583-2.132a5.074 5.074 0 011.23-3.41 4.928 4.928 0 013.169-1.683 7.512 7.512 0 014.874 1.453 7.803 7.803 0 012.902 4.258c.271 1.109.209 1.386 0 1.45-.208.064-.396 0-.834-.895-1.897-3.602-4.878-4.796-7.005-4.263a4.327 4.327 0 00-2.386 1.544 4.495 4.495 0 00-.95 2.718c0 .448-.104.96-.417.96zm3.878-6.842a4.594 4.594 0 00-2.987 1.55 4.792 4.792 0 00-1.183 3.203 4.808 4.808 0 00.209 1.62c.055-.173.09-.352.104-.533a4.906 4.906 0 011.02-2.968 4.724 4.724 0 012.587-1.7 7.17 7.17 0 014.42 1.047 7.415 7.415 0 012.96 3.514c.105.192.23.384.355.576a4.496 4.496 0 00-.167-.895 7.4 7.4 0 00-2.742-4.045 7.123 7.123 0 00-4.617-1.39l.041.021z" fill="#212125"/><path fill-rule="evenodd" clip-rule="evenodd" d="M37.486 56.745a3.317 3.317 0 00-1.105 1.866 3.37 3.37 0 00.272 2.163c.229.255.291.191.354-.49.125-1.45.521-2.26 1.105-2.26.25 0 .271 0 .23.17-.647 1.471.583 4.839 2.543 6.927l.5.555h-.333a3.162 3.162 0 01-1.981-.98c-.709-.662-.98-.406-.417.383 2.085 2.877 4.837 2.131 4.858-1.279 0-4.05-3.795-8.525-6.026-7.14" fill="#212125"/><path d="M41.302 67.082a3.701 3.701 0 01-1.603-.574 3.798 3.798 0 01-1.19-1.237c-.355-.49-.439-.81-.251-.98.188-.171.5 0 .938.362a3.021 3.021 0 001.814.938l-.271-.32c-2.085-2.132-3.232-5.478-2.627-7.076-.459 0-.813.788-.938 2.131 0 .512 0 .746-.271.81-.271.064-.292-.107-.396-.213a2.57 2.57 0 01-.375-1.96c.043-.454.177-.894.392-1.294.215-.399.507-.75.858-1.03a2.254 2.254 0 012.46.107 8.756 8.756 0 012.778 3.1 8.976 8.976 0 011.059 4.06 3.063 3.063 0 01-.34 1.852 2.967 2.967 0 01-1.35 1.282 2.037 2.037 0 01-.625 0l-.062.042zm-2.836-2.515c.07.161.162.312.271.448.918 1.321 2.085 1.94 3.086 1.62 1-.32 1.564-1.364 1.564-2.792a8.672 8.672 0 00-1.024-3.875A8.46 8.46 0 0039.717 57a2.055 2.055 0 00-2.085-.127 2.949 2.949 0 00-.762.948c-.187.367-.297.77-.322 1.183a2.178 2.178 0 00.292 1.662 3.22 3.22 0 010-.362c.146-1.556.605-2.43 1.293-2.43.146 0 .292 0 .375.128a.217.217 0 010 .15.174.174 0 010 .148c-.605 1.407.605 4.69 2.502 6.757l.709.788-.647.128a3.328 3.328 0 01-2.084-1.023 1.467 1.467 0 00-.46-.384h-.062z" fill="#212125"/><path fill-rule="evenodd" clip-rule="evenodd" d="M44.909 64.184c0 .234 0 .448-.105.682-.291 3.26-1.98 5.115-4.17 4.54-1.125-.32-1.25-.256-.604.255 1.897 1.492 4.17 0 5.045-2.984.271-1.15 0-3.111-.25-2.493" fill="#212125"/><path d="M41.74 70.45a2.941 2.941 0 01-1.752-.64c-.312-.256-.52-.447-.417-.64.105-.191.313-.191 1.189 0 .35.086.714.086 1.063 0 .36-.065.702-.21 1-.425a5.45 5.45 0 001.322-1.808c.312-.69.48-1.44.493-2.2a2.919 2.919 0 010-.745c.146-.256.312-.235.354-.192.459.17.417 1.982.209 2.792a4.935 4.935 0 01-.925 2.13 4.793 4.793 0 01-1.786 1.45 2.33 2.33 0 01-.855.15l.105.128zm-1.627-.917h.105c.31.269.684.452 1.084.533.39.096.798.096 1.188 0a4.544 4.544 0 001.645-1.365c.435-.582.729-1.26.857-1.981.12-.705.12-1.426 0-2.132v.427a5.838 5.838 0 01-.532 2.346 5.72 5.72 0 01-1.428 1.916 2.762 2.762 0 01-1.126.47 2.673 2.673 0 01-1.23 0l-.563-.214z" fill="#212125"/><path fill-rule="evenodd" clip-rule="evenodd" d="M58.836 53.122a7.308 7.308 0 00-4.75 1.424 7.591 7.591 0 00-2.818 4.16c-.376 1.492-.146 1.684.5.448 3.19-6.096 10.07-6.053 10.654 0 .146 1.513.667.64.646-1.13a4.882 4.882 0 00-1.167-3.303 4.887 4.887 0 00-3.065-1.641" fill="#212125"/><path d="M62.672 60.156c-.292 0-.396-.512-.438-.938a4.475 4.475 0 00-.937-2.717 4.307 4.307 0 00-2.378-1.545 6.801 6.801 0 00-4.204 1.008 7.036 7.036 0 00-2.801 3.36c-.438.832-.646.96-.834.896-.188-.064-.271-.363 0-1.47a7.803 7.803 0 012.903-4.259 7.513 7.513 0 014.874-1.454 4.95 4.95 0 013.158 1.696 5.16 5.16 0 011.24 3.42c0 .212 0 2.13-.562 2.13l-.021-.127zm-4.691-5.733c.305-.033.612-.033.917 0a4.766 4.766 0 012.592 1.701 4.948 4.948 0 011.036 2.966c-.022.17-.022.342 0 .512a4.676 4.676 0 00.208-1.62 4.75 4.75 0 00-1.178-3.2 4.552 4.552 0 00-2.991-1.532 7.132 7.132 0 00-4.54 1.534 7.411 7.411 0 00-2.611 4.093 6.527 6.527 0 00-.167.874c.135-.18.253-.373.354-.576A7.837 7.837 0 0154.15 55.9a7.594 7.594 0 013.832-1.476z" fill="#212125"/><path fill-rule="evenodd" clip-rule="evenodd" d="M58.356 56.745c-2.252-1.428-6.046 3.09-6.025 7.14 0 3.41 2.814 4.263 4.858 1.279.563-.81.291-1.044-.438-.384a3.247 3.247 0 01-1.96.98h-.334l.5-.553c1.96-2.132 3.19-5.478 2.544-6.927 0-.15 0-.17.209-.17.584 0 1 .81 1.126 2.259 0 .682.104.745.354.468a3.348 3.348 0 00.27-2.152 3.295 3.295 0 00-1.104-1.854" fill="#212125"/><path d="M54.478 67.083c-.226 0-.451-.037-.667-.107a2.967 2.967 0 01-1.35-1.281 3.063 3.063 0 01-.339-1.852 9.103 9.103 0 011.106-4.024A8.88 8.88 0 0156 56.746a2.314 2.314 0 012.44-.128c.356.28.652.634.867 1.037.215.404.346.85.383 1.307a2.44 2.44 0 01-.375 1.94s-.23.277-.396.213c-.167-.064-.23-.277-.271-.788 0-1.322-.459-2.132-.938-2.132.584 1.62-.647 4.923-2.606 7.055l-.292.298a2.959 2.959 0 001.814-.938c.458-.383.771-.511.959-.362.187.15 0 .512-.25 1.002a3.859 3.859 0 01-1.22 1.256 3.76 3.76 0 01-1.637.577zm2.94-10.465a2.85 2.85 0 00-1.251.362 8.654 8.654 0 00-2.63 2.988 8.867 8.867 0 00-1.04 3.875c0 1.45.543 2.472 1.44 2.77.896.3 2.084-.298 3.085-1.598.102-.148.193-.305.27-.469-.161.082-.309.19-.437.32a3.287 3.287 0 01-2.085 1.023l-.667-.128.73-.788c1.918-2.132 3.127-5.35 2.502-6.756a.416.416 0 010-.15.306.306 0 010-.149c0-.128.25-.128.375-.128.709 0 1.167.853 1.292 2.43v.362a2.158 2.158 0 00.292-1.662 3.157 3.157 0 00-1.063-2.131 1.619 1.619 0 00-.834-.214l.02.043z" fill="#212125"/><path fill-rule="evenodd" clip-rule="evenodd" d="M50.746 64.184c-.354-.618-.52 1.343-.229 2.493.771 3.09 3.127 4.476 5.025 2.984.667-.511.52-.575-.605-.255-2.085.575-3.794-1.28-4.17-4.54.02-.227.02-.455 0-.682" fill="#212125"/><path d="M53.916 70.45a3.144 3.144 0 01-.876-.15 4.879 4.879 0 01-1.778-1.455 5.019 5.019 0 01-.932-2.125c-.209-.81-.23-2.643.208-2.813 0 0 .23 0 .354.192.064.244.105.494.125.746.006.764.17 1.519.484 2.213a5.384 5.384 0 001.33 1.815 2.39 2.39 0 002.085.341c.876-.235 1.084-.256 1.189 0 .104.255-.105.362-.438.64a2.856 2.856 0 01-1.752.596zm-3.295-6.01a5.573 5.573 0 000 2.131c.122.72.413 1.4.849 1.979a4.417 4.417 0 001.653 1.346c.39.106.8.106 1.189 0 .397-.09.768-.272 1.084-.533l-.542.15a2.978 2.978 0 01-1.23 0 2.801 2.801 0 01-1.126-.491 5.763 5.763 0 01-1.424-1.918 5.883 5.883 0 01-.536-2.345c.125-.042.104-.191.083-.32z" fill="#212125"/><path d="M73.45 1.097c7.298 1.151 14.011 8.525 15.283 19.182 1.855 15.473-4.691 27.707-21.391 23.295-18.576-4.987-20.39-14.663-14.094-28.88C57.585 4.913 66.133-.053 73.451 1.098z" fill="#fff"/><path d="M83.667 25.714a16.389 16.389 0 014.92 3.048c.365-2.83.365-5.696 0-8.525C87.315 9.58 80.602 2.27 73.305 1.055 66.008-.16 57.439 4.87 53.102 14.61a32.477 32.477 0 00-1.376 4.199 32.34 32.34 0 0110.029-.597c1.85.215 3.684.571 5.483 1.066 2.6.482 5.152 1.195 7.63 2.13a40.337 40.337 0 018.799 4.306z" fill="#45A1FF"/><path d="M83 25.224c.25.17.542.32.771.511a15.681 15.681 0 014.941 3.048c.363-2.83.363-5.695 0-8.525C87.44 9.602 80.727 2.291 73.41 1.077a16.038 16.038 0 00-10.57 2.387 13.628 13.628 0 014.649 0c7.297 1.13 14.01 8.525 15.282 19.181.132.854.208 1.715.23 2.579zM50.746 32.897c.71 4.88 1.48 8.013 3.544 9.74 1.46 1.214 3.733 1.257 8.11 1.598a47.238 47.238 0 016.985.512c3.17.703 3.815 1.598 5.42 1.833 2.273.298 5.776-.896 10.905-8.206h-.355a17.96 17.96 0 00-1.96-.895c-.312-.107-.604-.192-.896-.32h-.48a37.994 37.994 0 00-4.378-.895c-3.19-.554-6.254-1.066-9.507-1.705a93.98 93.98 0 00-9.715-1.492c-.772 0-1.502-.106-2.273-.15a3.084 3.084 0 00-.625 0h-.96c-1.276.026-2.55.126-3.815.3v-.32z" fill="#45A1FF"/><path d="M57.084 46.089a16.307 16.307 0 008.986 4.412c8.82 1.385 15.866-4.156 19.702-12.127l-.354-.17a32.568 32.568 0 00-1.96-.896l-.896-.298a.184.184 0 00-.125 0h-.355l-1.689-.405c-3.96 7.267-10.716 12.17-19.076 10.848a18.205 18.205 0 01-4.17-1.215l-.063-.149z" fill="#45A1FF"/><path d="M52.602 41.613a32.403 32.403 0 01-3.13-13.658 32.419 32.419 0 012.921-13.707C56.688 4.678 65.361-1.12 73.576.18c8.214 1.3 14.823 9.484 16.053 19.928.612 4.68.193 9.442-1.224 13.937a31.889 31.889 0 01-6.97 12.043c-4.398 4.39-7.463-.256-13.197-1.172-5.733-.916-12.696 2.238-15.636-3.304zm1.438-26.577a30.57 30.57 0 00-2.755 12.869 30.56 30.56 0 002.901 12.835c2.648 4.965 8.715 2.13 13.907 2.877 5.19.746 8.068 5.094 12.03 1.193a29.986 29.986 0 006.55-11.333 30.47 30.47 0 001.143-13.112c-1.168-9.634-7.11-17.05-14.595-18.308C65.737.799 57.94 6.319 53.957 15.037h.083z" fill="#212125"/><path d="M75.181 35.284a12.925 12.925 0 002.731-6.245c.362-2.33.073-4.716-.834-6.884-1.73-.618-3.398-1.364-5.129-1.94a25.57 25.57 0 00-4.753-.682 5.47 5.47 0 01-2.752-.703c-1.314-.66-2.085 0-2.877.81a12.92 12.92 0 00-2.857 6.394 12.76 12.76 0 001.001 7.267c2.314 0 4.629 0 6.922.214 2.904.234 5.771.806 8.548 1.705v.064z" fill="#45A1FF"/><path d="M72.825 28.4a6.524 6.524 0 00-.458-3.623 6.37 6.37 0 00-2.195-2.78 6.165 6.165 0 00-3.31-1.142 5.94 5.94 0 00-3.398.788 6.325 6.325 0 00-2.48 2.515 6.638 6.638 0 00-.814 3.453 6.492 6.492 0 001.105 3.56 6.381 6.381 0 002.669 2.13c.917 0 1.814 0 2.71.15.542 0 1.105 0 1.626.17a6.238 6.238 0 003.053-1.955 6.46 6.46 0 001.492-3.352v.086z" fill="#212125"/><path d="M66.091 30.083c.412 0 .816-.125 1.158-.359.343-.234.61-.567.768-.956.158-.39.2-.818.119-1.232a2.147 2.147 0 00-.57-1.091 2.072 2.072 0 00-1.068-.583 2.043 2.043 0 00-1.205.12 2.095 2.095 0 00-.936.786 2.165 2.165 0 00.26 2.691c.39.4.921.624 1.474.624zM74.139 34.943a12.29 12.29 0 002.877-7.055 11.944 11.944 0 01-3.69 6.82l.813.235z" fill="#fff"/><path d="M50.746 18.873c21.1-1.94 39.008 10.656 38.737 10.38-20.098-18.82-38.737-10.38-38.737-10.38zM49.975 33.301c16.116-5.285 35.735 5.052 35.735 5.052C59.002 31.405 49.975 33.3 49.975 33.3z" fill="#212125"/><path d="M44.18 18.49c4.586 12.894-.793 24.104-13.928 25.127C17.117 44.64 10.03 34.39 12.697 20.94c1.814-9.228 8.194-15.217 14.595-15.728 6.4-.512 13.739 4.454 16.887 13.277z" fill="#fff"/><path d="M24.768 22.943a37.703 37.703 0 016.839-1.343 31.38 31.38 0 014.9-.575c2.954-.044 5.899.366 8.735 1.215a29.313 29.313 0 00-1.021-3.751C41.05 9.687 33.796 4.742 27.395 5.254c-6.4.511-12.842 6.5-14.594 15.686a29.092 29.092 0 00-.458 7.48 14.103 14.103 0 014.524-2.323 34.594 34.594 0 017.901-3.154z" fill="#45A1FF"/><path d="M17.784 23.327C19.598 14.12 25.978 8.131 32.38 7.62a12.431 12.431 0 014.065.362 14.184 14.184 0 00-9.132-2.75c-6.484.512-12.843 6.501-14.594 15.73a28.985 28.985 0 00-.48 7.48 13.941 13.941 0 014.525-2.344l.709-.362c.061-.808.166-1.612.312-2.409zM41.844 34.133h-3.461a83.124 83.124 0 00-8.61.64c-2.836.34-5.63.596-8.465.83-1.308.09-2.61.254-3.899.49h-.313a.143.143 0 00-.125 0l-.792.214c-.608.181-1.207.395-1.793.64l-.313.127c1.71 4.263 2.419 7.204 4.378 8.419 1.543.938 3.295.554 6.255.192 3.92-.49 4.066-1.364 7.089-1.663 4.67-.447 5.566 1.535 8.34.363 2.439-1.002 3.106-3.538 3.731-5.947.396-1.598 1.355-2.941 1.21-3.794a24.526 24.526 0 00-3.316-.532l.084.021z" fill="#45A1FF"/><path d="M35.047 46.6c-7.422.576-13.03-4.262-16.012-10.826-.5 0-1.021.128-1.522.234a1.351 1.351 0 00-.313 0h-.104l-.813.213c-.608.189-1.207.41-1.793.661l-.313.107c2.857 7.246 8.673 12.596 16.513 11.999a14.415 14.415 0 008.172-3.261 15.586 15.586 0 01-3.815.789v.085z" fill="#45A1FF"/><path d="M30.878 45.13c-5.13.107-9.945 3.197-13.51-.959a28.172 28.172 0 01-5.356-11.083 28.527 28.527 0 01-.149-12.36c1.793-9.059 8.11-15.794 15.408-16.369 7.297-.575 14.594 5.115 17.638 13.79a28.448 28.448 0 011.67 12.218 28.317 28.317 0 01-3.65 11.758c-2.67 4.604-1.627 2.814-12.051 3.005zm-3.44-39.066c-6.589.512-12.28 6.692-13.927 15.047a26.893 26.893 0 00.14 11.578c.888 3.8 2.591 7.352 4.988 10.395 3.211 3.709 7.006.874 11.613.533 4.608-.34 8.736 1.855 11.405-2.323a26.875 26.875 0 003.337-11.065c.299-3.895-.25-7.81-1.607-11.462-2.836-7.993-9.424-13.172-15.95-12.703z" fill="#212125"/><path d="M31.19 34.154c2.085 0 4.17.107 6.109.277a11.59 11.59 0 001.344-6.16 11.544 11.544 0 00-2.074-5.945c-.646-.704-1.272-1.407-2.48-.917a4.683 4.683 0 01-2.461.426c-1.395-.039-2.79.047-4.17.256-1.543.405-3.064.938-4.628 1.364a10.99 10.99 0 00-1.147 5.989c.179 2.042.9 3.994 2.085 5.648a31.362 31.362 0 017.589-.938h-.167z" fill="#45A1FF"/><path d="M29.752 34.197H33.566a5.612 5.612 0 002.998-2.456 5.819 5.819 0 00.738-3.855 5.745 5.745 0 00-1.87-3.43 5.517 5.517 0 00-3.597-1.385 5.268 5.268 0 00-2.981.789 5.516 5.516 0 00-2.085 2.28 5.58 5.58 0 00-.625 3.07 5.66 5.66 0 001.084 3.047 5.6 5.6 0 002.543 1.94h-.02z" fill="#212125"/><path d="M32.045 31.17c.346-.004.682-.113.967-.312.285-.2.507-.48.636-.808.13-.327.161-.687.091-1.032a1.802 1.802 0 00-.484-.912 1.738 1.738 0 00-.897-.484c-.339-.067-.69-.03-1.009.106a1.76 1.76 0 00-.782.66 1.818 1.818 0 00.226 2.265 1.717 1.717 0 001.252.517zM25.267 34.708a10.772 10.772 0 01-2.729-6.245 10.95 10.95 0 002.083 6.394l.646-.15z" fill="#fff"/><path d="M11.467 29.167c-.25.234 17.034-10.955 34.651-6.692 0-.022-14.031-11.637-34.65 6.692zM13.677 37.415s17.2-8.973 32.024-2.323c0 0-9.361-2.387-32.024 2.323zM42.379 67.328c1.555-.795 1.703-3.718.329-6.53-1.374-2.811-3.748-4.446-5.304-3.652-1.555.794-1.703 3.717-.33 6.529 1.375 2.811 3.75 4.447 5.305 3.653zM58.788 63.05c1.344-2.828 1.165-5.75-.399-6.526-1.564-.776-3.92.886-5.264 3.713-1.343 2.826-1.165 5.748.4 6.524 1.563.777 3.92-.885 5.264-3.712z" fill="#212125"/></g><defs><clipPath id="clip0"><path fill="#fff" d="M0 0h100v95.833H0z"/></clipPath></defs></svg>