<svg width="828" height="316" fill="none" xmlns="http://www.w3.org/2000/svg"><path fill="#212125" d="M2 6h826v305H2z"/><path d="M267.535 191.601c0-17.799-9.14-35.692-27.42-49.754l-.64-.561a15.48 15.48 0 00-2.65-1.681l-.366-.608c.7-3.234.992-6.547.868-9.857a59.91 59.91 0 00-2.696-16.865c-4.57-21.958-16.132-34.245-34.001-36.44a29.95 29.95 0 00-15.234 1.53 30.57 30.57 0 00-12.598 8.888 31.741 31.741 0 00-14.761-1.729 31.34 31.34 0 00-14.716 1.729c-3.4-4-7.736-7.053-12.603-8.875a30.037 30.037 0 00-15.229-1.543c-17.914 2.196-29.294 14.482-34.047 36.44a59.87 59.87 0 00-2.65 16.865c-.17 3.304.076 6.617.73 9.857l-.319.608a14.145 14.145 0 00-2.696 1.681l-.64.561c-18.28 14.015-27.74 31.955-27.42 49.754a41.49 41.49 0 00.685 9.718 32.244 32.244 0 003.61 9.81c0 .514.412 1.075.686 1.589 7.997 16.585 20.382 24.293 47.3 29.432a155.278 155.278 0 0120.108 4.672c2.011 1.214 4.205 2.756 6.993 4.672a63.012 63.012 0 0023.672 10.932c.595 0 1.234 0 1.874.28 1.304.177 2.616.286 3.93.327h1.509a38.042 38.042 0 003.93-.327l1.874-.28a62.577 62.577 0 0023.627-10.932c2.833-1.963 5.027-3.504 6.992-4.672a158.805 158.805 0 0120.154-4.672c26.872-5.139 39.257-12.847 47.3-29.432.229-.514.412-1.075.64-1.589a33.917 33.917 0 003.656-9.81c.541-3.208.725-6.468.548-9.718zm-11.242 15.791a38.565 38.565 0 01-11.608 12.474c-5.621 1.682-11.288 3.597-16.726 5.746-5.439 2.149-10.192 4.205-15.127 6.587a58.543 58.543 0 00-21.068 7.241 57.104 57.104 0 00-15.904 9.344 33.035 33.035 0 01-11.608 5.279 22.162 22.162 0 01-3.839.701c-.837.047-1.676.047-2.513 0-.822.047-1.646.047-2.468 0a22.162 22.162 0 01-3.839-.701 33.596 33.596 0 01-11.654-5.279 57.109 57.109 0 00-15.858-9.344 58.543 58.543 0 00-21.068-7.241c-4.936-2.382-10.054-4.672-15.127-6.587s-11.105-4.064-16.726-5.746a38.069 38.069 0 01-11.608-12.474 41.507 41.507 0 01-3.428-13.315c0-11.445 5.621-22.564 18.6-36.066 2.605-2.709 4.57-4.671 5.85-6.307a8.612 8.612 0 004.57 4.158 4.03 4.03 0 002.102 0 3.916 3.916 0 001.783-1.074c1.736-1.775 1.462-3.084.274-8.596a79.818 79.818 0 01-.64-30.46v-.701c2.743-10.258 9.068-19.133 17.778-24.947a14.896 14.896 0 017.738-2.506 14.861 14.861 0 017.891 1.945l11.745 17.753c1.783 4.251 2.697 6.4 5.256 6.914a3.713 3.713 0 002.011 0 3.645 3.645 0 001.691-1.074c1.736-1.776 1.645-4.672.822-8.456a60.04 60.04 0 00-2.011-7.335 80.712 80.712 0 015.576 9.344c2.056 4.017 3.565 6.867 6.946 6.026a4.246 4.246 0 002.426-1.737 4.421 4.421 0 00.728-2.935 39.515 39.515 0 00-4.57-13.688 23.635 23.635 0 014.981-1.261c1.715.237 3.4.66 5.027 1.261a39.702 39.702 0 00-4.57 13.688 4.752 4.752 0 00.821 2.893 4.578 4.578 0 002.378 1.779c3.382.841 4.89-2.009 6.947-6.026a80.984 80.984 0 015.529-9.344 69.746 69.746 0 00-2.01 7.335c-.777 3.924-.914 6.68.822 8.456a4.051 4.051 0 001.737 1.074 3.675 3.675 0 002.011 0c2.513-.514 3.427-2.663 5.255-6.914l12.157-17.753a14.95 14.95 0 017.913-1.943c2.762.099 5.445.964 7.762 2.504 8.71 5.814 15.034 14.689 17.777 24.947v.701a79.77 79.77 0 01-.776 30.413c-1.189 5.513-1.509 6.821 0 8.596.51.509 1.138.878 1.824 1.074a4.164 4.164 0 002.106.047 8.376 8.376 0 004.57-4.158c1.417 1.636 3.29 3.598 5.895 6.307 12.934 13.502 18.738 24.621 18.555 36.066a41.441 41.441 0 01-3.108 13.315zM185.32 85.926a27.414 27.414 0 00-3.885 4.672l-.639-.42-.732-.141a25.593 25.593 0 015.256-3.924v-.187zm-50.271 4.345l-.64.42a27.366 27.366 0 00-3.884-4.672 26.85 26.85 0 015.255 3.924l-.731.328z" fill="#212125"/><path d="M237.69 144.978c-2.605-1.962-2.833-2.289-3.199-1.261v-.421l-.777 1.215c-2.285 3.411-3.473 3.597-2.605.467a45.416 45.416 0 002.423-15.837 54.173 54.173 0 00-2.697-16.632c-4.57-19.714-14.624-30.74-30.528-32.702a26.873 26.873 0 00-14.733 1.84 27.528 27.528 0 00-11.636 9.419 27.56 27.56 0 00-15.995-2.476 27.787 27.787 0 00-15.813 2.523 27.528 27.528 0 00-11.616-9.406 26.872 26.872 0 00-14.707-1.853c-15.904 1.962-26.095 12.987-30.528 32.702a55.576 55.576 0 00-2.742 16.632 45.662 45.662 0 002.467 15.837c.823 3.13-.365 2.943-2.605-.467l-.776-1.215-.229.421c-.411-1.028-.594-.701-3.199 1.261-17.869 13.642-26.872 31.161-26.095 48.306.014 2.479.259 4.951.731 7.382a28.367 28.367 0 003.839 9.343c0 .281 0 .608.366.888 7.266 15.417 18.6 22.471 44.329 27.143a161.718 161.718 0 0120.931 4.672c2.148 1.308 4.57 2.943 7.586 5.045a59.159 59.159 0 0020.84 9.998l1.645.374h.274c.832.157 1.671.267 2.514.327h5.301a23.39 23.39 0 002.514-.327h.411l1.645-.374a58.857 58.857 0 0020.794-9.998c3.062-2.102 5.484-3.737 7.632-5.045a161.755 161.755 0 0120.931-4.672c25.684-4.905 37.063-11.866 44.513-27.283 0-.281 0-.608.365-.888a29.38 29.38 0 003.656-9.344c.421-2.404.62-4.845.594-7.287 1.051-17.099-7.952-34.618-25.821-48.307z" fill="#45A1FF"/><path d="M66.544 190.994h-.731a2.069 2.069 0 01-.594-.467 1.978 1.978 0 01-.412-.654 2.438 2.438 0 010-.795 19.782 19.782 0 011.874-7.381 19.993 19.993 0 014.57-6.073 17.498 17.498 0 015.912-3.888 17.217 17.217 0 016.93-1.205 13.09 13.09 0 015.275 1.313 13.343 13.343 0 014.322 3.359 1.903 1.903 0 01.457 1.448 1.865 1.865 0 01-.686 1.355 1.783 1.783 0 01-1.417.467 1.809 1.809 0 01-1.324-.7 9.163 9.163 0 00-3.108-2.43 9.794 9.794 0 00-3.793-1.027 13.787 13.787 0 00-5.484.887 14.246 14.246 0 00-4.57 3.037 14.66 14.66 0 00-3.61 4.672 15.497 15.497 0 00-1.463 5.839 2.172 2.172 0 01-.594 1.402 2.118 2.118 0 01-1.371.56l-.183.281zM247.016 190.995a2.126 2.126 0 01-1.371-.561 2.172 2.172 0 01-.594-1.402 15.502 15.502 0 00-1.462-5.839 15.337 15.337 0 00-3.611-4.672 13.277 13.277 0 00-4.57-3.037 13.42 13.42 0 00-5.438-.887 9.79 9.79 0 00-3.793 1.027 9.154 9.154 0 00-3.108 2.43 1.852 1.852 0 01-1.325.701 1.762 1.762 0 01-1.417-.468 1.853 1.853 0 01-.484-.602 1.913 1.913 0 01-.202-.752 2.09 2.09 0 01.412-1.449 14.148 14.148 0 014.57-3.457 13.167 13.167 0 015.301-1.401 17.198 17.198 0 017.032 1.071 17.487 17.487 0 016.038 3.834 19.999 19.999 0 014.571 6.073 19.775 19.775 0 011.873 7.382c.044.263.044.531 0 .794a2.992 2.992 0 01-.365.654 3.21 3.21 0 01-.64.467h-.731l-.686.094z" fill="#212125"/><path d="M155.34 243.785a85.601 85.601 0 01-26.14-4.251 104.733 104.733 0 01-26.827-13.735c-12.522-8.176-20.108-13.081-24.86-22.845-6.673-13.689-5.348-22.285-3.109-28.872a3.53 3.53 0 01.457-.934 2.69 2.69 0 01.823-.607 1.89 1.89 0 01.96-.281 2.695 2.695 0 011.05 0c.316.142.608.331.87.561.249.22.451.49.593.794.155.322.248.67.275 1.028.069.339.069.689 0 1.028-1.966 5.839-2.88 12.94 2.879 24.853 4.113 8.41 10.83 12.801 22.85 20.743a97.06 97.06 0 0025.455 13.128c22.622 6.961 40.72 5.045 71.75-7.568 17.915-7.288 25.09-15.184 26.827-17.426 9.597-12.24 6.078-27.657 4.57-33.497a2.659 2.659 0 01.32-1.962 2.657 2.657 0 011.599-1.215 2.505 2.505 0 011.957.315c.289.183.54.422.737.705.198.283.339.604.414.943 1.462 6.493 5.484 23.779-5.713 38.028-2.513 3.177-10.374 11.446-28.928 19.014-19.834 8.222-34.687 12.053-48.809 12.053z" fill="#212125"/><path fill-rule="evenodd" clip-rule="evenodd" d="M129.108 169.411a10.488 10.488 0 00-6.673 3.597 10.75 10.75 0 00-2.605 7.241c0 3.878 1.097 5.793 1.417 2.476 1.28-13.361 16.361-13.454 23.353 0 1.463 2.71 1.92 2.29 1.143-.981-.987-3.676-3.176-6.896-6.203-9.123a16.067 16.067 0 00-10.432-3.117" fill="#212125"/><path d="M120.654 184.827c-1.28 0-1.28-4.111-1.28-4.671a11.124 11.124 0 012.697-7.475 10.8 10.8 0 016.946-3.691 16.463 16.463 0 0110.684 3.187c3.101 2.277 5.346 5.571 6.362 9.333.595 2.43.458 3.037 0 3.177-.457.14-.868 0-1.828-1.962-4.158-7.895-10.693-10.511-15.355-9.344a9.489 9.489 0 00-5.23 3.385 9.85 9.85 0 00-2.082 5.959c0 .981-.229 2.102-.914 2.102zm8.5-14.996a10.07 10.07 0 00-6.548 3.396 10.503 10.503 0 00-2.592 7.022 10.56 10.56 0 00.457 3.551c.12-.38.197-.771.229-1.168a10.757 10.757 0 012.233-6.505 10.358 10.358 0 015.673-3.727 15.714 15.714 0 019.688 2.295 16.251 16.251 0 016.49 7.703c.228.42.503.841.777 1.261a9.837 9.837 0 00-.366-1.962 16.22 16.22 0 00-6.01-8.865 15.616 15.616 0 00-10.122-3.048l.091.047z" fill="#212125"/><path fill-rule="evenodd" clip-rule="evenodd" d="M130.571 177.352a7.276 7.276 0 00-2.425 4.089 7.386 7.386 0 00.597 4.741c.502.561.639.421.777-1.074.274-3.177 1.142-4.952 2.422-4.952.548 0 .594 0 .502.373-1.416 3.224 1.28 10.605 5.576 15.184l1.097 1.214h-.732a6.934 6.934 0 01-4.341-2.149c-1.554-1.448-2.148-.887-.914.841 4.57 6.307 10.602 4.672 10.648-2.803 0-8.876-8.317-18.687-13.207-15.65" fill="#212125"/><path d="M138.934 200.011a8.104 8.104 0 01-3.513-1.259 8.317 8.317 0 01-2.611-2.712c-.777-1.075-.96-1.775-.548-2.149.411-.374 1.096 0 2.056.794a6.624 6.624 0 003.976 2.056l-.594-.701c-4.57-4.672-7.084-12.007-5.758-15.51-1.006 0-1.783 1.728-2.057 4.671 0 1.122 0 1.635-.594 1.776-.594.14-.64-.234-.868-.468a5.568 5.568 0 01-.847-2.062 5.63 5.63 0 01.024-2.236 7.5 7.5 0 01.86-2.833 7.337 7.337 0 011.882-2.259 4.949 4.949 0 012.73-.686 4.962 4.962 0 012.663.92 19.182 19.182 0 016.087 6.794 19.68 19.68 0 012.322 8.903 6.71 6.71 0 01-.743 4.058 6.502 6.502 0 01-2.959 2.809 4.439 4.439 0 01-1.371 0l-.137.094zm-6.215-5.513c.154.353.353.683.594.981 2.01 2.897 4.57 4.252 6.763 3.551 2.194-.701 3.428-2.99 3.428-6.12a19.002 19.002 0 00-2.245-8.494 18.547 18.547 0 00-5.798-6.503 4.487 4.487 0 00-4.57-.28 6.466 6.466 0 00-1.673 2.079 6.606 6.606 0 00-.704 2.593 4.769 4.769 0 00.64 3.644 7.01 7.01 0 010-.794c.32-3.411 1.325-5.326 2.833-5.326.32 0 .64 0 .823.28a.483.483 0 010 .327.386.386 0 010 .327c-1.325 3.083 1.325 10.278 5.484 14.81l1.554 1.728-1.417.281a7.298 7.298 0 01-4.57-2.243 3.203 3.203 0 00-1.005-.841h-.137z" fill="#212125"/><path fill-rule="evenodd" clip-rule="evenodd" d="M146.84 193.658c0 .513 0 .981-.229 1.494-.639 7.148-4.341 11.213-9.14 9.951-2.468-.7-2.742-.56-1.325.561 4.159 3.27 9.14 0 11.059-6.54.595-2.523 0-6.821-.548-5.466" fill="#212125"/><path d="M139.894 207.392a6.447 6.447 0 01-3.839-1.401c-.686-.561-1.143-.981-.914-1.402.228-.42.685-.42 2.605 0a4.913 4.913 0 002.331 0 5.398 5.398 0 002.193-.934 11.95 11.95 0 002.896-3.962 12.17 12.17 0 001.08-4.821 6.391 6.391 0 010-1.635c.32-.561.686-.514.777-.421 1.005.374.914 4.345.457 6.12a10.819 10.819 0 01-2.026 4.672 10.513 10.513 0 01-3.915 3.177c-.6.226-1.235.336-1.874.327l.229.28zm-3.565-2.008h.229c.682.589 1.5.991 2.376 1.167a5.44 5.44 0 002.605 0 9.954 9.954 0 003.606-2.992 10.242 10.242 0 001.878-4.342 13.879 13.879 0 000-4.672v.934a12.794 12.794 0 01-1.166 5.144 12.541 12.541 0 01-3.13 4.2 6.054 6.054 0 01-2.468 1.028 5.875 5.875 0 01-2.696 0l-1.234-.467z" fill="#212125"/><path fill-rule="evenodd" clip-rule="evenodd" d="M177.368 169.411a16.01 16.01 0 00-10.412 3.121c-3.019 2.227-5.2 5.446-6.177 9.119-.823 3.27-.32 3.691 1.097.981 6.992-13.361 22.073-13.268 23.353 0 .32 3.317 1.462 1.401 1.416-2.476a10.695 10.695 0 00-2.559-7.241 10.715 10.715 0 00-6.718-3.598" fill="#212125"/><path d="M185.777 184.828c-.64 0-.868-1.121-.96-2.056a9.807 9.807 0 00-2.054-5.954 9.439 9.439 0 00-5.212-3.389 14.906 14.906 0 00-9.216 2.211 15.42 15.42 0 00-6.139 7.366c-.96 1.822-1.417 2.102-1.828 1.962-.412-.14-.595-.794 0-3.224 1.016-3.762 3.261-7.056 6.362-9.333a16.469 16.469 0 0110.684-3.187 10.852 10.852 0 016.924 3.717 11.309 11.309 0 012.719 7.495c0 .468 0 4.672-1.234 4.672l-.046-.28zm-10.283-12.567a9.388 9.388 0 012.011 0 10.444 10.444 0 015.682 3.73 10.848 10.848 0 012.27 6.501 4.474 4.474 0 000 1.121c.359-1.146.514-2.348.457-3.55a10.411 10.411 0 00-2.583-7.016 9.982 9.982 0 00-6.557-3.356 15.637 15.637 0 00-9.949 3.362 16.244 16.244 0 00-5.726 8.972 14.154 14.154 0 00-.366 1.915c.296-.396.556-.818.777-1.261a17.188 17.188 0 015.585-7.183 16.65 16.65 0 018.399-3.235z" fill="#212125"/><path fill-rule="evenodd" clip-rule="evenodd" d="M176.317 177.352c-4.936-3.13-13.253 6.775-13.208 15.651 0 7.475 6.17 9.344 10.649 2.803 1.234-1.775.639-2.289-.96-.841a7.116 7.116 0 01-4.296 2.149h-.731l1.097-1.215c4.295-4.671 6.992-12.006 5.575-15.183 0-.327 0-.374.457-.374 1.28 0 2.194 1.776 2.468 4.953 0 1.494.228 1.635.777 1.027a7.338 7.338 0 00.591-4.719 7.223 7.223 0 00-2.419-4.064" fill="#212125"/><path d="M167.817 200.012a4.754 4.754 0 01-1.463-.234 6.497 6.497 0 01-2.959-2.809 6.71 6.71 0 01-.743-4.058 19.97 19.97 0 012.423-8.822 19.462 19.462 0 016.078-6.735 5.071 5.071 0 015.347-.28 7.2 7.2 0 011.901 2.273c.472.885.759 1.861.841 2.866a5.34 5.34 0 01-.823 4.251s-.503.607-.868.467c-.366-.14-.503-.607-.594-1.728 0-2.897-1.006-4.672-2.057-4.672 1.28 3.55-1.417 10.792-5.712 15.463l-.64.654a6.487 6.487 0 003.976-2.055c1.005-.841 1.691-1.121 2.102-.794.411.327 0 1.121-.548 2.195a8.47 8.47 0 01-2.673 2.755 8.246 8.246 0 01-3.588 1.263zm6.443-22.938a6.245 6.245 0 00-2.742.794 18.971 18.971 0 00-5.764 6.547 19.43 19.43 0 00-2.279 8.496c0 3.177 1.188 5.419 3.153 6.073 1.965.654 4.57-.654 6.764-3.504.225-.325.423-.669.594-1.027a3.665 3.665 0 00-.96.7 7.205 7.205 0 01-4.57 2.243l-1.462-.28 1.599-1.729c4.205-4.672 6.856-11.726 5.485-14.81a.899.899 0 010-.327.647.647 0 010-.327c0-.28.548-.28.822-.28 1.554 0 2.559 1.869 2.834 5.326v.794a4.733 4.733 0 00.688-1.754c.11-.627.093-1.27-.049-1.89a6.917 6.917 0 00-2.33-4.672 3.556 3.556 0 00-1.828-.467l.045.094z" fill="#212125"/><path fill-rule="evenodd" clip-rule="evenodd" d="M159.636 193.658c-.777-1.355-1.142 2.943-.502 5.465 1.69 6.775 6.855 9.811 11.013 6.541 1.463-1.121 1.143-1.261-1.325-.561-4.57 1.262-8.317-2.803-9.14-9.951a8.471 8.471 0 000-1.494" fill="#212125"/><path d="M166.583 207.393a6.926 6.926 0 01-1.92-.327 10.694 10.694 0 01-3.896-3.192 11.007 11.007 0 01-2.045-4.657c-.457-1.775-.502-5.793.457-6.167 0 0 .503 0 .777.421a9.53 9.53 0 01.275 1.635c.012 1.676.373 3.33 1.059 4.852a11.803 11.803 0 002.916 3.978 5.289 5.289 0 002.202.905 5.234 5.234 0 002.369-.158c1.919-.514 2.376-.56 2.604 0 .229.561-.228.794-.959 1.402a6.266 6.266 0 01-3.839 1.308zm-7.221-13.175c-.3 1.543-.3 3.13 0 4.672a9.977 9.977 0 001.86 4.338 9.69 9.69 0 003.624 2.95 4.921 4.921 0 002.605 0 5.705 5.705 0 002.377-1.168l-1.189.327a6.514 6.514 0 01-2.696 0 6.155 6.155 0 01-2.468-1.074 12.652 12.652 0 01-3.122-4.204 12.9 12.9 0 01-1.174-5.14c.275-.093.229-.42.183-.701z" fill="#212125"/><path d="M209.404 55.372c15.995 2.523 30.711 18.687 33.499 42.046 4.067 33.917-10.283 60.733-46.889 51.063-40.72-10.932-44.695-32.142-30.894-63.303 9.506-21.444 28.243-32.329 44.284-29.806z" fill="#fff"/><path d="M231.798 109.332a35.92 35.92 0 0110.785 6.68c.8-6.202.8-12.485 0-18.687-2.788-23.359-17.503-39.383-33.499-42.046-15.995-2.663-34.778 8.363-44.284 29.713a71.197 71.197 0 00-3.016 9.203 70.894 70.894 0 0121.982-1.308 80.378 80.378 0 0112.019 2.336 97.706 97.706 0 0116.727 4.672 88.414 88.414 0 0119.286 9.437z" fill="#45A1FF"/><path d="M230.335 108.257c.549.374 1.188.701 1.691 1.122a34.366 34.366 0 0110.831 6.68 73.413 73.413 0 000-18.687c-2.788-23.359-17.503-39.383-33.544-42.046-8.081-1-16.254.845-23.17 5.233a29.874 29.874 0 0110.191 0c15.995 2.476 30.711 18.687 33.498 42.046.288 1.871.456 3.759.503 5.652zM159.636 125.076c1.554 10.698 3.245 17.566 7.769 21.35 3.199 2.663 8.18 2.756 17.778 3.504 5.123-.006 10.239.369 15.309 1.121 6.947 1.542 8.363 3.504 11.882 4.018 4.982.654 12.66-1.963 23.902-17.987H235.499a39.387 39.387 0 00-4.296-1.962c-.685-.234-1.325-.42-1.965-.701H228.187a83.367 83.367 0 00-9.597-1.962c-6.992-1.215-13.71-2.336-20.84-3.737a205.891 205.891 0 00-21.296-3.271c-1.691 0-3.291-.233-4.982-.327a6.828 6.828 0 00-1.371 0h-2.102c-2.798.056-5.59.274-8.363.655v-.701z" fill="#45A1FF"/><path d="M173.529 153.994c5.429 5.228 12.311 8.607 19.697 9.67 19.331 3.037 34.778-9.11 43.187-26.582l-.777-.374a70.81 70.81 0 00-4.296-1.962l-1.965-.654a.403.403 0 00-.274 0h-.777l-3.702-.888c-8.683 15.931-23.49 26.676-41.816 23.78a39.951 39.951 0 01-9.14-2.663l-.137-.327z" fill="#45A1FF"/><path d="M163.703 144.183a71.039 71.039 0 01-6.859-29.94 71.06 71.06 0 016.402-30.045c9.415-20.977 28.426-33.684 46.432-30.834 18.006 2.85 32.493 20.79 35.19 43.68a71.021 71.021 0 01-2.685 30.55c-3.107 9.852-8.326 18.872-15.276 26.4-9.642 9.624-16.36-.561-28.928-2.57-12.568-2.008-27.832 4.906-34.276-7.241zm3.154-58.257a67.02 67.02 0 00-6.04 28.208 66.977 66.977 0 006.36 28.134c5.804 10.885 19.103 4.672 30.482 6.307 11.379 1.635 17.686 11.165 26.369 2.616 6.536-7.085 11.442-15.573 14.36-24.843a66.801 66.801 0 002.504-28.742c-2.559-21.117-15.584-37.375-31.991-40.131-16.406-2.756-33.498 9.343-42.227 28.451h.183z" fill="#212125"/><path d="M213.197 130.308a28.336 28.336 0 005.987-13.688 27.99 27.99 0 00-1.828-15.09c-3.793-1.355-7.449-2.99-11.242-4.252a56.051 56.051 0 00-10.42-1.495 11.992 11.992 0 01-6.033-1.541c-2.879-1.449-4.57 0-6.306 1.775a28.313 28.313 0 00-6.261 14.015 27.965 27.965 0 002.193 15.931c5.073 0 10.146 0 15.173.467a82.371 82.371 0 0118.737 3.738v.14z" fill="#45A1FF"/><path d="M208.033 115.218a14.301 14.301 0 00-1.005-7.942 13.96 13.96 0 00-4.81-6.091 13.508 13.508 0 00-7.255-2.505 13.016 13.016 0 00-7.449 1.729 13.861 13.861 0 00-5.439 5.512 14.56 14.56 0 00-1.782 7.569c.03 2.789.873 5.505 2.422 7.802a13.989 13.989 0 005.85 4.671c2.011 0 3.976 0 5.941.327 1.188 0 2.422 0 3.564.374a13.668 13.668 0 006.693-4.285 14.155 14.155 0 003.27-7.348v.187z" fill="#212125"/><path d="M193.271 118.909a4.5 4.5 0 002.539-.787 4.645 4.645 0 001.683-2.097 4.761 4.761 0 00.26-2.699 4.698 4.698 0 00-1.25-2.392 4.536 4.536 0 00-2.34-1.279 4.478 4.478 0 00-2.641.266 4.597 4.597 0 00-2.051 1.721 4.745 4.745 0 00-.77 2.595c0 1.239.482 2.427 1.339 3.304a4.52 4.52 0 003.231 1.368zM210.913 129.561c3.675-4.327 5.887-9.75 6.307-15.464-.974 5.772-3.824 11.04-8.09 14.95l1.783.514z" fill="#fff"/><path d="M159.636 94.336c46.249-4.252 85.506 23.358 84.912 22.751-44.056-41.252-84.912-22.751-84.912-22.751zM157.945 125.964c35.327-11.586 78.331 11.072 78.331 11.072-58.543-15.23-78.331-11.072-78.331-11.072z" fill="#212125"/><path d="M145.241 93.495c10.054 28.265-1.737 52.838-30.528 55.081-28.792 2.242-44.33-20.229-38.48-49.708 3.976-20.229 17.96-33.357 31.99-34.478 14.03-1.121 30.117 9.764 37.018 29.105z" fill="#fff"/><path d="M102.693 103.258a82.635 82.635 0 0114.99-2.943 68.767 68.767 0 0110.74-1.261 63.448 63.448 0 0119.148 2.662 64.23 64.23 0 00-2.239-8.222c-6.947-19.294-22.851-30.133-36.881-29.012-14.03 1.122-28.151 14.25-31.99 34.385a63.775 63.775 0 00-1.005 16.398 30.912 30.912 0 019.916-5.093 75.824 75.824 0 0117.321-6.914z" fill="#45A1FF"/><path d="M87.384 104.1c3.975-20.182 17.96-33.31 31.99-34.431 2.993-.228 6.002.04 8.912.794-5.812-4.27-12.87-6.394-20.017-6.027-14.213 1.122-28.152 14.25-31.99 34.478a63.539 63.539 0 00-1.052 16.398 30.553 30.553 0 019.917-5.139l1.554-.794c.136-1.771.364-3.533.686-5.279zM140.122 127.786h-7.587c-6.31.14-12.61.608-18.874 1.402-6.215.747-12.339 1.308-18.555 1.822a76.077 76.077 0 00-8.545 1.074h-.686a.31.31 0 00-.137-.031.31.31 0 00-.137.031l-1.737.467a39.285 39.285 0 00-3.93 1.402l-.686.28c3.748 9.344 5.302 15.791 9.598 18.454 3.381 2.055 7.22 1.214 13.71.42 8.591-1.074 8.911-2.99 15.538-3.644 10.237-.981 12.202 3.364 18.28.794 5.347-2.195 6.81-7.755 8.181-13.034.868-3.504 2.97-6.447 2.65-8.316a53.81 53.81 0 00-7.266-1.168l.183.047z" fill="#45A1FF"/><path d="M125.224 155.115c-16.27 1.262-28.563-9.343-35.099-23.732-1.096 0-2.239.28-3.336.514a2.91 2.91 0 00-.685 0h-.229l-1.782.467a39.708 39.708 0 00-3.93 1.448l-.686.234c6.261 15.884 19.012 27.61 36.195 26.302 6.547-.448 12.802-2.944 17.915-7.148a34.208 34.208 0 01-8.363 1.729v.186z" fill="#45A1FF"/><path d="M116.084 151.892c-11.243.234-21.8 7.008-29.614-2.102a61.754 61.754 0 01-11.739-24.295 62.529 62.529 0 01-.326-27.095c3.93-19.855 17.777-34.617 33.773-35.879 15.995-1.261 31.99 11.212 38.662 30.227a62.346 62.346 0 013.662 26.782 62.071 62.071 0 01-8.003 25.775c-5.85 10.091-3.565 6.167-26.415 6.587zm-7.541-85.633c-14.441 1.12-26.918 14.669-30.528 32.982a58.948 58.948 0 00.31 25.379 58.221 58.221 0 0010.932 22.787c7.038 8.129 15.356 1.916 25.456 1.168 10.1-.747 19.148 4.065 24.998-5.092a58.907 58.907 0 007.315-24.255 59.157 59.157 0 00-3.522-25.126c-6.215-17.519-20.657-28.871-34.961-27.843z" fill="#212125"/><path d="M116.769 127.833c4.57 0 9.14.233 13.39.607a25.405 25.405 0 002.947-13.504 25.309 25.309 0 00-4.546-13.032c-1.417-1.542-2.788-3.083-5.439-2.009a10.267 10.267 0 01-5.392.935 51.3 51.3 0 00-9.14.56c-3.382.888-6.718 2.056-10.146 2.99a24.089 24.089 0 00-2.513 13.128 24.995 24.995 0 004.57 12.38 68.683 68.683 0 0116.635-2.055h-.366z" fill="#45A1FF"/><path d="M113.615 127.926h8.364a12.3 12.3 0 006.572-5.384 12.747 12.747 0 001.618-8.449 12.597 12.597 0 00-4.102-7.52 12.093 12.093 0 00-7.882-3.034 11.543 11.543 0 00-6.535 1.729 12.091 12.091 0 00-4.57 4.999 12.232 12.232 0 00-1.371 6.727 12.405 12.405 0 002.377 6.681 12.276 12.276 0 005.575 4.251h-.046z" fill="#212125"/><path d="M118.643 121.291a3.777 3.777 0 002.12-.684 3.913 3.913 0 001.394-1.77 4.015 4.015 0 00.2-2.264 3.96 3.96 0 00-1.061-1.997 3.818 3.818 0 00-1.967-1.061 3.76 3.76 0 00-2.211.231 3.854 3.854 0 00-1.716 1.446 4.003 4.003 0 00-.347 3.688c.196.479.482.913.844 1.278.361.366.79.654 1.261.848.471.194.975.291 1.483.285zM103.786 129.046c-3.411-3.766-5.513-8.577-5.983-13.688a24 24 0 004.567 14.015l1.416-.327z" fill="#fff"/><path d="M73.537 116.9c-.549.514 37.337-24.013 75.954-14.669 0-.047-30.756-25.508-75.954 14.669zM78.38 134.98s37.704-19.668 70.197-5.092c0 0-20.52-5.233-70.196 5.092zM141.294 200.548c3.41-1.741 3.733-8.148.721-14.311-3.011-6.163-8.216-9.748-11.625-8.007-3.41 1.741-3.733 8.148-.722 14.311s8.216 9.748 11.626 8.007zM177.264 191.17c2.945-6.196 2.553-12.6-.875-14.302-3.428-1.703-8.594 1.941-11.539 8.137-2.945 6.197-2.553 12.6.875 14.302 3.428 1.703 8.594-1.94 11.539-8.137z" fill="#212125"/><path d="M366.97 115.581c-.454 6.273-2.776 11.211-6.967 14.815-4.164 3.603-9.663 5.405-16.496 5.405-7.474 0-13.36-2.509-17.657-7.528-4.271-5.044-6.407-11.958-6.407-20.74v-3.563c0-5.606.988-10.544 2.963-14.815 1.976-4.27 4.792-7.54 8.448-9.81 3.684-2.295 7.955-3.443 12.813-3.443 6.727 0 12.145 1.802 16.256 5.406 4.111 3.603 6.486 8.661 7.127 15.174h-12.012c-.294-3.763-1.348-6.486-3.163-8.168-1.788-1.708-4.524-2.562-8.208-2.562-4.004 0-7.007 1.441-9.009 4.324-1.975 2.856-2.989 7.3-3.043 13.333v4.404c0 6.3.948 10.904 2.843 13.814 1.922 2.909 4.938 4.364 9.049 4.364 3.71 0 6.473-.841 8.288-2.522 1.842-1.709 2.896-4.338 3.163-7.888h12.012zm18.418-19.179c3.069-3.683 6.926-5.525 11.571-5.525 9.396 0 14.16 5.459 14.294 16.376V135h-11.571v-27.427c0-2.482-.534-4.311-1.602-5.485-1.068-1.201-2.843-1.802-5.325-1.802-3.39 0-5.846 1.308-7.367 3.924V135h-11.572V73.5h11.572v22.902zM445.086 135c-.534-1.041-.921-2.336-1.161-3.884-2.803 3.123-6.446 4.685-10.931 4.685-4.244 0-7.767-1.228-10.57-3.684-2.776-2.456-4.164-5.552-4.164-9.289 0-4.591 1.695-8.114 5.085-10.57 3.416-2.456 8.341-3.697 14.774-3.724h5.325v-2.482c0-2.002-.52-3.604-1.561-4.805-1.015-1.201-2.629-1.802-4.845-1.802-1.948 0-3.483.467-4.604 1.402-1.095.934-1.642 2.215-1.642 3.843h-11.571c0-2.509.774-4.831 2.322-6.966 1.548-2.136 3.737-3.804 6.566-5.005 2.83-1.228 6.006-1.842 9.53-1.842 5.338 0 9.569 1.348 12.692 4.044 3.15 2.67 4.725 6.433 4.725 11.291v18.778c.026 4.111.6 7.221 1.721 9.329V135h-11.691zm-9.569-8.048c1.708 0 3.283-.374 4.724-1.121 1.442-.774 2.509-1.802 3.203-3.083v-7.447h-4.324c-5.792 0-8.875 2.002-9.249 6.006l-.04.68c0 1.442.507 2.63 1.522 3.564 1.014.934 2.402 1.401 4.164 1.401zm39.278-35.274l.36 4.844c3.07-3.763 7.221-5.645 12.452-5.645 5.579 0 9.41 2.202 11.492 6.606 3.043-4.404 7.38-6.606 13.012-6.606 4.698 0 8.195 1.375 10.491 4.124 2.295 2.723 3.443 6.833 3.443 12.332V135h-11.611v-27.627c0-2.456-.481-4.244-1.442-5.365-.961-1.148-2.656-1.722-5.085-1.722-3.47 0-5.872 1.655-7.207 4.965l.04 29.749h-11.571v-27.587c0-2.509-.494-4.324-1.481-5.445-.988-1.121-2.67-1.682-5.045-1.682-3.284 0-5.659 1.361-7.127 4.084V135h-11.572V91.678h10.851zm80.118 44.123c-6.353 0-11.531-1.949-15.535-5.846-3.977-3.897-5.966-9.089-5.966-15.575v-1.121c0-4.351.841-8.235 2.523-11.652 1.681-3.443 4.057-6.085 7.127-7.927 3.096-1.869 6.619-2.803 10.57-2.803 5.926 0 10.583 1.868 13.973 5.605 3.417 3.737 5.125 9.036 5.125 15.896v4.725h-27.586c.373 2.829 1.494 5.098 3.363 6.806 1.895 1.709 4.284 2.563 7.167 2.563 4.458 0 7.941-1.615 10.45-4.845l5.686 6.366c-1.735 2.456-4.084 4.378-7.047 5.766-2.963 1.361-6.246 2.042-9.85 2.042zm-1.321-35.555c-2.296 0-4.164.774-5.606 2.322-1.414 1.549-2.322 3.764-2.722 6.647h16.095v-.921c-.053-2.563-.747-4.538-2.082-5.926-1.334-1.415-3.229-2.122-5.685-2.122zM591.549 135h-11.611V73.5h11.611V135zm54.213-48.567h-17.858V135h-12.011V86.433h-17.618v-9.73h47.487v9.73zm-4.004 26.505c0-4.297.827-8.127 2.482-11.491 1.655-3.363 4.031-5.966 7.127-7.807 3.123-1.842 6.74-2.763 10.851-2.763 5.845 0 10.61 1.788 14.294 5.365 3.71 3.577 5.779 8.435 6.206 14.574l.08 2.963c0 6.647-1.855 11.985-5.566 16.016-3.71 4.004-8.688 6.006-14.934 6.006-6.246 0-11.238-2.002-14.975-6.006-3.71-4.004-5.565-9.449-5.565-16.336v-.521zm11.571.841c0 4.111.774 7.261 2.322 9.45 1.549 2.162 3.764 3.243 6.647 3.243 2.803 0 4.991-1.068 6.566-3.203 1.575-2.163 2.363-5.606 2.363-10.331 0-4.03-.788-7.153-2.363-9.369-1.575-2.215-3.79-3.323-6.646-3.323-2.83 0-5.018 1.108-6.567 3.323-1.548 2.189-2.322 5.592-2.322 10.21zm47.246-22.101l.361 5.005c3.096-3.87 7.247-5.806 12.452-5.806 4.591 0 8.008 1.348 10.25 4.044 2.242 2.696 3.39 6.726 3.443 12.092V135H715.51v-27.707c0-2.456-.534-4.231-1.602-5.325-1.068-1.121-2.843-1.682-5.325-1.682-3.257 0-5.699 1.388-7.327 4.164V135h-11.571V91.678h10.89zm55.254 44.123c-6.353 0-11.531-1.949-15.535-5.846-3.977-3.897-5.966-9.089-5.966-15.575v-1.121c0-4.351.841-8.235 2.523-11.652 1.681-3.443 4.057-6.085 7.127-7.927 3.096-1.869 6.619-2.803 10.57-2.803 5.926 0 10.584 1.868 13.973 5.605 3.417 3.737 5.125 9.036 5.125 15.896v4.725H746.06c.373 2.829 1.494 5.098 3.363 6.806 1.895 1.709 4.284 2.563 7.167 2.563 4.458 0 7.941-1.615 10.45-4.845l5.686 6.366c-1.735 2.456-4.084 4.378-7.047 5.766-2.963 1.361-6.246 2.042-9.85 2.042zm-1.321-35.555c-2.296 0-4.164.774-5.606 2.322-1.414 1.549-2.322 3.764-2.722 6.647h16.095v-.921c-.053-2.563-.747-4.538-2.082-5.926-1.334-1.415-3.229-2.122-5.685-2.122zm-431.178 63.16l8.367 20.883 8.367-20.883h4.377V189h-3.375v-9.967l.317-10.758L332.98 189h-2.584l-8.384-20.672.334 10.705V189h-3.375v-25.594h4.359zm34.453 25.946c-2.578 0-4.676-.844-6.293-2.532-1.617-1.699-2.426-3.966-2.426-6.802v-.598c0-1.887.358-3.568 1.073-5.045.726-1.488 1.734-2.648 3.023-3.48 1.301-.844 2.707-1.266 4.219-1.266 2.473 0 4.394.814 5.766 2.443 1.371 1.629 2.056 3.961 2.056 6.996v1.354h-12.885c.047 1.875.592 3.392 1.635 4.553 1.055 1.148 2.391 1.722 4.008 1.722 1.148 0 2.121-.234 2.918-.703a7.345 7.345 0 002.092-1.863l1.986 1.547c-1.594 2.449-3.984 3.674-7.172 3.674zm-.404-17.051c-1.313 0-2.414.48-3.305 1.441-.89.949-1.441 2.285-1.652 4.008h9.527v-.246c-.094-1.652-.539-2.93-1.336-3.832-.797-.914-1.875-1.371-3.234-1.371zM384.52 189h-3.252v-8.121h-8.737V189h-3.269v-19.02h3.269v8.245h8.737v-8.245h3.252V189zm19.775-19.02V189h-3.27v-7.4h-4.904l-4.482 7.4h-3.516l4.781-7.893c-1.218-.445-2.156-1.13-2.812-2.056-.645-.938-.967-2.028-.967-3.27 0-1.734.65-3.129 1.951-4.183 1.301-1.067 3.041-1.606 5.221-1.618h7.998zm-11.9 5.836c0 .926.316 1.676.949 2.25.633.563 1.47.85 2.513.862h5.168v-6.311h-4.675c-1.207 0-2.168.299-2.883.897-.715.586-1.072 1.353-1.072 2.302zm29.425-5.836h3.252V189h-3.252v-13.869L413.049 189h-3.252v-19.02h3.252v13.887l8.771-13.887zm.879-6.925c0 1.418-.486 2.56-1.459 3.427-.961.856-2.226 1.284-3.797 1.284-1.57 0-2.841-.434-3.814-1.301-.973-.867-1.459-2.004-1.459-3.41h2.654c0 .82.223 1.465.668 1.933.446.457 1.096.686 1.951.686.821 0 1.459-.229 1.916-.686.469-.457.703-1.101.703-1.933h2.637zm30.656 9.562h-6.38V189h-3.252v-16.383h-6.258v-2.637h15.89v2.637zm9.651 16.735c-2.578 0-4.676-.844-6.293-2.532-1.617-1.699-2.426-3.966-2.426-6.802v-.598c0-1.887.358-3.568 1.072-5.045.727-1.488 1.735-2.648 3.024-3.48 1.301-.844 2.707-1.266 4.219-1.266 2.472 0 4.394.814 5.765 2.443 1.371 1.629 2.057 3.961 2.057 6.996v1.354h-12.885c.047 1.875.592 3.392 1.635 4.553 1.055 1.148 2.39 1.722 4.008 1.722 1.148 0 2.121-.234 2.918-.703a7.34 7.34 0 002.091-1.863l1.987 1.547c-1.594 2.449-3.985 3.674-7.172 3.674zm-.404-17.051c-1.313 0-2.414.48-3.305 1.441-.891.949-1.442 2.285-1.652 4.008h9.527v-.246c-.094-1.652-.539-2.93-1.336-3.832-.797-.914-1.875-1.371-3.234-1.371zm22.552 12.392l6.469-14.713h4.061V189h-3.252v-13.834L486.279 189h-2.25l-6.275-14.133V189h-3.252v-19.02h4.219l6.433 14.713zm19.319-8.156h4.939c2.156.024 3.861.586 5.115 1.688 1.254 1.101 1.881 2.595 1.881 4.482 0 1.898-.644 3.422-1.933 4.57-1.289 1.149-3.024 1.723-5.204 1.723h-8.05v-19.02h3.252v6.557zM523.193 189h-3.269v-19.02h3.269V189zm-18.72-9.809v7.155h4.834c1.218 0 2.162-.311 2.83-.932.668-.633 1.002-1.494 1.002-2.584 0-1.055-.328-1.916-.985-2.584-.644-.68-1.552-1.031-2.724-1.055h-4.957zm48.92-9.211V189h-3.27v-16.33h-6.469l-.386 7.119c-.211 3.27-.762 5.607-1.653 7.014-.879 1.406-2.279 2.138-4.201 2.197h-1.301v-2.865l.932-.071c1.055-.117 1.81-.726 2.267-1.828.458-1.101.75-3.14.879-6.117l.352-8.139h12.85zm8.771 8.069h4.57c.246-2.531 1.143-4.565 2.69-6.1 1.558-1.547 3.521-2.32 5.888-2.32 2.485 0 4.518.838 6.1 2.514 1.582 1.675 2.438 3.855 2.567 6.539l.017 1.019c0 1.852-.363 3.522-1.09 5.01-.726 1.488-1.746 2.637-3.058 3.445-1.313.797-2.813 1.196-4.5 1.196-2.45 0-4.453-.797-6.012-2.391-1.559-1.606-2.432-3.686-2.619-6.24h-4.553V189h-3.252v-19.02h3.252v8.069zm7.77 1.652c0 2.11.486 3.803 1.459 5.08.984 1.278 2.302 1.916 3.955 1.916 1.652 0 2.959-.65 3.92-1.951.972-1.301 1.459-3.111 1.459-5.432 0-2.074-.493-3.761-1.477-5.062-.984-1.301-2.297-1.951-3.938-1.951-1.617 0-2.917.638-3.902 1.916-.984 1.277-1.476 3.105-1.476 5.484zm26.42-8.631c2.39 0 4.3.803 5.73 2.409 1.441 1.593 2.162 3.697 2.162 6.31v.299c0 1.793-.346 3.398-1.037 4.816-.691 1.407-1.688 2.502-2.988 3.287-1.289.774-2.778 1.161-4.465 1.161-2.555 0-4.611-.85-6.17-2.549-1.559-1.711-2.338-4.002-2.338-6.873v-1.582c0-3.996.738-7.172 2.215-9.528 1.488-2.355 3.68-3.791 6.574-4.306 1.641-.293 2.748-.651 3.322-1.073.575-.421.862-1.002.862-1.74h2.672c0 1.465-.334 2.608-1.002 3.428-.657.82-1.711 1.4-3.164 1.74l-2.426.545c-1.934.457-3.387 1.231-4.36 2.32-.961 1.078-1.587 2.52-1.88 4.325 1.722-1.993 3.82-2.989 6.293-2.989zm-.633 2.672c-1.594 0-2.86.539-3.797 1.617-.938 1.067-1.406 2.549-1.406 4.448v.281c0 2.039.468 3.656 1.406 4.851.949 1.184 2.226 1.776 3.832 1.776 1.617 0 2.894-.598 3.832-1.793.937-1.195 1.406-2.942 1.406-5.238 0-1.793-.474-3.229-1.424-4.307-.937-1.09-2.22-1.635-3.849-1.635zm15.732 2.795h4.94c2.156.024 3.861.586 5.115 1.688 1.254 1.101 1.881 2.595 1.881 4.482 0 1.898-.645 3.422-1.934 4.57-1.289 1.149-3.023 1.723-5.203 1.723h-8.051v-19.02h3.252v6.557zM630.174 189h-3.27v-19.02h3.27V189zm-18.721-9.809v7.155h4.834c1.219 0 2.162-.311 2.83-.932.668-.633 1.002-1.494 1.002-2.584 0-1.055-.328-1.916-.984-2.584-.645-.68-1.553-1.031-2.725-1.055h-4.957zm30.779-2.267l4.219-6.944h3.797l-6.223 9.405 6.416 9.615h-3.761l-4.395-7.119-4.394 7.119h-3.78l6.416-9.615-6.222-9.405h3.761l4.166 6.944zm28.038 9.773c1.16 0 2.173-.351 3.041-1.054.867-.704 1.347-1.582 1.441-2.637h3.076c-.058 1.09-.433 2.127-1.125 3.111-.691.985-1.617 1.77-2.777 2.356a7.935 7.935 0 01-3.656.879c-2.59 0-4.653-.862-6.188-2.584-1.523-1.735-2.285-4.102-2.285-7.102v-.545c0-1.851.34-3.498 1.019-4.939.68-1.442 1.653-2.561 2.918-3.358 1.278-.797 2.784-1.195 4.518-1.195 2.133 0 3.902.639 5.309 1.916 1.418 1.277 2.173 2.935 2.267 4.975h-3.076c-.094-1.231-.563-2.239-1.406-3.024-.832-.797-1.864-1.195-3.094-1.195-1.652 0-2.936.597-3.85 1.793-.902 1.183-1.353 2.9-1.353 5.15v.615c0 2.192.451 3.879 1.353 5.063.903 1.183 2.192 1.775 3.868 1.775zM693.227 189c-.188-.375-.34-1.043-.457-2.004-1.512 1.57-3.317 2.356-5.415 2.356-1.875 0-3.416-.528-4.623-1.582-1.195-1.067-1.793-2.415-1.793-4.043 0-1.981.75-3.516 2.25-4.606 1.512-1.101 3.633-1.652 6.364-1.652h3.164v-1.494c0-1.137-.34-2.039-1.02-2.707-.679-.68-1.681-1.02-3.006-1.02-1.16 0-2.132.293-2.918.879-.785.586-1.177 1.295-1.177 2.127h-3.27c0-.949.334-1.863 1.002-2.742.68-.891 1.594-1.594 2.742-2.11 1.16-.515 2.432-.773 3.815-.773 2.191 0 3.908.551 5.15 1.652 1.242 1.09 1.887 2.596 1.934 4.518v8.754c0 1.746.222 3.135.668 4.166V189h-3.41zm-5.397-2.479c1.02 0 1.986-.263 2.9-.791.915-.527 1.577-1.212 1.987-2.056v-3.903h-2.549c-3.984 0-5.977 1.167-5.977 3.499 0 1.019.34 1.816 1.02 2.39.68.574 1.553.861 2.619.861zm25.541-16.541h3.252V189h-3.252v-13.869L704.6 189h-3.252v-19.02h3.252v13.887l8.771-13.887zm.879-6.925c0 1.418-.486 2.56-1.459 3.427-.961.856-2.227 1.284-3.797 1.284-1.57 0-2.842-.434-3.814-1.301-.973-.867-1.459-2.004-1.459-3.41h2.654c0 .82.223 1.465.668 1.933.445.457 1.096.686 1.951.686.82 0 1.459-.229 1.916-.686.469-.457.703-1.101.703-1.933h2.637zm21.727 9.562h-6.381V189h-3.252v-16.383h-6.258v-2.637h15.891v2.637zm1.564 6.697c0-1.863.363-3.539 1.09-5.027.738-1.488 1.758-2.637 3.058-3.445 1.313-.809 2.807-1.213 4.483-1.213 2.59 0 4.682.896 6.275 2.689 1.606 1.793 2.408 4.178 2.408 7.155v.228c0 1.852-.357 3.516-1.072 4.992-.703 1.465-1.717 2.608-3.041 3.428-1.312.82-2.824 1.231-4.535 1.231-2.578 0-4.67-.897-6.275-2.69-1.594-1.793-2.391-4.166-2.391-7.119v-.229zm3.27.387c0 2.11.486 3.803 1.459 5.08.984 1.278 2.296 1.916 3.937 1.916 1.652 0 2.965-.644 3.938-1.933.972-1.301 1.459-3.118 1.459-5.45 0-2.085-.499-3.773-1.495-5.062-.984-1.301-2.297-1.951-3.937-1.951-1.606 0-2.901.638-3.885 1.916-.984 1.277-1.476 3.105-1.476 5.484zM759.232 189v-19.02h7.418c2.532 0 4.471.446 5.819 1.336 1.359.879 2.039 2.174 2.039 3.885 0 .879-.264 1.676-.791 2.391-.528.703-1.307 1.242-2.338 1.617 1.148.27 2.068.797 2.76 1.582.703.785 1.054 1.723 1.054 2.813 0 1.746-.644 3.082-1.933 4.007-1.278.926-3.088 1.389-5.432 1.389h-8.596zm3.252-8.35v5.731h5.379c1.36 0 2.373-.252 3.041-.756.68-.504 1.02-1.213 1.02-2.127 0-1.898-1.395-2.848-4.184-2.848h-5.256zm0-2.601h4.202c3.046 0 4.57-.891 4.57-2.672 0-1.781-1.442-2.701-4.324-2.76h-4.448v5.432z" fill="#F9F9FA"/><path d="M334.139 233h-2.733v-18.38h-10.167V233h-2.718v-20.617h15.618V233zm17.488-7.491c0 2.332-.533 4.211-1.6 5.636-1.067 1.425-2.511 2.138-4.333 2.138-1.86 0-3.323-.59-4.39-1.77v7.378h-2.619v-21.212h2.393l.127 1.699c1.067-1.322 2.549-1.982 4.446-1.982 1.841 0 3.295.693 4.362 2.081 1.076 1.388 1.614 3.318 1.614 5.792v.24zm-2.62-.297c0-1.728-.368-3.092-1.104-4.092-.736-1.001-1.747-1.501-3.03-1.501-1.586 0-2.776.703-3.569 2.11v7.32c.784 1.397 1.983 2.096 3.597 2.096 1.255 0 2.251-.496 2.988-1.487.745-1 1.118-2.483 1.118-4.446zm5.268-.014c0-1.501.293-2.851.878-4.05.595-1.199 1.416-2.124 2.464-2.775 1.057-.652 2.261-.977 3.611-.977 2.086 0 3.771.722 5.055 2.166 1.293 1.444 1.94 3.365 1.94 5.763v.184c0 1.492-.288 2.832-.864 4.022-.567 1.18-1.383 2.1-2.45 2.761-1.057.661-2.275.991-3.653.991-2.077 0-3.762-.722-5.055-2.166-1.284-1.445-1.926-3.356-1.926-5.735v-.184zm2.634.311c0 1.699.391 3.064 1.175 4.093.793 1.029 1.85 1.543 3.172 1.543 1.331 0 2.388-.519 3.172-1.558.783-1.047 1.175-2.511 1.175-4.389 0-1.681-.401-3.04-1.204-4.078-.793-1.048-1.85-1.572-3.171-1.572-1.294 0-2.337.514-3.13 1.543-.793 1.029-1.189 2.502-1.189 4.418zm20.744 5.636c.935 0 1.751-.283 2.45-.85.699-.566 1.086-1.274 1.161-2.124h2.478c-.047.878-.349 1.714-.906 2.507-.557.793-1.303 1.425-2.237 1.897a6.393 6.393 0 01-2.946.708c-2.086 0-3.747-.694-4.984-2.081-1.227-1.397-1.841-3.304-1.841-5.721v-.439c0-1.492.274-2.818.821-3.979.548-1.161 1.331-2.063 2.351-2.705 1.029-.642 2.242-.962 3.639-.962 1.718 0 3.144.514 4.277 1.543 1.142 1.029 1.751 2.365 1.826 4.007h-2.478c-.075-.991-.453-1.803-1.133-2.435-.67-.642-1.501-.963-2.492-.963-1.331 0-2.365.481-3.101 1.444-.727.954-1.09 2.337-1.09 4.149v.496c0 1.765.363 3.124 1.09 4.078.727.953 1.765 1.43 3.115 1.43zm20.419-11.342h-5.14V233h-2.62v-13.197h-5.041v-2.124h12.801v2.124zm1.261 5.395c0-1.501.292-2.851.877-4.05.595-1.199 1.416-2.124 2.464-2.775 1.058-.652 2.261-.977 3.611-.977 2.086 0 3.771.722 5.055 2.166 1.294 1.444 1.94 3.365 1.94 5.763v.184c0 1.492-.288 2.832-.863 4.022-.567 1.18-1.383 2.1-2.45 2.761-1.057.661-2.275.991-3.654.991-2.076 0-3.761-.722-5.055-2.166-1.284-1.445-1.925-3.356-1.925-5.735v-.184zm2.633.311c0 1.699.392 3.064 1.176 4.093.793 1.029 1.85 1.543 3.171 1.543 1.332 0 2.389-.519 3.172-1.558.784-1.047 1.176-2.511 1.176-4.389 0-1.681-.402-3.04-1.204-4.078-.793-1.048-1.85-1.572-3.172-1.572-1.293 0-2.336.514-3.129 1.543-.793 1.029-1.19 2.502-1.19 4.418zm14.656 6.117c0-.453.132-.83.397-1.132.273-.302.679-.453 1.217-.453s.944.151 1.218.453c.283.302.425.679.425 1.132 0 .435-.142.798-.425 1.091-.274.292-.68.439-1.218.439-.538 0-.944-.147-1.217-.439-.265-.293-.397-.656-.397-1.091zm27.768-17.006h-9.94v6.174h5.126c2.152.028 3.832.581 5.041 1.657 1.208 1.076 1.812 2.539 1.812 4.389 0 1.86-.609 3.342-1.826 4.447-1.218 1.104-2.88 1.675-4.985 1.713h-7.901v-20.617h12.673v2.237zm-9.94 8.411v7.746h4.97c1.35 0 2.398-.359 3.143-1.076.756-.718 1.133-1.681 1.133-2.889 0-1.161-.363-2.077-1.09-2.747-.717-.67-1.742-1.015-3.073-1.034h-5.083zm18.111-.071h3.979c1.737.019 3.11.472 4.12 1.36 1.01.887 1.515 2.091 1.515 3.611 0 1.529-.519 2.756-1.557 3.681-1.039.925-2.436 1.388-4.192 1.388h-6.485v-15.321h2.62v5.281zm15.08 10.04h-2.634v-15.321h2.634V233zm-15.08-7.901v5.763h3.894c.981 0 1.741-.25 2.279-.751.538-.509.808-1.203.808-2.081 0-.85-.265-1.544-.793-2.082-.52-.547-1.251-.83-2.195-.849h-3.993zm25.799 6.046c.935 0 1.751-.283 2.45-.85.699-.566 1.086-1.274 1.161-2.124h2.478c-.047.878-.349 1.714-.906 2.507-.557.793-1.303 1.425-2.237 1.897a6.393 6.393 0 01-2.946.708c-2.086 0-3.747-.694-4.984-2.081-1.227-1.397-1.841-3.304-1.841-5.721v-.439c0-1.492.274-2.818.821-3.979.548-1.161 1.332-2.063 2.351-2.705 1.029-.642 2.242-.962 3.639-.962 1.718 0 3.144.514 4.277 1.543 1.142 1.029 1.751 2.365 1.826 4.007h-2.478c-.075-.991-.453-1.803-1.133-2.435-.67-.642-1.501-.963-2.492-.963-1.331 0-2.365.481-3.101 1.444-.727.954-1.09 2.337-1.09 4.149v.496c0 1.765.363 3.124 1.09 4.078.727.953 1.765 1.43 3.115 1.43zm20.419-11.342h-5.14V233h-2.619v-13.197h-5.041v-2.124h12.8v2.124zm15.492 5.706c0 2.332-.534 4.211-1.601 5.636-1.066 1.425-2.511 2.138-4.333 2.138-1.859 0-3.323-.59-4.389-1.77v7.378h-2.62v-21.212h2.393l.128 1.699c1.066-1.322 2.548-1.982 4.446-1.982 1.841 0 3.295.693 4.361 2.081 1.076 1.388 1.615 3.318 1.615 5.792v.24zm-2.62-.297c0-1.728-.368-3.092-1.105-4.092-.736-1.001-1.746-1.501-3.03-1.501-1.586 0-2.775.703-3.568 2.11v7.32c.783 1.397 1.982 2.096 3.596 2.096 1.256 0 2.252-.496 2.988-1.487.746-1 1.119-2.483 1.119-4.446zm5.267-.014c0-1.501.293-2.851.878-4.05.595-1.199 1.416-2.124 2.464-2.775 1.058-.652 2.261-.977 3.611-.977 2.086 0 3.771.722 5.055 2.166 1.294 1.444 1.94 3.365 1.94 5.763v.184c0 1.492-.288 2.832-.864 4.022-.566 1.18-1.383 2.1-2.449 2.761-1.058.661-2.275.991-3.654.991-2.076 0-3.761-.722-5.055-2.166-1.284-1.445-1.926-3.356-1.926-5.735v-.184zm2.634.311c0 1.699.392 3.064 1.176 4.093.793 1.029 1.85 1.543 3.171 1.543 1.331 0 2.389-.519 3.172-1.558.784-1.047 1.176-2.511 1.176-4.389 0-1.681-.402-3.04-1.204-4.078-.793-1.048-1.85-1.572-3.172-1.572-1.293 0-2.336.514-3.129 1.543-.793 1.029-1.19 2.502-1.19 4.418zm14.656 6.117c0-.453.132-.83.396-1.132.274-.302.68-.453 1.218-.453.538 0 .944.151 1.218.453.283.302.425.679.425 1.132 0 .435-.142.798-.425 1.091-.274.292-.68.439-1.218.439-.538 0-.944-.147-1.218-.439-.264-.293-.396-.656-.396-1.091zm22.274-7.278l4.744-11.965h3.157l-7.292 17.176c-.491 1.095-.949 1.874-1.374 2.337a4.392 4.392 0 01-1.501 1.047c-.566.236-1.279.354-2.138.354-.746 0-1.222-.042-1.43-.127l.085-2.152 1.288.056c.992 0 1.728-.477 2.209-1.43l.354-.736.539-1.261-7.024-15.264h3.045l5.338 11.965zm9.431 6.514l.906-1.119c1.019-1.321 1.6-3.304 1.742-5.947l.24-6.117h9.87v13.183h1.968v6.641h-2.619V233h-10.691v4.503h-2.62l.014-6.641h1.19zm3.101 0h7.037V220.1h-4.715l-.156 3.653c-.16 3.05-.882 5.419-2.166 7.109zm13.834-5.664c0-1.501.293-2.851.878-4.05.595-1.199 1.416-2.124 2.464-2.775 1.057-.652 2.261-.977 3.611-.977 2.086 0 3.771.722 5.055 2.166 1.293 1.444 1.94 3.365 1.94 5.763v.184c0 1.492-.288 2.832-.864 4.022-.566 1.18-1.383 2.1-2.45 2.761-1.057.661-2.275.991-3.653.991-2.077 0-3.762-.722-5.055-2.166-1.284-1.445-1.926-3.356-1.926-5.735v-.184zm2.634.311c0 1.699.392 3.064 1.175 4.093.793 1.029 1.85 1.543 3.172 1.543 1.331 0 2.388-.519 3.172-1.558.784-1.047 1.175-2.511 1.175-4.389 0-1.681-.401-3.04-1.203-4.078-.793-1.048-1.851-1.572-3.172-1.572-1.294 0-2.337.514-3.13 1.543-.793 1.029-1.189 2.502-1.189 4.418zm21.325-6.952c1.926 0 3.465.646 4.616 1.94 1.161 1.283 1.742 2.978 1.742 5.083v.241c0 1.444-.278 2.737-.835 3.88-.557 1.132-1.36 2.015-2.408 2.648-1.038.623-2.237.934-3.596.934-2.058 0-3.715-.684-4.971-2.053-1.255-1.378-1.883-3.224-1.883-5.537v-1.274c0-3.219.595-5.777 1.784-7.675 1.199-1.897 2.965-3.054 5.296-3.469 1.322-.236 2.214-.524 2.677-.864.462-.34.693-.807.693-1.402h2.153c0 1.18-.269 2.101-.807 2.762-.529.66-1.379 1.128-2.549 1.401l-1.954.439c-1.558.368-2.729.992-3.512 1.869-.774.869-1.279 2.03-1.515 3.484 1.387-1.605 3.077-2.407 5.069-2.407zm-.51 2.152c-1.283 0-2.303.434-3.058 1.303-.755.859-1.133 2.053-1.133 3.582v.227c0 1.642.378 2.945 1.133 3.908.764.953 1.793 1.43 3.087 1.43 1.302 0 2.331-.481 3.087-1.444.755-.963 1.132-2.37 1.132-4.22 0-1.444-.382-2.601-1.147-3.469-.755-.878-1.788-1.317-3.101-1.317zM628.373 233h-2.62v-6.542h-7.037V233h-2.634v-15.321h2.634v6.641h7.037v-6.641h2.62V233zm3.526-7.802c0-1.501.293-2.851.878-4.05.595-1.199 1.416-2.124 2.464-2.775 1.057-.652 2.261-.977 3.611-.977 2.086 0 3.771.722 5.055 2.166 1.293 1.444 1.94 3.365 1.94 5.763v.184c0 1.492-.288 2.832-.864 4.022-.566 1.18-1.383 2.1-2.45 2.761-1.057.661-2.275.991-3.653.991-2.077 0-3.762-.722-5.055-2.166-1.284-1.445-1.926-3.356-1.926-5.735v-.184zm2.634.311c0 1.699.391 3.064 1.175 4.093.793 1.029 1.85 1.543 3.172 1.543 1.331 0 2.388-.519 3.172-1.558.783-1.047 1.175-2.511 1.175-4.389 0-1.681-.401-3.04-1.204-4.078-.793-1.048-1.85-1.572-3.171-1.572-1.294 0-2.337.514-3.13 1.543-.793 1.029-1.189 2.502-1.189 4.418zm14.655 6.117c0-.453.133-.83.397-1.132.274-.302.68-.453 1.218-.453.538 0 .944.151 1.218.453.283.302.424.679.424 1.132 0 .435-.141.798-.424 1.091-.274.292-.68.439-1.218.439-.538 0-.944-.147-1.218-.439-.264-.293-.397-.656-.397-1.091z" fill="#B1B1B3"/></svg>