<svg width="300" height="268" fill="none" xmlns="http://www.w3.org/2000/svg"><path d="M31.252 233.671c-.299 4.125-1.826 7.372-4.581 9.742-2.738 2.369-6.354 3.554-10.848 3.554-4.914 0-8.785-1.65-11.61-4.95C1.404 238.7 0 234.154 0 228.379v-2.343c0-3.686.65-6.933 1.948-9.742 1.3-2.808 3.15-4.958 5.556-6.45 2.422-1.51 5.23-2.264 8.425-2.264 4.423 0 7.986 1.184 10.689 3.554 2.703 2.37 4.265 5.696 4.686 9.978h-7.898c-.193-2.474-.886-4.265-2.08-5.371-1.176-1.123-2.975-1.685-5.397-1.685-2.633 0-4.608.948-5.924 2.844-1.3 1.878-1.966 4.8-2.001 8.767v2.896c0 4.143.623 7.17 1.87 9.084 1.263 1.913 3.246 2.869 5.95 2.869 2.44 0 4.256-.552 5.45-1.658 1.21-1.124 1.904-2.852 2.08-5.187h7.898zM43.363 221.06c2.018-2.422 4.555-3.633 7.609-3.633 6.178 0 9.311 3.589 9.399 10.768v18.245h-7.609v-18.035c0-1.632-.351-2.834-1.053-3.607-.702-.789-1.87-1.184-3.502-1.184-2.229 0-3.844.86-4.844 2.58v20.246h-7.61V206h7.61v15.06zM82.618 246.44c-.35-.684-.605-1.535-.763-2.553-1.843 2.053-4.239 3.08-7.188 3.08-2.79 0-5.107-.807-6.95-2.422-1.826-1.615-2.739-3.651-2.739-6.108 0-3.019 1.115-5.336 3.344-6.951 2.247-1.615 5.485-2.431 9.715-2.449h3.502v-1.632c0-1.316-.342-2.37-1.027-3.159-.667-.79-1.729-1.185-3.186-1.185-1.28 0-2.29.307-3.027.921-.72.615-1.08 1.457-1.08 2.528H65.61c0-1.65.51-3.177 1.527-4.581 1.018-1.405 2.458-2.502 4.318-3.291 1.86-.808 3.95-1.211 6.266-1.211 3.51 0 6.293.886 8.346 2.659 2.072 1.755 3.107 4.23 3.107 7.424v12.348c.018 2.703.395 4.748 1.132 6.135v.447h-7.688zm-6.292-5.292c1.123 0 2.159-.245 3.107-.737.947-.509 1.65-1.185 2.106-2.027v-4.897h-2.844c-3.808 0-5.836 1.316-6.081 3.949l-.027.448c0 .947.334 1.729 1 2.343.668.614 1.58.921 2.739.921zM102.154 217.953l.237 3.186c2.019-2.475 4.748-3.712 8.188-3.712 3.669 0 6.187 1.448 7.556 4.344 2.001-2.896 4.854-4.344 8.557-4.344 3.089 0 5.389.903 6.898 2.711 1.51 1.791 2.264 4.494 2.264 8.109v18.193h-7.635v-18.166c0-1.615-.316-2.791-.948-3.528-.632-.755-1.746-1.132-3.343-1.132-2.282 0-3.862 1.088-4.739 3.264l.026 19.562h-7.609V228.3c0-1.65-.325-2.843-.974-3.581-.65-.737-1.755-1.105-3.318-1.105-2.158 0-3.721.895-4.686 2.685v20.141h-7.609v-28.487h7.135zM154.837 246.967c-4.177 0-7.582-1.281-10.215-3.844-2.616-2.563-3.923-5.977-3.923-10.242v-.737c0-2.861.553-5.415 1.659-7.661 1.105-2.265 2.667-4.002 4.686-5.214 2.036-1.228 4.353-1.842 6.951-1.842 3.896 0 6.959 1.228 9.188 3.685 2.247 2.458 3.37 5.942 3.37 10.453v3.107h-18.14c.246 1.86.983 3.352 2.212 4.475 1.246 1.124 2.817 1.685 4.712 1.685 2.932 0 5.222-1.061 6.872-3.185l3.739 4.186c-1.141 1.615-2.686 2.878-4.634 3.791-1.948.895-4.107 1.343-6.477 1.343zm-.869-23.38c-1.509 0-2.738.509-3.686 1.527-.93 1.018-1.527 2.475-1.79 4.371h10.584v-.606c-.035-1.685-.491-2.984-1.369-3.896-.878-.931-2.124-1.396-3.739-1.396zM178.928 246.44h-7.636V206h7.636v40.44z" fill="#45A1FF"/><path d="M215.724 214.504h-11.742v31.936h-7.899v-31.936h-11.584v-6.398h31.225v6.398zM213.091 231.934c0-2.826.545-5.345 1.633-7.557 1.088-2.211 2.65-3.923 4.686-5.134 2.054-1.211 4.432-1.816 7.135-1.816 3.844 0 6.977 1.176 9.399 3.528 2.44 2.352 3.801 5.546 4.081 9.583l.053 1.948c0 4.371-1.22 7.881-3.66 10.532-2.439 2.633-5.713 3.949-9.82 3.949s-7.39-1.316-9.847-3.949c-2.44-2.633-3.66-6.214-3.66-10.742v-.342zm7.609.552c0 2.703.509 4.775 1.527 6.214 1.018 1.422 2.475 2.133 4.371 2.133 1.843 0 3.282-.703 4.318-2.107 1.035-1.421 1.553-3.686 1.553-6.792 0-2.651-.518-4.704-1.553-6.161-1.036-1.457-2.493-2.186-4.371-2.186-1.86 0-3.3.729-4.318 2.186-1.018 1.439-1.527 3.677-1.527 6.713zM251.768 217.953l.237 3.291c2.036-2.545 4.765-3.817 8.188-3.817 3.019 0 5.266.886 6.74 2.659 1.474 1.773 2.229 4.423 2.264 7.951v18.403h-7.609v-18.219c0-1.615-.351-2.782-1.053-3.501-.702-.738-1.869-1.106-3.502-1.106-2.141 0-3.747.912-4.818 2.738v20.088h-7.609v-28.487h7.162zM288.101 246.967c-4.177 0-7.583-1.281-10.215-3.844-2.616-2.563-3.923-5.976-3.923-10.242v-.737c0-2.861.553-5.415 1.658-7.661 1.106-2.265 2.668-4.002 4.687-5.213 2.036-1.229 4.353-1.843 6.95-1.843 3.897 0 6.96 1.228 9.189 3.686 2.247 2.457 3.37 5.941 3.37 10.452v3.107h-18.14c.246 1.86.983 3.352 2.211 4.475 1.247 1.124 2.818 1.686 4.713 1.686 2.931 0 5.222-1.062 6.872-3.186l3.739 4.186c-1.141 1.615-2.686 2.879-4.634 3.791-1.949.895-4.107 1.343-6.477 1.343zm-.869-23.38c-1.509 0-2.738.509-3.686 1.527-.93 1.018-1.527 2.475-1.79 4.371h10.584v-.606c-.035-1.685-.492-2.983-1.369-3.896-.878-.93-2.124-1.396-3.739-1.396zM240.206.002c32.956.16 59.633 26.837 59.794 59.794 0 60.38-109.915 120.174-109.915 120.174S80.169 119.297 80.169 59.796c0-33.023 26.77-59.794 59.794-59.794a59.208 59.208 0 0150.122 26.966A59.793 59.793 0 01240.206.002z" fill="#D7443E"/><path d="M187.74 118.773c0-15.249-7.83-30.579-23.492-42.626l-.548-.48a13.256 13.256 0 00-2.271-1.441l-.313-.52c.6-2.772.85-5.61.744-8.446a51.346 51.346 0 00-2.31-14.449C155.635 32 145.729 21.473 130.42 19.592a25.657 25.657 0 00-13.051 1.312 26.188 26.188 0 00-10.793 7.614 27.197 27.197 0 00-12.647-1.481 26.85 26.85 0 00-12.607 1.48 26.267 26.267 0 00-10.797-7.603 25.734 25.734 0 00-13.048-1.322C42.13 21.473 32.38 32 28.308 50.812a51.298 51.298 0 00-2.27 14.448 33.9 33.9 0 00.626 8.445l-.274.52c-.82.392-1.595.875-2.31 1.442l-.548.48C7.87 88.154-.234 103.524.04 118.773a35.538 35.538 0 00.587 8.325 27.62 27.62 0 003.093 8.405c0 .441.352.921.587 1.361 6.852 14.209 17.463 20.813 40.524 25.216a132.862 132.862 0 0117.227 4.002c1.723 1.041 3.602 2.362 5.99 4.003a53.978 53.978 0 0020.282 9.365c.51 0 1.057 0 1.606.241 1.117.151 2.24.244 3.367.28h1.292a33.003 33.003 0 003.367-.28l1.605-.241a53.602 53.602 0 0020.242-9.365c2.428-1.681 4.307-3.002 5.991-4.003a135.91 135.91 0 0117.266-4.002c23.023-4.403 33.633-11.007 40.524-25.216.196-.44.352-.92.548-1.361a29.028 29.028 0 003.133-8.405c.463-2.748.62-5.541.469-8.325zm-9.631 13.528a33.031 33.031 0 01-9.945 10.687c-4.816 1.441-9.671 3.082-14.33 4.923-4.66 1.841-8.732 3.602-12.96 5.644a50.137 50.137 0 00-18.05 6.203 48.96 48.96 0 00-13.625 8.005 28.32 28.32 0 01-9.945 4.523 18.861 18.861 0 01-3.289.6c-.717.041-1.436.041-2.153 0-.704.04-1.41.04-2.115 0a18.861 18.861 0 01-3.288-.6 28.774 28.774 0 01-9.985-4.523 48.945 48.945 0 00-13.586-8.005 50.138 50.138 0 00-18.05-6.203c-4.228-2.042-8.613-4.003-12.96-5.644-4.345-1.641-9.513-3.482-14.33-4.923a32.604 32.604 0 01-9.944-10.687 35.555 35.555 0 01-2.937-11.407c0-9.806 4.816-19.331 15.936-30.899 2.232-2.321 3.915-4.002 5.011-5.403a7.378 7.378 0 003.916 3.562c.59.16 1.21.16 1.8 0a3.352 3.352 0 001.528-.92c1.488-1.521 1.253-2.642.235-7.365a68.38 68.38 0 01-.548-26.096v-.6c2.35-8.788 7.768-16.392 15.23-21.373a12.765 12.765 0 016.63-2.147c2.36-.084 4.698.492 6.76 1.666l10.063 15.21c1.527 3.642 2.31 5.483 4.503 5.923a3.18 3.18 0 001.722 0 3.123 3.123 0 001.449-.92c1.488-1.521 1.41-4.003.705-7.245a51.511 51.511 0 00-1.723-6.284 69.183 69.183 0 014.777 8.005c1.762 3.442 3.054 5.884 5.951 5.163a3.643 3.643 0 002.079-1.487 3.786 3.786 0 00.623-2.515 33.843 33.843 0 00-3.916-11.727 20.264 20.264 0 014.268-1.08 20.61 20.61 0 014.307 1.08 34.003 34.003 0 00-3.916 11.727c-.04.883.208 1.754.704 2.478a3.922 3.922 0 002.037 1.525c2.897.72 4.19-1.721 5.951-5.164a69.524 69.524 0 014.738-8.005 59.726 59.726 0 00-1.723 6.284c-.665 3.362-.783 5.724.705 7.245.412.43.924.747 1.488.92.563.16 1.159.16 1.723 0 2.153-.44 2.936-2.281 4.502-5.923l10.415-15.21a12.81 12.81 0 016.78-1.664c2.366.084 4.665.826 6.65 2.145 7.462 4.981 12.88 12.585 15.23 21.373v.6a68.343 68.343 0 01-.665 26.056c-1.018 4.723-1.292 5.844 0 7.365.437.436.975.752 1.563.92a3.565 3.565 0 001.804.04c1.7-.635 3.1-1.91 3.915-3.562 1.214 1.401 2.819 3.082 5.051 5.403 11.08 11.568 16.053 21.093 15.896 30.899a35.505 35.505 0 01-2.662 11.407zM117.304 28.237a23.454 23.454 0 00-3.328 4.003l-.549-.36-.626-.12a21.93 21.93 0 014.503-3.363v-.16zM74.235 31.96l-.548.36a23.49 23.49 0 00-3.328-4.003c1.629.93 3.14 2.06 4.503 3.363l-.627.28z" fill="#212125"/><path d="M162.171 78.83c-2.232-1.682-2.427-1.962-2.741-1.081v-.36l-.665 1.04c-1.958 2.922-2.976 3.082-2.232.4a38.92 38.92 0 002.075-13.568 46.367 46.367 0 00-2.31-14.249c-3.915-16.89-12.529-26.336-26.154-28.017a23.02 23.02 0 00-12.622 1.577 23.589 23.589 0 00-9.97 8.069 23.61 23.61 0 00-13.703-2.121 23.805 23.805 0 00-13.547 2.161 23.586 23.586 0 00-9.952-8.058 23.022 23.022 0 00-12.6-1.588c-13.626 1.681-22.357 11.127-26.155 28.017a47.61 47.61 0 00-2.35 14.25 39.12 39.12 0 002.115 13.567c.705 2.682-.313 2.522-2.232-.4l-.665-1.04-.196.36c-.352-.88-.509-.6-2.74 1.08-15.31 11.688-23.023 26.697-22.357 41.386.012 2.123.221 4.241.626 6.324a24.31 24.31 0 003.289 8.005c0 .24 0 .52.313.76 6.226 13.208 15.936 19.252 37.979 23.254a138.752 138.752 0 0117.932 4.003c1.84 1.121 3.915 2.522 6.5 4.323a50.698 50.698 0 0017.853 8.565l1.41.32h.235c.712.135 1.43.229 2.153.28h4.542a19.76 19.76 0 002.154-.28h.352l1.41-.32a50.418 50.418 0 0017.814-8.565c2.623-1.801 4.699-3.202 6.539-4.323a138.738 138.738 0 0117.932-4.003c22.004-4.202 31.753-10.166 38.135-23.374 0-.24 0-.52.313-.76a25.172 25.172 0 003.133-8.005c.36-2.061.531-4.151.509-6.244.9-14.649-6.813-29.658-22.122-41.386z" fill="#45A1FF"/><path d="M15.544 118.252h-.626a1.762 1.762 0 01-.509-.4 1.684 1.684 0 01-.352-.56 2.092 2.092 0 010-.681 16.939 16.939 0 011.605-6.323 17.132 17.132 0 013.915-5.204 15.009 15.009 0 015.065-3.331c1.89-.749 3.91-1.1 5.937-1.031 1.566.053 3.105.436 4.52 1.125a11.417 11.417 0 013.703 2.877 1.637 1.637 0 01.392 1.241 1.625 1.625 0 01-.588 1.161 1.534 1.534 0 01-1.214.4 1.556 1.556 0 01-1.135-.601 7.85 7.85 0 00-2.663-2.081 8.38 8.38 0 00-3.25-.88c-1.6-.068-3.197.19-4.698.76a12.19 12.19 0 00-3.915 2.602 12.564 12.564 0 00-3.094 4.002 13.284 13.284 0 00-1.252 5.003 1.86 1.86 0 01-.51 1.201c-.323.297-.74.467-1.174.48l-.157.24zM170.161 118.253a1.818 1.818 0 01-1.175-.48 1.859 1.859 0 01-.509-1.201 13.267 13.267 0 00-1.253-5.003 13.133 13.133 0 00-3.093-4.002 11.362 11.362 0 00-3.915-2.602 11.503 11.503 0 00-4.659-.76 8.378 8.378 0 00-3.25.88 7.86 7.86 0 00-2.663 2.081 1.601 1.601 0 01-1.135.601 1.509 1.509 0 01-1.214-.4 1.618 1.618 0 01-.587-1.161 1.787 1.787 0 01.352-1.241 12.131 12.131 0 013.916-2.962 11.28 11.28 0 014.541-1.201 14.736 14.736 0 016.024.918 14.993 14.993 0 015.174 3.285 17.137 17.137 0 013.916 5.203 16.97 16.97 0 011.605 6.324c.037.225.037.455 0 .681a2.606 2.606 0 01-.313.56c-.167.156-.351.29-.549.4h-.626l-.587.08z" fill="#212125"/><path d="M91.619 163.481a73.315 73.315 0 01-22.396-3.643 89.696 89.696 0 01-22.983-11.767c-10.728-7.004-17.227-11.207-21.299-19.572-5.716-11.727-4.58-19.092-2.662-24.735.09-.285.222-.555.391-.801.2-.217.44-.394.705-.52a1.61 1.61 0 01.822-.24c.297-.059.603-.059.9 0 .27.122.521.283.744.48.214.189.388.42.51.681.132.275.212.574.234.88.06.291.06.59 0 .881-1.683 5.003-2.466 11.087 2.467 21.293 3.524 7.204 9.28 10.967 19.577 17.771a83.17 83.17 0 0021.808 11.247c19.38 5.963 34.886 4.322 61.471-6.484 15.348-6.244 21.495-13.008 22.983-14.929 8.222-10.487 5.207-23.695 3.915-28.698a2.284 2.284 0 01.274-1.681 2.28 2.28 0 011.37-1.041 2.156 2.156 0 011.677.27c.248.156.462.362.632.604.169.242.289.517.354.807 1.253 5.564 4.698 20.373-4.894 32.58-2.154 2.722-8.888 9.806-24.784 16.29-16.993 7.045-29.718 10.327-41.816 10.327z" fill="#212125"/><path fill-rule="evenodd" clip-rule="evenodd" d="M69.145 99.762a8.984 8.984 0 00-5.717 3.082 9.204 9.204 0 00-2.231 6.203c0 3.322.94 4.963 1.213 2.122 1.097-11.447 14.017-11.527 20.008 0 1.253 2.321 1.644 1.961.979-.841a14.291 14.291 0 00-5.314-7.816 13.761 13.761 0 00-8.938-2.67" fill="#212125"/><path d="M61.902 112.969c-1.096 0-1.096-3.522-1.096-4.002a9.531 9.531 0 012.31-6.404 9.257 9.257 0 015.951-3.162 14.11 14.11 0 019.153 2.73 14.652 14.652 0 015.451 7.997c.51 2.081.392 2.601 0 2.721-.391.121-.744 0-1.566-1.681-3.563-6.764-9.162-9.005-13.155-8.005a8.13 8.13 0 00-4.48 2.9 8.442 8.442 0 00-1.785 5.105c0 .841-.196 1.801-.783 1.801zm7.282-12.847a8.623 8.623 0 00-5.61 2.909 9 9 0 00-2.22 6.016 9.028 9.028 0 00.391 3.042c.103-.325.169-.661.196-1.001a9.214 9.214 0 011.913-5.572 8.868 8.868 0 014.86-3.193c2.901-.263 5.809.425 8.301 1.965a13.93 13.93 0 015.56 6.6c.196.36.43.721.665 1.081a8.452 8.452 0 00-.313-1.681 13.89 13.89 0 00-5.15-7.595 13.372 13.372 0 00-8.67-2.611l.078.04z" fill="#212125"/><path fill-rule="evenodd" clip-rule="evenodd" d="M70.398 106.566a6.226 6.226 0 00-2.077 3.502 6.327 6.327 0 00.511 4.062c.43.481.548.361.666-.92.234-2.722.978-4.243 2.075-4.243.47 0 .509 0 .43.32-1.213 2.762 1.097 9.086 4.777 13.008l.94 1.041h-.627a5.94 5.94 0 01-3.72-1.841c-1.33-1.241-1.84-.761-.782.72 3.915 5.404 9.083 4.003 9.122-2.401 0-7.605-7.125-16.01-11.315-13.408" fill="#212125"/><path d="M77.563 125.978a6.963 6.963 0 01-3.01-1.078 7.135 7.135 0 01-2.236-2.324c-.666-.921-.823-1.521-.47-1.841.352-.321.94 0 1.762.68a5.673 5.673 0 003.406 1.761l-.509-.6c-3.915-4.003-6.069-10.287-4.933-13.289-.862 0-1.527 1.481-1.762 4.003 0 .961 0 1.401-.51 1.521-.508.12-.547-.2-.743-.4a4.783 4.783 0 01-.726-1.767 4.828 4.828 0 01.021-1.916 6.421 6.421 0 01.737-2.427 6.28 6.28 0 011.612-1.935 4.23 4.23 0 014.62.2 16.432 16.432 0 015.216 5.821 16.854 16.854 0 011.989 7.627 5.752 5.752 0 01-.636 3.477 5.573 5.573 0 01-2.536 2.407c-.39.06-.785.06-1.174 0l-.118.08zm-5.325-4.723c.132.302.303.585.51.84 1.722 2.482 3.915 3.643 5.794 3.042 1.88-.6 2.936-2.561 2.936-5.243a16.283 16.283 0 00-1.923-7.277 15.882 15.882 0 00-4.968-5.571 3.861 3.861 0 00-1.926-.657 3.83 3.83 0 00-1.989.417 5.536 5.536 0 00-1.432 1.781 5.655 5.655 0 00-.604 2.221 4.09 4.09 0 00.548 3.122 6.073 6.073 0 010-.68c.274-2.922 1.136-4.563 2.428-4.563.274 0 .548 0 .705.24a.408.408 0 010 .28.33.33 0 010 .281c-1.136 2.641 1.135 8.805 4.698 12.687l1.331 1.481-1.214.24a6.246 6.246 0 01-3.915-1.921 2.745 2.745 0 00-.861-.72h-.118z" fill="#212125"/><path fill-rule="evenodd" clip-rule="evenodd" d="M84.336 120.535c0 .44 0 .84-.195 1.28-.549 6.124-3.72 9.606-7.831 8.526-2.114-.601-2.35-.481-1.135.48 3.563 2.802 7.83 0 9.475-5.604.509-2.161 0-5.843-.47-4.682" fill="#212125"/><path d="M78.386 132.301a5.522 5.522 0 01-3.29-1.2c-.587-.481-.978-.841-.782-1.201.195-.36.587-.36 2.231 0 .657.16 1.34.16 1.997 0a4.643 4.643 0 001.88-.801 10.224 10.224 0 002.48-3.394c.587-1.296.902-2.703.926-4.13a5.475 5.475 0 010-1.401c.274-.48.587-.44.665-.36.862.32.784 3.722.392 5.243a9.265 9.265 0 01-1.736 4.002 9 9 0 01-3.354 2.722 4.382 4.382 0 01-1.605.28l.196.24zm-3.054-1.721h.195a4.46 4.46 0 002.036 1.001 4.68 4.68 0 002.232 0 8.537 8.537 0 003.09-2.564 8.777 8.777 0 001.608-3.72 11.901 11.901 0 000-4.002v.8a10.966 10.966 0 01-.998 4.407 10.747 10.747 0 01-2.682 3.598 5.189 5.189 0 01-2.114.881c-.76.179-1.55.179-2.31 0l-1.057-.401z" fill="#212125"/><path fill-rule="evenodd" clip-rule="evenodd" d="M110.491 99.762a13.723 13.723 0 00-8.92 2.673 14.255 14.255 0 00-5.293 7.813c-.704 2.802-.274 3.162.94.841 5.991-11.448 18.911-11.367 20.008 0 .274 2.841 1.252 1.2 1.213-2.122a9.173 9.173 0 00-2.192-6.204 9.184 9.184 0 00-5.756-3.082" fill="#212125"/><path d="M117.695 112.97c-.548 0-.744-.961-.822-1.761a8.403 8.403 0 00-1.76-5.101 8.087 8.087 0 00-4.465-2.904 12.78 12.78 0 00-7.896 1.895 13.211 13.211 0 00-5.26 6.31c-.822 1.561-1.214 1.801-1.566 1.681-.352-.12-.509-.68 0-2.762a14.654 14.654 0 015.451-7.996 14.111 14.111 0 019.153-2.73 9.292 9.292 0 015.932 3.184 9.69 9.69 0 012.33 6.422c0 .4 0 4.002-1.058 4.002l-.039-.24zm-8.809-10.767a8.134 8.134 0 011.723 0 8.95 8.95 0 014.867 3.196 9.288 9.288 0 011.945 5.57c-.04.319-.04.642 0 .96a8.767 8.767 0 00.392-3.041 8.923 8.923 0 00-2.214-6.011 8.544 8.544 0 00-5.617-2.875 13.393 13.393 0 00-8.524 2.881 13.912 13.912 0 00-4.905 7.686 12.211 12.211 0 00-.314 1.641 7.18 7.18 0 00.666-1.081 14.717 14.717 0 014.785-6.153 14.262 14.262 0 017.196-2.773z" fill="#212125"/><path fill-rule="evenodd" clip-rule="evenodd" d="M109.59 106.565c-4.228-2.681-11.354 5.804-11.315 13.409 0 6.403 5.286 8.004 9.123 2.401 1.057-1.521.548-1.961-.822-.72a6.106 6.106 0 01-3.681 1.841h-.626l.939-1.041c3.681-4.002 5.991-10.286 4.777-13.008 0-.28 0-.32.392-.32 1.096 0 1.879 1.521 2.114 4.242 0 1.281.196 1.401.665.881a6.287 6.287 0 00.507-4.043 6.193 6.193 0 00-2.073-3.482" fill="#212125"/><path d="M102.308 125.978c-.425 0-.848-.068-1.253-.2a5.563 5.563 0 01-2.535-2.407 5.749 5.749 0 01-.636-3.476c.098-2.652.81-5.242 2.076-7.558a16.661 16.661 0 015.206-5.77 4.36 4.36 0 012.258-.775 4.355 4.355 0 012.323.534 6.168 6.168 0 011.629 1.948c.405.758.65 1.595.72 2.455a4.57 4.57 0 01-.705 3.642s-.43.521-.743.401c-.314-.12-.431-.521-.509-1.481 0-2.482-.862-4.003-1.762-4.003 1.096 3.042-1.214 9.246-4.894 13.248l-.549.561a5.561 5.561 0 003.407-1.761c.861-.721 1.448-.961 1.801-.681.352.28 0 .961-.47 1.881a7.246 7.246 0 01-2.29 2.36 7.058 7.058 0 01-3.074 1.082zm5.521-19.652a5.354 5.354 0 00-2.35.681 16.25 16.25 0 00-4.938 5.609 16.647 16.647 0 00-1.953 7.279c0 2.721 1.018 4.643 2.702 5.203 1.684.56 3.915-.56 5.795-3.002.192-.279.362-.573.509-.88a3.146 3.146 0 00-.823.6 6.171 6.171 0 01-3.915 1.921l-1.253-.24 1.371-1.481c3.602-4.002 5.873-10.046 4.698-12.688a.775.775 0 010-.28.577.577 0 010-.28c0-.24.47-.24.705-.24 1.331 0 2.192 1.601 2.427 4.563v.68a4.061 4.061 0 00.548-3.122 5.924 5.924 0 00-1.996-4.002 3.049 3.049 0 00-1.567-.401l.04.08z" fill="#212125"/><path fill-rule="evenodd" clip-rule="evenodd" d="M95.3 120.535c-.666-1.161-.98 2.521-.431 4.682 1.449 5.804 5.873 8.406 9.436 5.604 1.253-.961.979-1.081-1.136-.48-3.915 1.08-7.126-2.402-7.83-8.526a7.22 7.22 0 000-1.28" fill="#212125"/><path d="M101.251 132.302a5.898 5.898 0 01-1.645-.28 9.161 9.161 0 01-3.338-2.735 9.424 9.424 0 01-1.751-3.989c-.392-1.521-.431-4.963.391-5.284 0 0 .43 0 .666.361.118.459.197.927.235 1.4.01 1.436.32 2.853.907 4.157a10.104 10.104 0 002.499 3.408 4.495 4.495 0 003.915.641c1.645-.441 2.036-.481 2.232 0 .196.48-.196.68-.822 1.2a5.367 5.367 0 01-3.289 1.121zm-6.186-11.287a10.467 10.467 0 000 4.002 8.54 8.54 0 001.593 3.717 8.292 8.292 0 003.105 2.527c.731.201 1.501.201 2.232 0a4.89 4.89 0 002.036-1l-1.018.28a5.584 5.584 0 01-2.31 0 5.26 5.26 0 01-2.114-.921 10.824 10.824 0 01-2.675-3.601 11.048 11.048 0 01-1.006-4.404c.235-.08.196-.36.157-.6z" fill="#212125"/><path d="M137.937 2.06c13.704 2.162 26.311 16.01 28.7 36.023 3.484 29.058-8.81 52.032-40.172 43.747-34.885-9.366-38.292-27.537-26.467-54.233C108.142 9.225 124.194-.1 137.937 2.06z" fill="#fff"/><path d="M157.122 48.29a30.776 30.776 0 019.241 5.724 62.621 62.621 0 000-16.01c-2.389-20.013-14.996-33.741-28.7-36.023C123.96-.3 107.868 9.146 99.723 27.437a60.979 60.979 0 00-2.583 7.885 60.735 60.735 0 0118.832-1.12 68.867 68.867 0 0110.298 2 83.723 83.723 0 0114.33 4.003 75.744 75.744 0 0116.522 8.085z" fill="#45A1FF"/><path d="M155.87 47.37c.47.32 1.018.6 1.448.96a29.448 29.448 0 019.28 5.724 62.986 62.986 0 000-16.01c-2.389-20.012-14.996-33.74-28.739-36.022a30.116 30.116 0 00-19.85 4.483c2.889-.5 5.841-.5 8.731 0 13.703 2.12 26.311 16.01 28.699 36.022.247 1.603.391 3.22.431 4.843zM95.3 61.778c1.33 9.166 2.779 15.05 6.655 18.292 2.741 2.281 7.009 2.361 15.231 3.001a88.713 88.713 0 0113.116.961c5.951 1.32 7.165 3.002 10.18 3.442 4.268.56 10.845-1.68 20.477-15.41H160.293a33.73 33.73 0 00-3.68-1.68c-.587-.2-1.135-.36-1.684-.6h-.9a71.38 71.38 0 00-8.222-1.682c-5.991-1.04-11.746-2.001-17.854-3.202a176.477 176.477 0 00-18.246-2.802c-1.448 0-2.819-.2-4.267-.28a5.796 5.796 0 00-1.175 0h-1.801a61.697 61.697 0 00-7.165.56v-.6z" fill="#45A1FF"/><path d="M107.202 86.553c4.651 4.48 10.547 7.374 16.875 8.285 16.562 2.602 29.796-7.805 37-22.774l-.666-.32a61.055 61.055 0 00-3.68-1.681l-1.684-.56a.345.345 0 00-.235 0h-.665l-3.172-.76c-7.439 13.648-20.124 22.853-35.825 20.372a34.2 34.2 0 01-7.831-2.282l-.117-.28z" fill="#45A1FF"/><path d="M98.784 78.148a60.853 60.853 0 01-5.876-25.65 60.876 60.876 0 015.484-25.741C106.459 8.786 122.746-2.101 138.173.34c15.427 2.442 27.838 17.811 30.148 37.423a60.858 60.858 0 01-2.3 26.173 59.894 59.894 0 01-13.087 22.617c-8.261 8.246-14.017-.48-24.784-2.2-10.767-1.722-23.844 4.202-29.365-6.205zm2.702-49.91a57.405 57.405 0 00-5.175 24.166 57.389 57.389 0 005.449 24.103c4.972 9.326 16.366 4.003 26.115 5.404 9.749 1.4 15.152 9.566 22.591 2.241a56.3 56.3 0 0012.302-21.284 57.218 57.218 0 002.146-24.624c-2.193-18.091-13.351-32.02-27.407-34.381-14.056-2.362-28.7 8.005-36.178 24.375h.157z" fill="#212125"/><path d="M141.187 66.261a24.267 24.267 0 005.129-11.727 23.965 23.965 0 00-1.566-12.928c-3.25-1.16-6.382-2.562-9.632-3.642a48.025 48.025 0 00-8.927-1.281 10.273 10.273 0 01-5.168-1.321c-2.467-1.24-3.915 0-5.403 1.52a24.266 24.266 0 00-5.364 12.008 23.97 23.97 0 001.879 13.649c4.346 0 8.692 0 12.999.4a70.536 70.536 0 0116.053 3.202v.12z" fill="#45A1FF"/><path d="M136.763 53.333c.366-2.305.067-4.67-.861-6.804a11.96 11.96 0 00-4.121-5.219 11.58 11.58 0 00-6.216-2.145 11.154 11.154 0 00-6.382 1.48 11.881 11.881 0 00-4.659 4.723 12.462 12.462 0 00-1.527 6.484c.026 2.39.748 4.717 2.075 6.685a11.985 11.985 0 005.012 4.002c1.722 0 3.406 0 5.09.28 1.018 0 2.075 0 3.054.32a11.71 11.71 0 005.733-3.67 12.131 12.131 0 002.802-6.296v.16z" fill="#212125"/><path d="M124.116 56.495c.774 0 1.531-.235 2.175-.674a3.982 3.982 0 001.442-1.797 4.08 4.08 0 00.223-2.312 4.034 4.034 0 00-1.071-2.05 3.895 3.895 0 00-2.005-1.095 3.835 3.835 0 00-2.262.228 3.93 3.93 0 00-1.757 1.474 4.06 4.06 0 00-.66 2.224c0 1.061.412 2.08 1.146 2.83a3.875 3.875 0 002.769 1.172zM139.23 65.62a23.085 23.085 0 005.403-13.247c-.834 4.945-3.276 9.457-6.93 12.807l1.527.44z" fill="#fff"/><path d="M95.3 35.442c39.622-3.642 73.255 20.013 72.746 19.492-37.744-35.342-72.747-19.492-72.747-19.492zM93.85 62.539c30.266-9.926 67.109 9.486 67.109 9.486-50.155-13.048-67.108-9.486-67.108-9.486z" fill="#212125"/><path d="M82.967 34.722c8.613 24.215-1.488 45.268-26.155 47.19-24.666 1.92-37.978-17.331-32.967-42.587 3.407-17.33 15.388-28.578 27.408-29.538 12.02-.96 25.802 8.365 31.714 24.935z" fill="#fff"/><path d="M46.514 43.086a70.805 70.805 0 0112.843-2.521 58.916 58.916 0 019.2-1.08c5.55-.084 11.08.685 16.406 2.28a55.031 55.031 0 00-1.918-7.044C77.093 18.191 63.468 8.905 51.447 9.866c-12.02.96-24.119 12.207-27.407 29.458a54.641 54.641 0 00-.862 14.049 26.483 26.483 0 018.496-4.363 64.968 64.968 0 0114.84-5.924z" fill="#45A1FF"/><path d="M33.398 43.808C36.805 26.517 48.786 15.27 60.806 14.31a23.345 23.345 0 017.635.68c-4.98-3.658-11.026-5.478-17.15-5.163-12.176.96-24.118 12.207-27.407 29.538a54.437 54.437 0 00-.9 14.049 26.175 26.175 0 018.496-4.403l1.331-.68c.116-1.518.312-3.028.587-4.523zM78.581 64.1h-6.499c-5.407.12-10.804.52-16.17 1.201-5.326.64-10.572 1.12-15.897 1.561-2.455.168-4.9.476-7.322.92h-.587a.27.27 0 00-.235 0l-1.488.4c-1.142.341-2.266.742-3.367 1.202l-.587.24c3.21 8.005 4.542 13.528 8.222 15.81 2.897 1.76 6.186 1.04 11.746.36 7.36-.92 7.635-2.562 13.312-3.122 8.77-.84 10.454 2.882 15.661.68 4.581-1.881 5.834-6.644 7.009-11.167.744-3.002 2.545-5.523 2.27-7.124a46.03 46.03 0 00-6.225-1l.157.04z" fill="#45A1FF"/><path d="M65.817 87.514c-13.938 1.08-24.47-8.005-30.07-20.332-.94 0-1.918.24-2.858.44a2.53 2.53 0 00-.587 0h-.196l-1.527.4a34.05 34.05 0 00-3.367 1.24l-.587.201c5.364 13.608 16.287 23.655 31.009 22.534a27.071 27.071 0 0015.348-6.124 29.272 29.272 0 01-7.165 1.481v.16z" fill="#45A1FF"/><path d="M57.987 84.753c-9.632.2-18.676 6.004-25.372-1.8A52.904 52.904 0 0122.56 62.137a53.571 53.571 0 01-.28-23.213c3.367-17.01 15.23-29.658 28.934-30.739 13.704-1.08 27.408 9.606 33.124 25.896a53.424 53.424 0 013.137 22.945 53.178 53.178 0 01-6.857 22.083c-5.011 8.645-3.054 5.283-22.63 5.643zm-6.46-73.365c-12.373.96-23.062 12.568-26.155 28.258a50.503 50.503 0 00.265 21.742 49.882 49.882 0 009.367 19.523c6.03 6.964 13.155 1.64 21.808 1 8.653-.64 16.405 3.483 21.417-4.362a50.47 50.47 0 006.267-20.78 50.684 50.684 0 00-3.017-21.526c-5.325-15.01-17.697-24.735-29.953-23.855z" fill="#212125"/><path d="M58.574 64.14c3.915 0 7.83.2 11.472.52a21.765 21.765 0 002.524-11.569 21.675 21.675 0 00-3.895-11.165c-1.213-1.32-2.388-2.641-4.659-1.72a8.795 8.795 0 01-4.62.8 43.945 43.945 0 00-7.83.48c-2.898.76-5.756 1.761-8.693 2.562a20.637 20.637 0 00-2.153 11.247A21.417 21.417 0 0044.635 65.9a58.896 58.896 0 0114.252-1.76h-.313z" fill="#45A1FF"/><path d="M55.872 64.22h7.165a10.54 10.54 0 005.631-4.612 10.926 10.926 0 001.386-7.24 10.79 10.79 0 00-3.514-6.441 10.361 10.361 0 00-6.753-2.6 9.894 9.894 0 00-5.599 1.481 10.358 10.358 0 00-3.915 4.283 10.477 10.477 0 00-1.174 5.763 10.63 10.63 0 002.036 5.724 10.516 10.516 0 004.776 3.642h-.039z" fill="#212125"/><path d="M60.18 58.536a3.24 3.24 0 001.816-.586 3.349 3.349 0 001.194-1.517c.243-.615.302-1.29.17-1.94a3.385 3.385 0 00-.908-1.71 3.267 3.267 0 00-1.685-.91 3.223 3.223 0 00-1.894.199 3.306 3.306 0 00-1.47 1.238 3.415 3.415 0 00-.298 3.16c.168.41.414.783.723 1.096.31.312.677.559 1.08.726.404.166.836.25 1.271.244zM47.45 65.18a20.23 20.23 0 01-5.125-11.727 20.562 20.562 0 003.913 12.007l1.213-.28z" fill="#fff"/><path d="M21.535 54.774c-.47.44 31.988-20.572 65.073-12.567 0-.04-26.35-21.854-65.073 12.567zM25.685 70.264s32.302-16.85 60.14-4.363c0 0-17.58-4.482-60.14 4.363zM79.585 126.438c2.921-1.491 3.198-6.981.618-12.261-2.58-5.28-7.039-8.351-9.96-6.86-2.921 1.492-3.198 6.981-.618 12.261 2.58 5.28 7.04 8.352 9.96 6.86zM110.402 118.403c2.523-5.308 2.187-10.794-.75-12.253-2.937-1.458-7.363 1.663-9.886 6.972-2.523 5.308-2.187 10.794.75 12.253 2.937 1.458 7.363-1.663 9.886-6.972z" fill="#212125"/></svg>